<?xml version="1.0" encoding="UTF-8" standalone="no"?>
<svg
   viewBox="0 0 409.48932 369.72464"
   version="1.1"
   sodipodi:docname="cover.svg"
   inkscape:version="1.1.1 (3bf5ae0d25, 2021-09-20)"
   id="svg14878"
   xmlns:inkscape="http://www.inkscape.org/namespaces/inkscape"
   xmlns:sodipodi="http://sodipodi.sourceforge.net/DTD/sodipodi-0.dtd"
   xmlns="http://www.w3.org/2000/svg"
   xmlns:svg="http://www.w3.org/2000/svg">
  <sodipodi:namedview
     id="namedview14481"
     pagecolor="#ffffff"
     bordercolor="#666666"
     borderopacity="1.0"
     inkscape:pageshadow="2"
     inkscape:pageopacity="0.0"
     inkscape:pagecheckerboard="0"
     showgrid="false"
     fit-margin-top="0"
     fit-margin-left="0"
     fit-margin-right="0"
     fit-margin-bottom="0"
     inkscape:zoom="2.278"
     inkscape:cx="211.36962"
     inkscape:cy="188.1036"
     inkscape:window-width="3440"
     inkscape:window-height="1369"
     inkscape:window-x="0"
     inkscape:window-y="34"
     inkscape:window-maximized="1" />
  <defs
     id="defs14056">
    <clipPath
       id="freepik--clip-path--inject-13">
      <path
         d="m 307.85,412.39 c -0.74,5.69 -1.58,11.85 -2.54,18.54 h -85.84 l 0.41,-11.06 c -5.13,1.24 -15.1,0.48 -15.1,0.48 V 404 c 6.06,-3.43 7,-2.47 7,-2.47 0,0 0.31,-39.9 3.94,-49.86 a 20.09,20.09 0 0 1 7.1,-9.34 v 0 a 24.31,24.31 0 0 1 2.71,-1.75 l 0.13,-0.08 c 1,-0.53 2.21,-1.09 3.59,-1.67 l 0.38,-0.15 c 13.44,-5.49 42.77,-11.86 70.1,-0.18 1.91,0.82 17.51,8.27 18.84,19 0.72,6.17 -3.46,36.71 -10.72,54.89 z"
         style="fill:#e39292;stroke:#263238;stroke-linecap:round;stroke-linejoin:round"
         id="path14032" />
    </clipPath>
    <clipPath
       id="freepik--clip-path-2--inject-13">
      <path
         d="m 239.14,407.37 a 3.57,3.57 0 0 1 4.1,-1 3.67,3.67 0 0 1 4.06,-0.28 c 2,1.32 6,16.32 2.11,19.13 -1.12,0.8 -4.25,1.55 -5.21,-0.06 a 2.37,2.37 0 0 1 -3.65,-1.15 c -1.12,-2.61 0.93,-5.82 -2,-13.39 a 3.19,3.19 0 0 1 0.59,-3.25 z"
         style="fill:#e39292;stroke:#263238;stroke-linecap:round;stroke-linejoin:round"
         id="path14035" />
    </clipPath>
    <clipPath
       id="freepik--clip-path-3--inject-13">
      <path
         d="M 274.42,333.27 273,313.12 252.14,318 251,334.13 c -1.31,0.16 -2.56,0.35 -3.79,0.53 l 5.1,12.23 10,1.31 15.94,-14.69 c -1.25,-0.1 -2.57,-0.18 -3.83,-0.24 z"
         style="fill:#ffffff;stroke:#263238;stroke-linecap:round;stroke-linejoin:round"
         id="path14038" />
    </clipPath>
    <clipPath
       id="freepik--clip-path-4--inject-13">
      <path
         d="m 250,333.19 7.7,13.86 18.49,-14.59 5.69,0.8 -12,21.15 a 1.63,1.63 0 0 1 -2.28,0.57 l -10.23,-6.46 -8,4.88 a 1.63,1.63 0 0 1 -2.47,-1.21 l -2,-18.06 z"
         style="fill:#e39292;stroke:#263238;stroke-linecap:round;stroke-linejoin:round"
         id="path14041" />
    </clipPath>
    <clipPath
       id="freepik--clip-path-5--inject-13">
      <path
         d="m 376.36,313 c 0,0 -1.37,17 7.38,31.55 0,0 -11.79,3.85 -24.09,0.19 v 0 a 40.46,40.46 0 0 0 -0.74,-13.48 l -0.42,-1.85 8.94,-7.73 z"
         style="fill:#ffffff;stroke:#263238;stroke-linecap:round;stroke-linejoin:round"
         id="path14044" />
    </clipPath>
    <clipPath
       id="freepik--clip-path-6--inject-13">
      <path
         d="m 404.14,422.46 q -0.66,4.08 -1.41,8.47 h -68.58 c -0.11,-0.92 0.54,-2.77 1.16,-6 -7.64,2.59 -21,-1.43 -21,-1.43 1.66,-4.37 0.51,-15.47 0.51,-15.47 l 7.78,-1.65 c 0,0 3.23,-33.82 5.69,-43.51 2.61,-10.28 16.89,-21.5 64.92,-18.19 v 0 c 0,0 22.16,-0.42 25.6,14.27 3.24,13.71 -13.75,62.88 -14.67,63.51 z"
         style="fill:#e39292;stroke:#263238;stroke-linecap:round;stroke-linejoin:round"
         id="path14047" />
    </clipPath>
    <clipPath
       id="freepik--clip-path-7--inject-13">
      <path
         d="m 378.84,407.84 c 0,0 2.24,-4.94 8.94,-2.5 0,0 6.33,2.18 8.23,8.69 1.9,6.51 -0.48,12.32 -5.1,12.56 -4.62,0.24 -5.46,-0.12 -4.68,-1.54 a 11.62,11.62 0 0 0 0.36,-10.12 c -2.87,-6.87 -7.75,-7.09 -7.75,-7.09 z"
         style="fill:#e39292;stroke:#263238;stroke-linecap:round;stroke-linejoin:round"
         id="path14050" />
    </clipPath>
    <clipPath
       id="freepik--clip-path-8--inject-13">
      <path
         d="M 206,408 H 101.16 a 5,5 0 0 1 -4.78,-4.26 l -9.1,-74.1 A 3.68,3.68 0 0 1 91,325.41 h 104.88 a 5,5 0 0 1 4.78,4.26 l 9.1,74.1 A 3.69,3.69 0 0 1 206,408 Z"
         style="fill:#263238;stroke:#263238;stroke-linecap:round;stroke-linejoin:round"
         id="path14053" />
    </clipPath>
  </defs>
  <g
     id="freepik--background-simple--inject-13"
     transform="translate(-38.59,-61.725359)">
    <path
       d="M 86.26,358.2 C 60.65,321.76 2.07,215.13 120.15,183.27 238.23,151.41 200.43,60.4 286.69,61.74 372.95,63.08 457.61,135.33 447.21,203.89 436.81,272.45 342.16,267 315.7,337.83 289.24,408.66 131.32,422.3 86.26,358.2 Z"
       style="fill:#e39292"
       id="path14058" />
    <path
       d="M 86.26,358.55 C 60.65,322.11 2.07,215.48 120.15,183.62 238.23,151.76 200.43,60.75 286.69,62.08 c 86.26,1.33 170.92,73.6 160.52,142.16 -10.4,68.56 -105,63.11 -131.51,133.93 -26.51,70.82 -184.38,84.48 -229.44,20.38 z"
       style="opacity:0.7;fill:#ffffff"
       id="path14060" />
  </g>
  <g
     id="freepik--Graphics--inject-13"
     transform="translate(-38.59,-61.725359)">
    <path
       d="m 380.52,194.16 a 21.9,21.9 0 0 0 11,-6.38 l 7.05,2.39 3.51,-6.09 -5.58,-4.91 a 22.05,22.05 0 0 0 0,-12.74 l 5.58,-4.91 -3.51,-6.1 -7.05,2.39 a 21.81,21.81 0 0 0 -11,-6.37 l -1.46,-7.3 h -3.52"
       style="fill:none;stroke:#263238;stroke-miterlimit:10"
       id="path14063" />
    <path
       d="m 372,144.14 -1.46,7.3 a 21.85,21.85 0 0 0 -11,6.37 l -7,-2.39 -3.51,6.1 5.58,4.91 a 22.05,22.05 0 0 0 0,12.74 l -5.61,4.91 3.51,6.09 7,-2.39 a 21.94,21.94 0 0 0 11,6.38 l 1.46,7.29 h 7 l 1.46,-7.29"
       style="fill:none;stroke:#263238;stroke-miterlimit:10"
       id="path14065" />
    <path
       d="m 375.09,184.53 c -12.54,-0.88 -14.89,-19.14 -2.36,-22.35"
       style="fill:none;stroke:#263238;stroke-miterlimit:10"
       id="path14067" />
    <path
       d="m 383,164.7 c 6.24,5.71 4.27,16.87 -4,19.39"
       style="fill:none;stroke:#263238;stroke-miterlimit:10"
       id="path14069" />
    <path
       d="m 377,161.93 a 10.92,10.92 0 0 1 3.16,0.87"
       style="fill:none;stroke:#263238;stroke-miterlimit:10"
       id="path14071" />
    <path
       d="m 417.88,199.71 1.48,-1.77 a 14.55,14.55 0 0 0 8.39,-0.21 l 3.32,3.59"
       style="fill:none;stroke:#263238;stroke-miterlimit:10"
       id="path14073" />
    <path
       d="m 412.41,172 0.65,1.75 a 14.47,14.47 0 0 0 -4,7.37 l -4.77,1.09 0.11,4.63 4.83,0.84 a 14.59,14.59 0 0 0 1.66,3.9 14.33,14.33 0 0 0 2.72,3.25 l -1.45,4.68 4.07,2.21"
       style="fill:none;stroke:#263238;stroke-miterlimit:10"
       id="path14075" />
    <path
       d="m 431.07,201.32 3.93,-2.42 -1.68,-4.6 a 14.53,14.53 0 0 0 4,-7.37 l 4.77,-1.08 -0.12,-4.63 -4.82,-0.84 a 14.45,14.45 0 0 0 -4.38,-7.15 l 1.45,-4.68 -4.07,-2.21 -3.15,3.76 a 14.35,14.35 0 0 0 -8.38,0.21 l -3.33,-3.59 -3.95,2.42"
       style="fill:none;stroke:#263238;stroke-miterlimit:10"
       id="path14077" />
    <path
       d="m 430.48,182.32 c 1.37,5.74 -4.09,11.27 -9.86,8.94 -5.5,-2.23 -6.3,-10.3 -1.19,-13.4"
       style="fill:none;stroke:#263238;stroke-miterlimit:10"
       id="path14079" />
    <path
       d="m 425.76,177.16 a 7.37,7.37 0 0 1 3,2"
       style="fill:none;stroke:#263238;stroke-miterlimit:10"
       id="path14081" />
    <path
       d="m 108.82,296 7.52,7.51 a 8.08,8.08 0 0 0 9.73,9.73 l -4.72,-4.71 1.28,-4.78 4.77,-1.28 4.72,4.72 a 8.08,8.08 0 0 0 -9.73,-9.73 l -6.92,-6.92"
       style="fill:none;stroke:#263238;stroke-miterlimit:10"
       id="path14083" />
    <path
       d="m 104.48,279.58 -6.89,-6.89 A 8.1,8.1 0 0 0 87.85,263 l 4.72,4.72 -1.28,4.77 -4.77,1.28 L 81.8,269 a 8.1,8.1 0 0 0 9.74,9.74 l 6.89,6.89"
       style="fill:none;stroke:#263238;stroke-miterlimit:10"
       id="path14085" />
    <path
       d="m 112.22,286.83 9.61,-9.61 a 6.68,6.68 0 0 1 1.61,-1.18 l 1.93,-1 7,-8 -4.37,-4.3 -8,7 -1,1.93 a 6.25,6.25 0 0 1 -1.18,1.61 l -7.62,7.63"
       style="fill:none;stroke:#263238;stroke-miterlimit:10"
       id="path14087" />
    <path
       d="m 86.64,312 a 3.26,3.26 0 0 0 4.18,-0.58 l 16.65,-16.65 a 3.16,3.16 0 0 0 1,-2.89 l 2.89,-2.89 0.18,0.17 a 1.06,1.06 0 0 0 1.51,0 1.08,1.08 0 0 0 0,-1.51 l -5.7,-5.7 a 1.0712726,1.0712726 0 0 0 -1.51,1.52 l 0.18,0.17 -2.89,2.89 a 3.15,3.15 0 0 0 -2.89,1 L 83.61,304.25 A 3.22,3.22 0 0 0 82.55,307"
       style="fill:none;stroke:#263238;stroke-miterlimit:10"
       id="path14089" />
    <path
       d="m 83.22,308.76 a 9.25,9.25 0 0 0 1.38,1.71 8.72,8.72 0 0 0 2,1.57"
       style="fill:none;stroke:#263238;stroke-miterlimit:10"
       id="path14091" />
    <line
       x1="88.339996"
       y1="306.98999"
       x2="91.25"
       y2="304.07999"
       style="fill:none;stroke:#263238;stroke-miterlimit:10"
       id="line14093" />
    <line
       x1="95.18"
       y1="300.14999"
       x2="107.48"
       y2="287.59"
       style="fill:none;stroke:#263238;stroke-miterlimit:10"
       id="line14095" />
  </g>
  <g
     id="freepik--Coding--inject-13"
     transform="translate(-38.59,-61.725359)">
    <rect
       x="96.959999"
       y="87.760002"
       width="266.60001"
       height="173.2"
       style="fill:#ffffff"
       id="rect14098" />
    <polygon
       points="96.96,260.96 125.15,260.96 169.84,260.96 363.56,260.96 363.56,87.76 96.96,87.76 "
       style="fill:#bfbfbf"
       id="polygon14100" />
    <rect
       x="96.959999"
       y="87.760002"
       width="266.60001"
       height="22.66"
       style="fill:#ffffff"
       id="rect14102" />
    <rect
       x="96.959999"
       y="87.760002"
       width="266.60001"
       height="22.66"
       style="fill:#757575"
       id="rect14104" />
    <rect
       x="342.57001"
       y="91.370003"
       width="15.44"
       height="15.44"
       rx="2.6199999"
       style="fill:#ffffff"
       id="rect14106" />
    <rect
       x="323.64999"
       y="91.370003"
       width="15.44"
       height="15.44"
       rx="2.6400001"
       style="fill:#ffffff"
       id="rect14108" />
    <rect
       x="304.73001"
       y="91.370003"
       width="15.44"
       height="15.44"
       rx="2.6199999"
       style="fill:#ffffff"
       id="rect14110" />
    <rect
       x="106.96"
       y="120.42"
       width="246.60001"
       height="130.53999"
       rx="5.2199998"
       style="fill:#263238;stroke:#263238;stroke-linecap:round;stroke-linejoin:round"
       id="rect14112" />
    <line
       x1="346.98001"
       y1="102.4"
       x2="353.60001"
       y2="95.779999"
       style="fill:none;stroke:#263238;stroke-linecap:round;stroke-linejoin:round"
       id="line14114" />
    <line
       x1="346.98001"
       y1="95.779999"
       x2="353.60001"
       y2="102.4"
       style="fill:none;stroke:#263238;stroke-linecap:round;stroke-linejoin:round"
       id="line14116" />
    <rect
       x="326.95001"
       y="97.669998"
       width="8.8299999"
       height="5.8299999"
       style="fill:none;stroke:#263238;stroke-linecap:round;stroke-linejoin:round"
       id="rect14118" />
    <line
       x1="316.85999"
       y1="103.5"
       x2="308.03"
       y2="103.5"
       style="fill:none;stroke:#263238;stroke-linecap:round;stroke-linejoin:round"
       id="line14120" />
    <path
       d="m 338.06,209.16 h -17.53 a 2,2 0 0 1 0,-4 h 17.53 a 2,2 0 0 1 0,4 z"
       style="fill:#757575"
       id="path14122" />
    <path
       d="m 338.06,223 h -48.93 a 2,2 0 0 1 0,-4 h 48.93 a 2,2 0 0 1 0,4 z"
       style="fill:#757575"
       id="path14124" />
    <path
       d="m 338.06,236.83 h -107.8 a 2,2 0 0 1 0,-4 h 107.8 a 2,2 0 0 1 0,4 z"
       style="fill:#757575"
       id="path14126" />
    <path
       d="m 125.46,195.33 h -8.17 a 2,2 0 1 1 0,-4 h 8.17 a 2,2 0 1 1 0,4 z"
       style="fill:#bfbfbf"
       id="path14128" />
    <path
       d="m 125.46,209.16 h -8.17 a 2,2 0 1 1 0,-4 h 8.17 a 2,2 0 1 1 0,4 z"
       style="fill:#bfbfbf"
       id="path14130" />
    <path
       d="m 125.46,223 h -8.17 a 2,2 0 0 1 0,-4 h 8.17 a 2,2 0 0 1 0,4 z"
       style="fill:#bfbfbf"
       id="path14132" />
    <path
       d="m 125.46,236.83 h -8.17 a 2,2 0 1 1 0,-4 h 8.17 a 2,2 0 1 1 0,4 z"
       style="fill:#bfbfbf"
       id="path14134" />
    <g
       style="opacity:0.7"
       id="g14138">
      <path
         d="m 125.46,195.33 h -8.17 a 2,2 0 1 1 0,-4 h 8.17 a 2,2 0 1 1 0,4 z"
         style="fill:#bfbfbf"
         id="path14136" />
    </g>
    <g
       style="opacity:0.7"
       id="g14142">
      <path
         d="m 125.46,209.16 h -8.17 a 2,2 0 1 1 0,-4 h 8.17 a 2,2 0 1 1 0,4 z"
         style="fill:#bfbfbf"
         id="path14140" />
    </g>
    <g
       style="opacity:0.7"
       id="g14146">
      <path
         d="m 125.46,223 h -8.17 a 2,2 0 0 1 0,-4 h 8.17 a 2,2 0 0 1 0,4 z"
         style="fill:#bfbfbf"
         id="path14144" />
    </g>
    <g
       style="opacity:0.7"
       id="g14150">
      <path
         d="m 125.46,236.83 h -8.17 a 2,2 0 1 1 0,-4 h 8.17 a 2,2 0 1 1 0,4 z"
         style="fill:#bfbfbf"
         id="path14148" />
    </g>
    <path
       d="M 289.13,181.49 H 117.29 a 2,2 0 0 1 0,-4 h 171.84 a 2,2 0 0 1 0,4 z"
       style="fill:#bfbfbf"
       id="path14152" />
    <path
       d="m 338.06,153.83 h -17.53 a 2,2 0 0 1 0,-4 h 17.53 a 2,2 0 0 1 0,4 z"
       style="fill:#bfbfbf"
       id="path14154" />
    <path
       d="m 313.2,153.83 h -16.74 a 2,2 0 0 1 0,-4 h 16.74 a 2,2 0 0 1 0,4 z"
       style="fill:#bfbfbf"
       id="path14156" />
    <path
       d="M 289.13,153.83 H 117.29 a 2,2 0 1 1 0,-4 h 171.84 a 2,2 0 0 1 0,4 z"
       style="fill:#bfbfbf"
       id="path14158" />
    <path
       d="m 338.06,195.33 h -17.53 a 2,2 0 0 1 0,-4 h 17.53 a 2,2 0 0 1 0,4 z"
       style="fill:#999999"
       id="path14160" />
    <path
       d="M 313.2,195.33 H 134.46 a 2,2 0 0 1 0,-4 H 313.2 a 2,2 0 0 1 0,4 z"
       style="fill:#999999"
       id="path14162" />
    <path
       d="m 185.79,209.16 h -51.33 a 2,2 0 0 1 0,-4 h 51.33 a 2,2 0 0 1 0,4 z"
       style="fill:#999999"
       id="path14164" />
    <path
       d="m 185.79,223 h -51.33 a 2,2 0 0 1 0,-4 h 51.33 a 2,2 0 0 1 0,4 z"
       style="fill:#999999"
       id="path14166" />
    <path
       d="m 185.79,236.83 h -51.33 a 2,2 0 0 1 0,-4 h 51.33 a 2,2 0 0 1 0,4 z"
       style="fill:#999999"
       id="path14168" />
  </g>
  <g
     id="freepik--character-1--inject-13"
     transform="translate(-38.59,-61.725359)">
    <path
       d="m 152.08,414.24 c 0,0 -5.24,9 -3.18,9.35 2.06,0.35 6.39,-7.48 6.39,-7.48 l 11.85,-3.11 -8.93,-0.92 z"
       style="fill:#ffffff;stroke:#263238;stroke-linecap:round;stroke-linejoin:round"
       id="path14171" />
    <path
       d="m 152.08,414.24 c 0,0 -5.24,9 -3.18,9.35 2.06,0.35 6.39,-7.48 6.39,-7.48 l 11.85,-3.11 -8.93,-0.92 z"
       style="opacity:0.3;stroke:#263238;stroke-linecap:round;stroke-linejoin:round"
       id="path14173" />
    <path
       d="m 156.07,408.08 c 0,0 -7.34,-1.74 -9.36,1.7 -2.02,3.44 -8,13.65 -5.74,14.81 2.26,1.16 4.17,-2.6 4.17,-2.6 z"
       style="fill:#ffffff;stroke:#263238;stroke-linecap:round;stroke-linejoin:round"
       id="path14175" />
    <path
       d="m 186.09,418.54 a 33.39,33.39 0 0 1 -15,1.58 l -8.35,2.78 c 0,0 -7.34,3.61 -10.76,1.79 -3.42,-1.82 8.7,-5.84 8.7,-5.84 0,0 8.15,-3.53 5.72,-4.38 -2.43,-0.85 -11.63,-0.68 -13.43,0.7 -1.8,1.38 -6.55,10.37 -10,9.85 -3.45,-0.52 1.44,-5.4 2.67,-7.28 1.23,-1.88 4,-9.38 9.56,-9.7 5.56,-0.32 24.37,0.65 24.37,0.65 l 22.09,-2.36 5.21,12.57 z"
       style="fill:#ffffff;stroke:#263238;stroke-linecap:round;stroke-linejoin:round"
       id="path14177" />
    <path
       d="m 197.62,421.65 a 3.54,3.54 0 0 0 4.21,-0.06 3.68,3.68 0 0 0 4,-0.74 c 1.61,-1.77 1.75,-17.3 -2.71,-19.05 -1.29,-0.5 -4.51,-0.45 -5,1.35 a 2.36,2.36 0 0 0 -3.24,2 c -0.44,2.8 2.34,5.41 1.41,13.46 a 3.17,3.17 0 0 0 1.33,3.04 z"
       style="fill:#e39292;stroke:#263238;stroke-linecap:round;stroke-linejoin:round"
       id="path14179" />
    <path
       d="m 197.62,421.65 a 3.54,3.54 0 0 0 4.21,-0.06 3.68,3.68 0 0 0 4,-0.74 c 1.61,-1.77 1.75,-17.3 -2.71,-19.05 -1.29,-0.5 -4.51,-0.45 -5,1.35 a 2.36,2.36 0 0 0 -3.24,2 c -0.44,2.8 2.34,5.41 1.41,13.46 a 3.17,3.17 0 0 0 1.33,3.04 z"
       style="opacity:0.3;stroke:#263238;stroke-linecap:round;stroke-linejoin:round"
       id="path14181" />
    <path
       d="m 202.72,418 a 30,30 0 0 0 -2.64,-12.27"
       style="fill:none;stroke:#263238;stroke-linecap:round;stroke-linejoin:round"
       id="path14183" />
    <path
       d="m 307.85,412.39 c -0.74,5.69 -1.58,11.85 -2.54,18.54 h -85.84 l 0.41,-11.06 c -5.13,1.24 -15.1,0.48 -15.1,0.48 V 404 c 6.06,-3.43 7,-2.47 7,-2.47 0,0 0.31,-39.9 3.94,-49.86 a 20.09,20.09 0 0 1 7.1,-9.34 v 0 a 24.31,24.31 0 0 1 2.71,-1.75 l 0.13,-0.08 c 1,-0.53 2.21,-1.09 3.59,-1.67 l 0.38,-0.15 c 13.44,-5.49 42.77,-11.86 70.1,-0.18 1.91,0.82 17.51,8.27 18.84,19 0.72,6.17 -3.46,36.71 -10.72,54.89 z"
       style="fill:#e39292"
       id="path14185" />
    <g
       clip-path="url(#freepik--clip-path--inject-13)"
       id="g14193">
      <path
         d="m 294.25,363.2 -8.56,39.73 c -1.33,-1.05 -5.16,-1.12 -10,-0.66 a 15.66,15.66 0 0 0 2.59,-3.88 c 12.91,-28 15.72,-34.63 15.97,-35.19 z"
         style="opacity:0.2"
         id="path14187" />
      <path
         d="m 309.89,406.85 a 176,176 0 0 0 -4.58,24.08 h -85.84 l 0.79,-12.74 c 5.35,-0.76 14.74,-1.54 24.49,-3.27 a 21.76,21.76 0 0 1 0.23,9.31 c 0,0 39.48,4.9 52.73,1.71 3.78,-0.91 7.2,-6.19 10.13,-13.46 0.71,-1.77 1.39,-3.66 2.05,-5.63 z"
         style="opacity:0.2"
         id="path14189" />
      <path
         d="m 212.77,402.28 c 0,0 -1.93,-1.71 -8,1.72 v 16.35 c 0,0 10,-0.35 13.92,-2.48 3.38,2.09 2.78,-36.18 3.38,-56.79 -4.9,1.35 -5.29,10.67 -6.05,19.44 a 175.71,175.71 0 0 1 -3.25,21.76 z"
         style="opacity:0.3"
         id="path14191" />
    </g>
    <path
       d="m 307.85,412.39 c -0.74,5.69 -1.58,11.85 -2.54,18.54 h -85.84 l 0.41,-11.06 c -5.13,1.24 -15.1,0.48 -15.1,0.48 V 404 c 6.06,-3.43 7,-2.47 7,-2.47 0,0 0.31,-39.9 3.94,-49.86 a 20.09,20.09 0 0 1 7.1,-9.34 v 0 a 24.31,24.31 0 0 1 2.71,-1.75 l 0.13,-0.08 c 1,-0.53 2.21,-1.09 3.59,-1.67 l 0.38,-0.15 c 13.44,-5.49 42.77,-11.86 70.1,-0.18 1.91,0.82 17.51,8.27 18.84,19 0.72,6.17 -3.46,36.71 -10.72,54.89 z"
       style="fill:none;stroke:#263238;stroke-linecap:round;stroke-linejoin:round"
       id="path14195" />
    <path
       d="m 318.53,357.53 c 0,0.24 0.06,0.52 0.07,0.83 0.44,7.68 -3.74,36.66 -10.76,54.12 -2.93,7.27 -6.35,12.55 -10.13,13.46 -13.25,3.19 -52.73,-1.71 -52.73,-1.71 a 21.88,21.88 0 0 0 -2.95,-15.7 c 0,0 38.76,-9.48 43.66,-5.6 l 8.58,-39.77"
       style="fill:none;stroke:#263238;stroke-linecap:round;stroke-linejoin:round"
       id="path14197" />
    <path
       d="m 288.39,405.1 a 17.6,17.6 0 0 1 6.87,5.88"
       style="fill:none;stroke:#263238;stroke-linecap:round;stroke-linejoin:round"
       id="path14199" />
    <path
       d="m 189.65,406.52 c 0,0 -3.62,-0.76 -5.09,0.89 -1.47,1.65 -7.77,11.11 -5.64,12.91 2.13,1.8 6.46,-8.09 6.46,-8.09 z"
       style="fill:#ffffff;stroke:#263238;stroke-linecap:round;stroke-linejoin:round"
       id="path14201" />
    <path
       d="m 196.91,406.35 c 0,0 -8,-1.72 -9.83,0.73 -1.83,2.45 -11.92,15.13 -5.62,15.53 l 10,-11.28 z"
       style="fill:#ffffff;stroke:#263238;stroke-linecap:round;stroke-linejoin:round"
       id="path14203" />
    <path
       d="m 215.05,419.83 c 0,0 -8.25,1.8 -11.6,2.46 -3.35,0.66 -9.57,5 -13.25,3.27 -3.68,-1.73 12,-8.1 12,-8.1 l 5.4,-2.17 z"
       style="fill:#bfbfbf;stroke:#263238;stroke-linecap:round;stroke-linejoin:round"
       id="path14205" />
    <path
       d="m 221.73,370.47 c 0.12,-3.13 0.23,-6.26 0.35,-9.39"
       style="fill:none;stroke:#263238;stroke-linecap:round;stroke-linejoin:round"
       id="path14207" />
    <path
       d="m 219.47,430.93 c 1.53,-18.93 2.1,-56.2 2.1,-56.2"
       style="fill:none;stroke:#263238;stroke-linecap:round;stroke-linejoin:round"
       id="path14209" />
    <path
       d="m 245,409.62 h -28.47 c 0,0 -22.08,-6.63 -25.75,-1.48 -3.67,5.15 -11.53,13 -9.32,14.47 2.21,1.47 11.54,-9.19 11.54,-9.19 l 8.1,0.07 c 0,0 -6.87,3 -8.34,4.46 -1.47,1.46 -4.66,5.64 -3,6.38 1.66,0.74 7.12,-4.66 7.12,-4.66 0,0 8.09,-2 10.05,-1 a 27.92,27.92 0 0 0 20.36,2 l 21.71,2.7 z"
       style="fill:#ffffff;stroke:#263238;stroke-linecap:round;stroke-linejoin:round"
       id="path14211" />
    <path
       d="m 291.3,376.93 a 42.14,42.14 0 0 1 -0.09,-13.77"
       style="fill:none;stroke:#263238;stroke-linecap:round;stroke-linejoin:round"
       id="path14213" />
    <path
       d="m 297.75,353.08 c 0,0 13.8,-18.18 20.78,4.45"
       style="fill:none;stroke:#263238;stroke-linecap:round;stroke-linejoin:round"
       id="path14215" />
    <path
       d="m 239.14,407.37 a 3.57,3.57 0 0 1 4.1,-1 3.67,3.67 0 0 1 4.06,-0.28 c 2,1.32 6,16.32 2.11,19.13 -1.12,0.8 -4.25,1.55 -5.21,-0.06 a 2.37,2.37 0 0 1 -3.65,-1.15 c -1.12,-2.61 0.93,-5.82 -2,-13.39 a 3.19,3.19 0 0 1 0.59,-3.25 z"
       style="fill:#e39292"
       id="path14217" />
    <g
       clip-path="url(#freepik--clip-path-2--inject-13)"
       id="g14221">
      <path
         d="m 239.14,407.37 a 3.57,3.57 0 0 1 4.1,-1 3.67,3.67 0 0 1 4.06,-0.28 c 2,1.32 6,16.32 2.11,19.13 -1.12,0.8 -4.25,1.55 -5.21,-0.06 a 2.37,2.37 0 0 1 -3.65,-1.15 c -1.12,-2.61 0.93,-5.82 -2,-13.39 a 3.19,3.19 0 0 1 0.59,-3.25 z"
         style="opacity:0.3"
         id="path14219" />
    </g>
    <path
       d="m 239.14,407.37 a 3.57,3.57 0 0 1 4.1,-1 3.67,3.67 0 0 1 4.06,-0.28 c 2,1.32 6,16.32 2.11,19.13 -1.12,0.8 -4.25,1.55 -5.21,-0.06 a 2.37,2.37 0 0 1 -3.65,-1.15 c -1.12,-2.61 0.93,-5.82 -2,-13.39 a 3.19,3.19 0 0 1 0.59,-3.25 z"
       style="fill:none;stroke:#263238;stroke-linecap:round;stroke-linejoin:round"
       id="path14223" />
    <path
       d="m 245.46,415.16 a 25.16,25.16 0 0 1 0.08,7"
       style="fill:none;stroke:#263238;stroke-linecap:round;stroke-linejoin:round"
       id="path14225" />
    <path
       d="m 258,370.25 a 1.95,1.95 0 1 1 -1.84,-2.05 2,2 0 0 1 1.84,2.05 z"
       style="fill:#ffffff;stroke:#263238;stroke-linecap:round;stroke-linejoin:round"
       id="path14227" />
    <path
       d="m 256.56,400.45 a 1.94,1.94 0 1 1 -1.83,-2.06 1.95,1.95 0 0 1 1.83,2.06 z"
       style="fill:#ffffff;stroke:#263238;stroke-linecap:round;stroke-linejoin:round"
       id="path14229" />
    <path
       d="M 274.42,333.27 273,313.12 252.14,318 251,334.13 c -1.31,0.16 -2.56,0.35 -3.79,0.53 l 5.1,12.23 10,1.31 15.94,-14.69 c -1.25,-0.1 -2.57,-0.18 -3.83,-0.24 z"
       style="fill:#ffffff"
       id="path14231" />
    <g
       clip-path="url(#freepik--clip-path-3--inject-13)"
       id="g14235">
      <path
         d="m 251.83,325.08 c 0.14,14.34 16.89,9.94 21.53,-4.38 l -0.37,-7.58 -20.85,4.88 z"
         style="fill:#263238"
         id="path14233" />
    </g>
    <path
       d="M 274.42,333.27 273,313.12 252.14,318 251,334.13 c -1.31,0.16 -2.56,0.35 -3.79,0.53 l 5.1,12.23 10,1.31 15.94,-14.69 c -1.25,-0.1 -2.57,-0.18 -3.83,-0.24 z"
       style="fill:none;stroke:#263238;stroke-linecap:round;stroke-linejoin:round"
       id="path14237" />
    <path
       d="m 239.06,296.11 c 0,0 -7.62,-13.18 -8.74,-20.13 -3.49,-21.47 12,-14.23 12,-14.23 0,0 11,-9.81 24.61,-8.09 13.61,1.72 17.25,7.53 26.44,11.1 0,0 -6.9,35 -15.73,42.86 -8.83,7.86 -38.58,-11.51 -38.58,-11.51 z"
       style="fill:#263238;stroke:#263238;stroke-linecap:round;stroke-linejoin:round"
       id="path14239" />
    <path
       d="m 243.07,264.94 c 0,0 -3.43,-8.34 5.27,-14.71"
       style="fill:none;stroke:#263238;stroke-linecap:round;stroke-linejoin:round"
       id="path14241" />
    <path
       d="m 258.05,259.93 c 10.19,-4.5 14.74,3 26.11,5"
       style="fill:none;stroke:#bfbfbf;stroke-miterlimit:10"
       id="path14243" />
    <path
       d="m 250.18,264.94 a 13,13 0 0 1 3.31,-2.95"
       style="fill:none;stroke:#bfbfbf;stroke-miterlimit:10"
       id="path14245" />
    <path
       d="m 260.64,268.21 c 0,0 4.41,-4.23 13.16,1.27 a 22.84,22.84 0 0 0 8.73,3.44"
       style="fill:none;stroke:#bfbfbf;stroke-miterlimit:10"
       id="path14247" />
    <path
       d="m 274.12,277.37 c -12.68,0.33 -25.78,-5.4 -25.78,-5.4 -11.82,7.13 -10.06,18.72 -10.06,18.72 2.7,27.7 6.35,35.08 19.29,35.08 12.94,0 23.46,-14 24.31,-33.95 -4.88,0.23 -7.76,-14.45 -7.76,-14.45 z"
       style="fill:#ffffff;stroke:#263238;stroke-linecap:round;stroke-linejoin:round"
       id="path14249" />
    <path
       d="m 280.79,290.69 a 3.35,3.35 0 0 1 2.6,-1.47 c 2.3,0 4,3 3.19,6.75 -0.81,3.75 -1.87,6.74 -4.17,6.74 a 2.59,2.59 0 0 1 -2.36,-1.76"
       style="fill:#ffffff;stroke:#263238;stroke-linecap:round;stroke-linejoin:round"
       id="path14251" />
    <path
       d="m 255.58,304.29 c 0,0 1.55,2.12 -1.42,3.71 -2.97,1.59 -5.33,1.56 -6.09,-0.26 -0.76,-1.82 2.54,-17 2.54,-17"
       style="fill:none;stroke:#263238;stroke-linecap:round;stroke-linejoin:round"
       id="path14253" />
    <path
       d="m 250.11,293.17 c -1.6,-0.81 -8,-3.61 -14.08,0.21 l 0.39,5.88 c 0,0 2.24,1.23 7.38,1.23 a 20.65,20.65 0 0 0 5,-0.52"
       style="fill:none;stroke:#263238;stroke-linecap:round;stroke-linejoin:round"
       id="path14255" />
    <path
       d="m 255.42,293.38 1.86,6.13 c 0,0 0.76,1 5.91,1 5.15,0 6.84,-1.23 6.84,-1.23 l -0.15,-5.88 c 0,0 -7.47,-4.4 -14.46,-0.02 z"
       style="fill:none;stroke:#263238;stroke-linecap:round;stroke-linejoin:round"
       id="path14257" />
    <line
       x1="250.52"
       y1="293.38"
       x2="255.42"
       y2="293.38"
       style="fill:none;stroke:#263238;stroke-linecap:round;stroke-linejoin:round"
       id="line14259" />
    <path
       d="m 251.56,313.56 a 13.44,13.44 0 0 0 8.15,-0.25 11.3,11.3 0 0 0 5.07,-3.82"
       style="fill:none;stroke:#263238;stroke-linecap:round;stroke-linejoin:round"
       id="path14261" />
    <path
       d="m 259.71,287.58 c 6.43,-2.65 9.27,0.53 9.27,0.53"
       style="fill:none;stroke:#263238;stroke-linecap:round;stroke-linejoin:round"
       id="path14263" />
    <path
       d="m 242.74,287.32 a 6.51,6.51 0 0 1 6.88,0.79"
       style="fill:none;stroke:#263238;stroke-linecap:round;stroke-linejoin:round"
       id="path14265" />
    <path
       d="m 262.27,292.05 c 0.6,0 1,1 1,2.17 0,1.17 -0.5,2.16 -1.08,2.16 -0.58,0 -1,-1 -1,-2.16 0,-1.16 0.49,-2.17 1.08,-2.17 z"
       style="fill:#263238"
       id="path14267" />
    <path
       d="m 246.3,291.78 c 0.59,0 1,1 1,2.17 0,1.17 -0.5,2.16 -1.08,2.16 -0.58,0 -1,-1 -1,-2.16 0,-1.16 0.5,-2.17 1.08,-2.17 z"
       style="fill:#263238"
       id="path14269" />
    <path
       d="m 235.64,280.74 a 16.35,16.35 0 0 0 1,3.44"
       style="fill:none;stroke:#bfbfbf;stroke-miterlimit:10"
       id="path14271" />
    <path
       d="m 243.31,267.53 c -6.32,-1.7 -8.82,2.1 -8.35,8.1"
       style="fill:none;stroke:#bfbfbf;stroke-miterlimit:10"
       id="path14273" />
    <path
       d="m 250,333.19 7.7,13.86 18.49,-14.59 5.69,0.8 -12,21.15 a 1.63,1.63 0 0 1 -2.28,0.57 l -10.23,-6.46 -8,4.88 a 1.63,1.63 0 0 1 -2.47,-1.21 l -2,-18.06 z"
       style="fill:#e39292"
       id="path14275" />
    <g
       clip-path="url(#freepik--clip-path-4--inject-13)"
       id="g14279">
      <path
         d="m 249.32,333.1 8.38,13.95 18.82,-14.85 5.66,0.9 -12.27,21.31 a 1.63,1.63 0 0 1 -2.28,0.57 l -10.23,-6.46 -8,4.88 a 1.63,1.63 0 0 1 -2.47,-1.21 l -2,-18.06 z"
         style="opacity:0.3"
         id="path14277" />
    </g>
    <path
       d="m 250,333.19 7.7,13.86 18.49,-14.59 5.69,0.8 -12,21.15 a 1.63,1.63 0 0 1 -2.28,0.57 l -10.23,-6.46 -8,4.88 a 1.63,1.63 0 0 1 -2.47,-1.21 l -2,-18.06 z"
       style="fill:none;stroke:#263238;stroke-linecap:round;stroke-linejoin:round"
       id="path14281" />
    <path
       d="m 135.35,424.23 h 50.28 v 6.7 h -50.28 a 2,2 0 0 1 -2,-2 v -2.73 a 2,2 0 0 1 2,-1.97 z"
       style="fill:#263238;stroke:#263238;stroke-linecap:round;stroke-linejoin:round"
       id="path14283" />
    <path
       d="m 228.89,430.93 h -43.26 v -6.7 l 43.37,2.85 a 1.38,1.38 0 0 1 1.28,1.37 v 1.11 a 1.37,1.37 0 0 1 -1.39,1.37 z"
       style="fill:#e39292;stroke:#263238;stroke-linecap:round;stroke-linejoin:round"
       id="path14285" />
    <path
       d="m 269.91,294.37 10.88,-3.68 -1.29,1.63"
       style="fill:none;stroke:#263238;stroke-linecap:round;stroke-linejoin:round"
       id="path14287" />
  </g>
  <g
     id="freepik--character-2--inject-13"
     transform="translate(-38.59,-61.725359)">
    <path
       d="m 339.6,306.89 c 0,0 -12.53,-38.26 19,-40.94 31.53,-2.68 35.22,26.68 38.11,41.4 2.26,11.51 23.78,32.56 7.12,48.27 -17.38,16.41 -59.72,10.93 -62.16,-12.39 -2.44,-23.32 -0.23,-28.1 -2.07,-36.34 z"
       style="fill:#263238;stroke:#263238;stroke-linecap:round;stroke-linejoin:round"
       id="path14290" />
    <path
       d="m 376.36,313 c 0,0 -1.37,17 7.38,31.55 0,0 -11.79,3.85 -24.09,0.19 v 0 a 40.46,40.46 0 0 0 -0.74,-13.48 l -0.42,-1.85 8.94,-7.73 z"
       style="fill:#ffffff"
       id="path14292" />
    <g
       clip-path="url(#freepik--clip-path-5--inject-13)"
       id="g14296">
      <path
         d="m 354.72,325.77 c 1.63,9.13 3.12,11.12 10.86,9.49 5.73,-1.21 10.62,-9.81 10.9,-16.06 a 84.16,84.16 0 0 1 -0.41,-8.54 l -8.64,11 z"
         style="fill:#263238"
         id="path14294" />
    </g>
    <path
       d="m 376.36,313 c 0,0 -1.37,17 7.38,31.55 0,0 -11.79,3.85 -24.09,0.19 v 0 a 40.46,40.46 0 0 0 -0.74,-13.48 l -0.42,-1.85 8.94,-7.73 z"
       style="fill:none;stroke:#263238;stroke-linecap:round;stroke-linejoin:round"
       id="path14298" />
    <path
       d="m 288.63,410.07 c 0,0 -17.45,-8 -18.43,-1.38 -0.98,6.62 3.29,16.84 19.27,11.81 l 33.53,4.42 c 0,0 5.74,-11.43 -0.39,-17.66 -0.01,0 -29.55,4.59 -33.98,2.81 z"
       style="fill:#ffffff;stroke:#263238;stroke-linecap:round;stroke-linejoin:round"
       id="path14300" />
    <path
       d="m 261.74,417.23 c 0,0 -2.76,0.89 -3.17,2.72 -0.41,1.83 -1.3,4.42 -0.24,4.43 1.06,0.01 2.35,-3.64 2.35,-3.64 l 2.69,-0.7 z"
       style="fill:#ffffff;stroke:#263238;stroke-linecap:round;stroke-linejoin:round"
       id="path14302" />
    <rect
       x="263.17999"
       y="400.73999"
       width="18.24"
       height="25.98"
       transform="rotate(-5.98,272.30102,413.7189)"
       style="fill:#ffffff;stroke:#263238;stroke-linecap:round;stroke-linejoin:round"
       id="rect14304" />
    <rect
       x="260.51001"
       y="401.82999"
       width="2.72"
       height="25.98"
       transform="rotate(-5.98,261.87768,414.80623)"
       style="fill:#e39292;stroke:#263238;stroke-linecap:round;stroke-linejoin:round"
       id="rect14306" />
    <path
       d="m 275.14,396.12 a 4,4 0 0 0 -3.52,4.34 2.61,2.61 0 0 0 0.06,0.27 l 0.91,-0.09 1,-0.1 a 2.33,2.33 0 0 1 -0.05,-0.28 2.05,2.05 0 1 1 3.24,1.44 1.8,1.8 0 0 0 1.53,1.18 3.94,3.94 0 0 0 -3.14,-6.76 z"
       style="fill:#ffffff;stroke:#263238;stroke-linecap:round;stroke-linejoin:round"
       id="path14308" />
    <line
       x1="265.29001"
       y1="407.12"
       x2="271.54001"
       y2="406.45999"
       style="fill:none;stroke:#263238;stroke-linecap:round;stroke-linejoin:round"
       id="line14310" />
    <line
       x1="265.59"
       y1="409.95999"
       x2="277.72"
       y2="408.69"
       style="fill:none;stroke:#263238;stroke-linecap:round;stroke-linejoin:round"
       id="line14312" />
    <line
       x1="265.89001"
       y1="412.81"
       x2="271.95999"
       y2="412.17999"
       style="fill:none;stroke:#263238;stroke-linecap:round;stroke-linejoin:round"
       id="line14314" />
    <line
       x1="266.19"
       y1="415.66"
       x2="276.32001"
       y2="414.60001"
       style="fill:none;stroke:#263238;stroke-linecap:round;stroke-linejoin:round"
       id="line14316" />
    <line
       x1="266.48999"
       y1="418.51001"
       x2="272.54999"
       y2="417.87"
       style="fill:none;stroke:#263238;stroke-linecap:round;stroke-linejoin:round"
       id="line14318" />
    <line
       x1="266.79001"
       y1="421.35001"
       x2="280.09"
       y2="419.95999"
       style="fill:none;stroke:#263238;stroke-linecap:round;stroke-linejoin:round"
       id="line14320" />
    <line
       x1="267.07999"
       y1="424.20001"
       x2="273.32999"
       y2="423.54999"
       style="fill:none;stroke:#263238;stroke-linecap:round;stroke-linejoin:round"
       id="line14322" />
    <path
       d="m 271.78,396.47 a 4,4 0 0 0 -3.51,4.34 2.74,2.74 0 0 0 0.05,0.28 l 0.92,-0.1 v 0 l 1,-0.1 a 1.27,1.27 0 0 1 -0.06,-0.28 2.06,2.06 0 0 1 4.09,-0.42 2,2 0 0 1 -0.85,1.86 1.8,1.8 0 0 0 1.53,1.18 3.94,3.94 0 0 0 -3.14,-6.76 z"
       style="fill:#ffffff;stroke:#263238;stroke-linecap:round;stroke-linejoin:round"
       id="path14324" />
    <path
       d="m 268.42,396.82 a 4,4 0 0 0 -3.51,4.34 c 0,0.1 0,0.18 0,0.28 l 0.92,-0.1 1,-0.1 a 2.61,2.61 0 0 1 -0.06,-0.27 2.06,2.06 0 1 1 3.25,1.44 1.76,1.76 0 0 0 1.52,1.17 3.87,3.87 0 0 0 1.2,-3.24 4,4 0 0 0 -4.32,-3.52 z"
       style="fill:#ffffff;stroke:#263238;stroke-linecap:round;stroke-linejoin:round"
       id="path14326" />
    <path
       d="m 265.07,397.17 a 4,4 0 0 0 -3.52,4.34 2.3,2.3 0 0 0 0.06,0.28 l 0.91,-0.1 1,-0.1 a 2.56,2.56 0 0 1 -0.05,-0.27 2.05,2.05 0 1 1 3.24,1.44 1.79,1.79 0 0 0 1.53,1.17 3.93,3.93 0 0 0 1.2,-3.24 4,4 0 0 0 -4.37,-3.52 z"
       style="fill:#ffffff;stroke:#263238;stroke-linecap:round;stroke-linejoin:round"
       id="path14328" />
    <path
       d="m 260.08,401.67 a 2.06,2.06 0 1 1 3.24,1.44 1.79,1.79 0 0 0 1.53,1.17 3.94,3.94 0 1 0 -5.45,0 l -0.23,-2.25 1,-0.1 a 1.31,1.31 0 0 1 -0.09,-0.26 z"
       style="fill:#ffffff;stroke:#263238;stroke-linecap:round;stroke-linejoin:round"
       id="path14330" />
    <path
       d="m 257.07,409 a 8.51,8.51 0 0 0 0.59,1.09 4.77,4.77 0 0 0 0.72,4.07 c 0,0 0.08,2.85 1.09,3.3 1.01,0.45 2.62,1 2.59,0.2 -0.03,-0.8 -0.5,-3.19 -2.32,-3.72 0,0 2.09,0.41 1.86,-0.75 -0.23,-1.16 -0.63,-2.84 -1.91,-3.32 l -0.69,-0.3 c 0,0 1.66,0.3 1.52,-0.95 -0.14,-1.25 -0.28,-2.72 -1.23,-3.07 -0.22,-0.08 -0.47,-0.15 -0.73,-0.22 -1.4,-0.33 -2.3,1.87 -1.49,3.67 z"
       style="fill:#ffffff;stroke:#263238;stroke-linecap:round;stroke-linejoin:round"
       id="path14332" />
    <path
       d="m 286.67,409.85 c 0,0 -1.95,-4.32 -5.14,-6.57 -3.19,-2.25 -4.39,-6.63 -5.69,-5.57 -1.3,1.06 -0.12,5.71 1.9,7.3 2.02,1.59 -0.24,5.14 4.73,9.52"
       style="fill:#ffffff;stroke:#263238;stroke-linecap:round;stroke-linejoin:round"
       id="path14334" />
    <path
       d="m 404.14,422.46 q -0.66,4.08 -1.41,8.47 h -68.58 c -0.11,-0.92 0.54,-2.77 1.16,-6 -7.64,2.59 -21,-1.43 -21,-1.43 1.66,-4.37 0.51,-15.47 0.51,-15.47 l 7.78,-1.65 c 0,0 3.23,-33.82 5.69,-43.51 2.61,-10.28 16.89,-21.5 64.92,-18.19 v 0 c 0,0 22.16,-0.42 25.6,14.27 3.24,13.71 -13.75,62.88 -14.67,63.51 z"
       style="fill:#e39292"
       id="path14336" />
    <g
       clip-path="url(#freepik--clip-path-6--inject-13)"
       id="g14342">
      <path
         d="m 335.31,424.94 c -5.31,1.8 -13.36,0.41 -17.78,-0.61 1.15,-0.88 1.87,-2.68 2.14,-5 3.6,-0.56 7.2,-6.28 9.57,-32.28 0.56,-6.1 1.76,-9.93 3.3,-12.51 a 36.23,36.23 0 0 0 -0.18,17.88 c 0.86,3.49 3.56,11.89 3.8,15.37 a 64.67,64.67 0 0 1 -0.85,17.15 z"
         style="opacity:0.2"
         id="path14338" />
      <path
         d="m 404.13,422.47 q -0.64,4.08 -1.4,8.46 h -68.58 c 1.23,-3.76 4.25,-21.66 0,-32.54 -0.17,-0.44 14.73,-6.7 24.71,-4.14 42.3,10.85 27.73,-24.11 39.81,-30.47 l -10.42,40.87 -5.69,1.81 c 12.32,0.76 8.76,19.23 8.76,19.23 a 17.88,17.88 0 0 0 12.81,-3.22 z"
         style="opacity:0.2"
         id="path14340" />
    </g>
    <path
       d="m 404.14,422.46 q -0.66,4.08 -1.41,8.47 h -68.58 c -0.11,-0.92 0.54,-2.77 1.16,-6 -7.64,2.59 -21,-1.43 -21,-1.43 1.66,-4.37 0.51,-15.47 0.51,-15.47 l 7.78,-1.65 c 0,0 3.23,-33.82 5.69,-43.51 2.61,-10.28 16.89,-21.5 64.92,-18.19 v 0 c 0,0 22.16,-0.42 25.6,14.27 3.24,13.71 -13.75,62.88 -14.67,63.51 z"
       style="fill:none;stroke:#263238;stroke-linecap:round;stroke-linejoin:round"
       id="path14344" />
    <path
       d="m 316.1,406.13 c 0,0 2.6,1.39 3.45,7.5 0.85,6.11 -0.46,11.37 -3.85,11.29 -3.39,-0.08 -4,-1.41 -3.3,-2.67 0.7,-1.26 2.18,-2.95 1.05,-8.18 -1.42,-6.55 -4.34,-5.95 -4.34,-5.95 0,0 3.89,-3.73 6.99,-1.99 z"
       style="fill:#e39292;stroke:#263238;stroke-linecap:round;stroke-linejoin:round"
       id="path14346" />
    <path
       d="m 319.67,419.37 c -0.27,2.28 -1,4.08 -2.14,5 a 2.79,2.79 0 0 1 -1.83,0.59 c -3.4,-0.08 -4,-1.41 -3.3,-2.67 0.7,-1.26 2.18,-2.95 1.05,-8.18 -1.42,-6.55 -4.34,-5.95 -4.34,-5.95 0,0 3.9,-3.73 7,-2 0,0 2.6,1.39 3.45,7.5 a 23.3,23.3 0 0 1 0.11,5.71 z"
       style="opacity:0.2"
       id="path14348" />
    <path
       d="m 381.43,332.46 c 0,0 -17.24,5.23 -25.08,2.44 l -1.63,10.47 c 0,0 7.63,6.64 32.07,-1.53 z"
       style="fill:#e39292;stroke:#263238;stroke-linecap:round;stroke-linejoin:round"
       id="path14350" />
    <path
       d="m 320.17,403.08 c 2.05,6.67 3.88,12 2.07,12.59 -1.81,0.59 -3.3,-4.91 -5.35,-11.59 -2.05,-6.68 -3.88,-12 -2.07,-12.58 1.81,-0.58 3.3,4.9 5.35,11.58 z"
       style="fill:#e39292;stroke:#263238;stroke-linecap:round;stroke-linejoin:round"
       id="path14352" />
    <path
       d="m 316.63,403.24 3.28,-1 c -0.48,-1.57 -0.93,-3.07 -1.36,-4.41 l -3.27,1 c 0.4,1.35 0.86,2.83 1.35,4.41 z"
       style="fill:#263238"
       id="path14354" />
    <path
       d="m 316.33,394.66 c 0,0 1.53,-3.07 2.94,-0.9 1.41,2.17 1.7,8.76 2.7,8.77"
       style="fill:none;stroke:#263238;stroke-linecap:round;stroke-linejoin:round"
       id="path14356" />
    <path
       d="m 336.67,362 c -1.25,3.83 -3,8 -4.13,12.59 a 36.23,36.23 0 0 0 -0.18,17.88 c 0.86,3.49 3.56,11.89 3.8,15.37 a 64.67,64.67 0 0 1 -0.85,17.11 c -0.62,3.22 -1.27,5.07 -1.16,6"
       style="fill:none;stroke:#263238;stroke-linecap:round;stroke-linejoin:round"
       id="path14358" />
    <path
       d="m 379.12,407.6 c 0,0 -27.9,3.81 -37.31,4 -1.44,0 -5.76,-0.5 -5.76,-0.5 l -6.69,-4.47 c 0,0 -5.15,-0.76 -7.68,-0.19 l -2.88,3.77 c 0,0 -3.59,1.16 -1.54,3.88 a 3.48,3.48 0 0 0 0.95,3.67 c 0,0 0.16,2.37 1.74,3.32 0,0 0.31,2.21 2.05,2.84 1.74,0.63 12.63,-1.11 15.95,-2.05 3.32,-0.94 35.52,4.1 48.15,3.79 0,0.02 10.82,-12.66 -6.98,-18.06 z"
       style="fill:#ffffff;stroke:#263238;stroke-linecap:round;stroke-linejoin:round"
       id="path14360" />
    <path
       d="m 379.55,302 c 0,0 -7.36,2.87 -11.72,-5.07 -1.89,-3.44 -5.71,-10.61 -5.71,-10.61 -1.09,2.81 0.25,7.09 0.25,7.09 -2.5,-1.09 -7.32,-1.35 -7.32,-1.35 -1.71,-2.86 -2.21,-9.36 -2.21,-9.36 -2.37,4 -1.69,9.64 -1.69,9.64 a 19,19 0 0 0 -10.49,4.44 c 0.63,2.55 0.85,6.53 0.64,14.8 -0.27,10.79 4.92,13.75 10,17.79 5.08,4.04 18.91,6.12 23.69,-15 0,0 10,-3.73 5.12,-11.56 z"
       style="fill:#ffffff;stroke:#263238;stroke-linecap:round;stroke-linejoin:round"
       id="path14362" />
    <path
       d="M 371.35,289 A 24.41,24.41 0 0 0 387,302.27"
       style="fill:none;stroke:#bfbfbf;stroke-miterlimit:10"
       id="path14364" />
    <path
       d="m 368.72,281 a 26.08,26.08 0 0 0 1,3.87"
       style="fill:none;stroke:#bfbfbf;stroke-miterlimit:10"
       id="path14366" />
    <path
       d="m 373.72,281.49 c 0,0 5.68,10.84 14.56,11.1"
       style="fill:none;stroke:#bfbfbf;stroke-miterlimit:10"
       id="path14368" />
    <path
       d="m 391.13,309.06 c 0,0 14.45,23.4 14.45,37"
       style="fill:none;stroke:#bfbfbf;stroke-miterlimit:10"
       id="path14370" />
    <path
       d="m 387.31,315.3 c 0,0 3.57,13.05 9.32,19.6"
       style="fill:none;stroke:#bfbfbf;stroke-miterlimit:10"
       id="path14372" />
    <path
       d="m 341.9,281.37 a 38.55,38.55 0 0 0 -0.85,5.85"
       style="fill:none;stroke:#bfbfbf;stroke-miterlimit:10"
       id="path14374" />
    <path
       d="m 353.73,269.11 c 0,0 -6.73,1.26 -11.12,9.19"
       style="fill:none;stroke:#bfbfbf;stroke-miterlimit:10"
       id="path14376" />
    <path
       d="m 345.21,329.7 c 0,0 -0.22,10.5 5.14,16.4"
       style="fill:none;stroke:#bfbfbf;stroke-miterlimit:10"
       id="path14378" />
    <path
       d="m 354.72,297.57 c 7.29,-1.43 10.48,2.28 10.48,2.28"
       style="fill:none;stroke:#263238;stroke-linecap:round;stroke-linejoin:round"
       id="path14380" />
    <path
       d="m 342.58,300.64 a 8.32,8.32 0 0 1 6.17,-2.46"
       style="fill:none;stroke:#263238;stroke-linecap:round;stroke-linejoin:round"
       id="path14382" />
    <path
       d="m 359.47,322 c 2.25,-1.28 3.5,-4.62 3.5,-4.62 l -0.47,0.26 a 27.2,27.2 0 0 1 -9.43,3 v 0 a 5.4,5.4 0 0 0 6.4,1.36 z"
       style="fill:none;stroke:#263238;stroke-linecap:round;stroke-linejoin:round"
       id="path14384" />
    <path
       d="m 350.55,315.06 c -0.95,-0.12 -3.66,-1.4 -3.89,-3.24 -0.07,-0.55 0.33,-1.05 0.92,-1.49 a 8.38,8.38 0 0 0 3.55,-7.34 c 0,-0.2 0,-0.32 0,-0.32"
       style="fill:none;stroke:#263238;stroke-linecap:round;stroke-linejoin:round"
       id="path14386" />
    <path
       d="m 359.87,300.5 c 0.69,-0.09 1.4,1.06 1.58,2.55 0.18,1.49 -0.22,2.76 -0.92,2.85 -0.7,0.09 -1.39,-1.06 -1.58,-2.55 -0.19,-1.49 0.23,-2.77 0.92,-2.85 z"
       style="fill:#263238"
       id="path14388" />
    <path
       d="m 347.85,304.81 c 0.18,1.46 -0.22,2.71 -0.9,2.79 -0.68,0.08 -1.37,-1 -1.55,-2.49 -0.18,-1.49 0.22,-2.72 0.9,-2.8 0.68,-0.08 1.37,1.03 1.55,2.5 z"
       style="fill:#263238"
       id="path14390" />
    <path
       d="m 370.23,301.75 c 0,0 -0.93,-2.64 0.13,-4"
       style="fill:none;stroke:#263238;stroke-linecap:round;stroke-linejoin:round"
       id="path14392" />
    <path
       d="m 404.13,422.47 a 17.86,17.86 0 0 1 -12.82,3.22 c 0,0 3.56,-18.47 -8.76,-19.23 l 5.69,-1.81 10.42,-40.87"
       style="fill:none;stroke:#263238;stroke-linecap:round;stroke-linejoin:round"
       id="path14394" />
    <path
       d="m 391.31,404.65 c 0,0 6.6,1.74 8.45,7.42"
       style="fill:none;stroke:#263238;stroke-linecap:round;stroke-linejoin:round"
       id="path14396" />
    <path
       d="m 364.38,338.88 a 44.8,44.8 0 0 0 18.2,-4"
       style="fill:none;stroke:#263238;stroke-linecap:round;stroke-linejoin:round"
       id="path14398" />
    <path
       d="m 355.88,337.9 a 27.27,27.27 0 0 0 4.3,0.76"
       style="fill:none;stroke:#263238;stroke-linecap:round;stroke-linejoin:round"
       id="path14400" />
    <path
       d="m 384,349.62 q 2.67,-0.94 5.6,-2.21"
       style="fill:none;stroke:#263238;stroke-linecap:round;stroke-linejoin:round"
       id="path14402" />
    <path
       d="m 353.11,349.77 c 0,0 6.71,6.37 24.46,1.82"
       style="fill:none;stroke:#263238;stroke-linecap:round;stroke-linejoin:round"
       id="path14404" />
    <path
       d="m 358.91,381.43 c 0,0 1,15.37 12.44,21.1"
       style="fill:none;stroke:#263238;stroke-linecap:round;stroke-linejoin:round"
       id="path14406" />
    <path
       d="m 378.84,407.84 c 0,0 2.24,-4.94 8.94,-2.5 0,0 6.33,2.18 8.23,8.69 1.9,6.51 -0.48,12.32 -5.1,12.56 -4.62,0.24 -5.46,-0.12 -4.68,-1.54 a 11.62,11.62 0 0 0 0.36,-10.12 c -2.87,-6.87 -7.75,-7.09 -7.75,-7.09 z"
       style="fill:#e39292"
       id="path14408" />
    <g
       clip-path="url(#freepik--clip-path-7--inject-13)"
       id="g14414">
      <g
         style="opacity:0.2"
         id="g14412">
        <path
           d="m 378.84,407.84 c 0,0 2.24,-4.94 8.94,-2.5 0,0 6.33,2.18 8.23,8.69 1.9,6.51 -0.48,12.32 -5.1,12.56 -4.62,0.24 -5.46,-0.12 -4.68,-1.54 a 11.62,11.62 0 0 0 0.36,-10.12 c -2.87,-6.87 -7.75,-7.09 -7.75,-7.09 z"
           id="path14410" />
      </g>
    </g>
    <path
       d="m 378.84,407.84 c 0,0 2.24,-4.94 8.94,-2.5 0,0 6.33,2.18 8.23,8.69 1.9,6.51 -0.48,12.32 -5.1,12.56 -4.62,0.24 -5.46,-0.12 -4.68,-1.54 a 11.62,11.62 0 0 0 0.36,-10.12 c -2.87,-6.87 -7.75,-7.09 -7.75,-7.09 z"
       style="fill:none;stroke:#263238;stroke-linecap:round;stroke-linejoin:round"
       id="path14416" />
  </g>
  <g
     id="freepik--Desk--inject-13"
     transform="translate(-38.59,-61.725359)">
    <path
       d="m 72.44,387.51 c 0,0 -3.44,-29.41 -33.85,-17.51 0,0 25.88,-0.19 30.26,22 l 4,-0.43 z"
       style="fill:#e39292"
       id="path14419" />
    <path
       d="m 72.44,387.51 c 0,0 -3.44,-29.41 -33.85,-17.51 0,0 25.88,-0.19 30.26,22 l 4,-0.43 z"
       style="opacity:0.1"
       id="path14421" />
    <path
       d="m 72.86,387 c 0,0 -2.63,-31.36 -8.36,-55.73 0,0 17.5,18.51 13.5,53.36 z"
       style="fill:#e39292"
       id="path14423" />
    <path
       d="m 72.86,387 c 0,0 -2.63,-31.36 -8.36,-55.73 0,0 17.5,18.51 13.5,53.36 z"
       style="opacity:0.1"
       id="path14425" />
    <path
       d="m 71.16,407.78 c 0,0 -5,-43.2 -21.83,-58 0,0 30,7.47 25.58,53.35 z"
       style="fill:#e39292"
       id="path14427" />
    <path
       d="m 76.44,406 c 0,0 7.35,-42.87 24.91,-56.78 0,0 -30.38,5.84 -28.4,51.9 z"
       style="fill:#e39292"
       id="path14429" />
    <path
       d="m 91.85,391.94 h -35.5 v 6.17 h 1.18 v 21.77 a 11.05,11.05 0 0 0 11,11.05 h 11 a 11.06,11.06 0 0 0 11.06,-11.05 v -21.77 h 1.18 z"
       style="fill:#ffffff;stroke:#263238;stroke-miterlimit:10"
       id="path14431" />
    <path
       d="m 80.85,397.82 h 4.72"
       style="fill:#ffffff;stroke:#263238;stroke-miterlimit:10"
       id="path14433" />
    <path
       d="M 62.34,397.82 H 76"
       style="fill:#ffffff;stroke:#263238;stroke-miterlimit:10"
       id="path14435" />
    <path
       d="m 212,403.77 -9.1,-74.1 a 5,5 0 0 0 -4.79,-4.26 H 187.69 L 199.75,408 h 8.53 a 3.69,3.69 0 0 0 3.72,-4.23 z"
       style="fill:#e39292;stroke:#263238;stroke-linecap:round;stroke-linejoin:round"
       id="path14437" />
    <path
       d="M 206,408 H 101.16 a 5,5 0 0 1 -4.78,-4.26 l -9.1,-74.1 A 3.68,3.68 0 0 1 91,325.41 h 104.88 a 5,5 0 0 1 4.78,4.26 l 9.1,74.1 A 3.69,3.69 0 0 1 206,408 Z"
       style="fill:#263238"
       id="path14439" />
    <g
       clip-path="url(#freepik--clip-path-8--inject-13)"
       id="g14443">
      <path
         d="M 206,408 H 101.16 a 5,5 0 0 1 -4.78,-4.26 l -9.1,-74.1 A 3.68,3.68 0 0 1 91,325.41 h 104.88 a 5,5 0 0 1 4.78,4.26 l 9.1,74.1 A 3.69,3.69 0 0 1 206,408 Z"
         style="opacity:0.1;fill:#ffffff"
         id="path14441" />
    </g>
    <path
       d="M 206,408 H 101.16 a 5,5 0 0 1 -4.78,-4.26 l -9.1,-74.1 A 3.68,3.68 0 0 1 91,325.41 h 104.88 a 5,5 0 0 1 4.78,4.26 l 9.1,74.1 A 3.69,3.69 0 0 1 206,408 Z"
       style="fill:none;stroke:#263238;stroke-linecap:round;stroke-linejoin:round"
       id="path14445" />
    <path
       d="m 157.13,424.87 4.19,-47.73 a 2,2 0 0 0 -2,-2.13 h -26.43 a 2,2 0 0 0 -2,1.79 l -4.56,52 a 2,2 0 0 0 2,2.13 h 52.44 a 2,2 0 0 0 2,-2 v 0 a 2,2 0 0 0 -2,-2 h -21.69 a 2,2 0 0 1 -1.95,-2.06 z"
       style="fill:#263238;stroke:#263238;stroke-linecap:round;stroke-linejoin:round"
       id="path14447" />
    <path
       d="m 182.73,429 a 2,2 0 0 0 -2,-2 h -21.65 a 2,2 0 0 1 -2,-2.14 l 4.19,-47.73 a 2,2 0 1 0 -3.9,-0.34 l -4.56,52 a 2,2 0 0 0 1.95,2.13 h 26 a 2,2 0 0 0 1.97,-1.92 z"
       style="fill:#e39292;stroke:#263238;stroke-linecap:round;stroke-linejoin:round"
       id="path14449" />
    <line
       x1="62.5"
       y1="430.92999"
       x2="437.5"
       y2="430.92999"
       style="fill:none;stroke:#263238;stroke-linecap:round;stroke-linejoin:round"
       id="line14451" />
  </g>
</svg>
