<?xml version="1.0" encoding="UTF-8" standalone="no"?>
<!-- Created with Inkscape (http://www.inkscape.org/) -->

<svg
   viewBox="0 0 123.37025 127.56836"
   version="1.1"
   id="svg5"
   inkscape:version="1.1 (c4e8f9e, 2021-05-24)"
   sodipodi:docname="logo.svg"
   inkscape:export-filename="/home/dys/tip/program/consult/public/logo.512тип512.png"
   inkscape:export-xdpi="385.29999"
   inkscape:export-ydpi="385.29999"
   xmlns:inkscape="http://www.inkscape.org/namespaces/inkscape"
   xmlns:sodipodi="http://sodipodi.sourceforge.net/DTD/sodipodi-0.dtd"
   xmlns:xlink="http://www.w3.org/1999/xlink"
   xmlns="http://www.w3.org/2000/svg"
   xmlns:svg="http://www.w3.org/2000/svg"
   xmlns:a="http://ns.adobe.com/AdobeSVGViewerExtensions/3.0/">
  <sodipodi:namedview
     id="namedview7"
     pagecolor="#505050"
     bordercolor="#ffffff"
     borderopacity="1"
     inkscape:pageshadow="0"
     inkscape:pageopacity="0"
     inkscape:pagecheckerboard="1"
     inkscape:document-units="mm"
     showgrid="false"
     fit-margin-top="0"
     fit-margin-left="0"
     fit-margin-right="0"
     fit-margin-bottom="0"
     inkscape:zoom="9.336171"
     inkscape:cx="61.695528"
     inkscape:cy="63.784179"
     inkscape:window-width="3440"
     inkscape:window-height="1369"
     inkscape:window-x="0"
     inkscape:window-y="34"
     inkscape:window-maximized="1"
     inkscape:current-layer="layer1" />
  <defs
     id="defs2">
    <linearGradient
       id="linearGradient2049">
      <stop
         offset="0.033700000"
         style="stop-color: rgb(0, 255, 0); stop-opacity: 1;"
         id="stop2050" />
      <stop
         offset="1.0000000"
         style="stop-color: rgb(0, 151, 0); stop-opacity: 1;"
         id="stop2051" />
    </linearGradient>
    <linearGradient
       id="linearGradient2020">
      <stop
         offset="0.0000000"
         style="stop-color: rgb(158, 158, 158); stop-opacity: 1;"
         id="stop2022" />
      <stop
         offset="1.0000000"
         style="stop-color: rgb(97, 97, 97); stop-opacity: 1;"
         id="stop2021" />
    </linearGradient>
    <linearGradient
       id="linearGradient2001">
      <stop
         offset="0.033700000"
         style="stop-color: rgb(255, 255, 255); stop-opacity: 1;"
         id="stop2003" />
      <stop
         offset="1.0000000"
         style="stop-color: rgb(135, 135, 135); stop-opacity: 1;"
         id="stop2002" />
    </linearGradient>
    <linearGradient
       id="linearGradient1987">
      <stop
         offset="0.033700000"
         style="stop-color: rgb(255, 255, 255); stop-opacity: 1;"
         id="stop1989" />
      <stop
         offset="1.0000000"
         style="stop-color: rgb(178, 178, 178); stop-opacity: 1;"
         id="stop1988" />
    </linearGradient>
    <linearGradient
       id="linearGradient1939">
      <stop
         offset="0.0000000"
         style="stop-color: rgb(255, 255, 255); stop-opacity: 1;"
         id="stop1941" />
      <stop
         offset="1.0000000"
         style="stop-color: rgb(207, 207, 207); stop-opacity: 1;"
         id="stop1940" />
    </linearGradient>
    <linearGradient
       id="linearGradient1925">
      <stop
         offset="0.0000000"
         style="stop-color: rgb(255, 255, 255); stop-opacity: 1;"
         id="stop1927" />
      <stop
         offset="1.0000000"
         style="stop-color: rgb(255, 255, 255); stop-opacity: 0;"
         id="stop1926" />
    </linearGradient>
    <linearGradient
       id="linearGradient1895">
      <stop
         offset="0.0000000"
         style="stop-color: rgb(204, 204, 204); stop-opacity: 1;"
         id="stop1897" />
      <stop
         offset="1.0000000"
         style="stop-color: rgb(97, 97, 97); stop-opacity: 1;"
         id="stop1896" />
    </linearGradient>
    <linearGradient
       inkscape:collect="always"
       xlink:href="#linearGradient2020"
       id="linearGradient1238"
       gradientUnits="userSpaceOnUse"
       x1="59.450699"
       y1="126.196"
       x2="59.450699"
       y2="94.688301"
       gradientTransform="matrix(1.0375967,0,0,1.0375967,56.322892,25.228121)" />
    <linearGradient
       inkscape:collect="always"
       xlink:href="#XMLID_2_"
       id="linearGradient1239"
       gradientUnits="userSpaceOnUse"
       x1="59.463402"
       y1="102.881"
       x2="59.463402"
       y2="123.654"
       gradientTransform="matrix(1.0375967,0,0,1.0375967,56.322892,25.228121)" />
    <linearGradient
       inkscape:collect="always"
       xlink:href="#linearGradient2001"
       id="linearGradient1240"
       gradientUnits="userSpaceOnUse"
       x1="44.869099"
       y1="89.282204"
       x2="73.438004"
       y2="120.732"
       gradientTransform="matrix(1.0375967,0,0,1.0375967,56.322892,25.228121)" />
    <linearGradient
       inkscape:collect="always"
       xlink:href="#linearGradient2020"
       id="linearGradient1241"
       gradientUnits="userSpaceOnUse"
       x1="58.564899"
       y1="109.229"
       x2="58.564899"
       y2="77.887497"
       gradientTransform="matrix(1.0375967,0,0,1.0375967,56.322892,25.228121)" />
    <linearGradient
       inkscape:collect="always"
       xlink:href="#linearGradient1939"
       id="linearGradient1242"
       gradientUnits="userSpaceOnUse"
       x1="58.566399"
       y1="104.072"
       x2="58.566399"
       y2="89.384598"
       gradientTransform="matrix(1.0375967,0,0,1.0375967,56.322892,25.228121)" />
    <linearGradient
       inkscape:collect="always"
       xlink:href="#XMLID_6_"
       id="linearGradient1243"
       gradientUnits="userSpaceOnUse"
       x1="43.089802"
       y1="73.366203"
       x2="75.628998"
       y2="109.186"
       gradientTransform="matrix(1.0375967,0,0,1.0375967,56.322892,25.228121)" />
    <linearGradient
       inkscape:collect="always"
       xlink:href="#linearGradient2020"
       id="linearGradient1244"
       gradientUnits="userSpaceOnUse"
       x1="59.449699"
       y1="99.836899"
       x2="59.449699"
       y2="13.0515"
       gradientTransform="matrix(1.0375967,0,0,1.0375967,56.322892,25.228121)" />
    <linearGradient
       inkscape:collect="always"
       xlink:href="#linearGradient1987"
       id="linearGradient1245"
       gradientUnits="userSpaceOnUse"
       x1="58.5107"
       y1="69.587898"
       x2="62.727001"
       y2="-38.7365"
       gradientTransform="matrix(1.0375967,0,0,1.0375967,56.322892,25.228121)" />
    <linearGradient
       inkscape:collect="always"
       xlink:href="#linearGradient1987"
       id="linearGradient1246"
       gradientUnits="userSpaceOnUse"
       x1="43.4175"
       y1="29.4097"
       x2="119.845"
       y2="105.837"
       gradientTransform="matrix(1.0375967,0,0,1.0375967,56.322892,25.228121)" />
    <linearGradient
       inkscape:collect="always"
       xlink:href="#linearGradient1925"
       id="linearGradient1247"
       gradientUnits="userSpaceOnUse"
       x1="1.6362"
       y1="-25.0278"
       x2="1.6362"
       y2="56.389301"
       gradientTransform="matrix(1.0375967,0,0,1.0375967,56.322892,25.228121)" />
    <linearGradient
       inkscape:collect="always"
       xlink:href="#XMLID_11_"
       id="linearGradient1248"
       gradientUnits="userSpaceOnUse"
       x1="59.7729"
       y1="0.0283"
       x2="59.7729"
       y2="59.2285"
       gradientTransform="matrix(1.0375967,0,0,1.0375967,56.322892,25.228121)" />
    <radialGradient
       inkscape:collect="always"
       xlink:href="#XMLID_12_"
       id="radialGradient1249"
       gradientUnits="userSpaceOnUse"
       gradientTransform="matrix(1.0778555,0,0,1.0375967,129.22672,25.228121)"
       cx="-13.7461"
       cy="95.490196"
       fx="-13.7461"
       fy="95.490196"
       r="61.608101" />
    <linearGradient
       inkscape:collect="always"
       xlink:href="#linearGradient1895"
       id="linearGradient1250"
       gradientUnits="userSpaceOnUse"
       x1="59.382301"
       y1="60.042"
       x2="59.382301"
       y2="-28.417801"
       gradientTransform="matrix(1.0375967,0,0,1.0375967,56.322892,25.228121)" />
    <radialGradient
       inkscape:collect="always"
       xlink:href="#XMLID_14_"
       id="radialGradient1251"
       gradientUnits="userSpaceOnUse"
       gradientTransform="matrix(1.0856374,0,0,0.95614536,134.08973,19.283937)"
       cx="-16.730499"
       cy="15.3696"
       fx="-16.730499"
       fy="15.3696"
       r="67.632599" />
    <linearGradient
       inkscape:collect="always"
       xlink:href="#linearGradient1925"
       id="linearGradient1924"
       gradientTransform="scale(0.73936,1.35252)"
       x1="108.45679"
       y1="33.612988"
       x2="134.87514"
       y2="60.464489"
       gradientUnits="userSpaceOnUse" />
    <linearGradient
       inkscape:collect="always"
       xlink:href="#linearGradient1939"
       id="linearGradient1977"
       gradientUnits="userSpaceOnUse"
       gradientTransform="matrix(1.71814,0,0,0.23394,1.49602,65.5133)"
       x1="47.610882"
       y1="20.173775"
       x2="56.110985"
       y2="53.457325" />
    <linearGradient
       inkscape:collect="always"
       xlink:href="#linearGradient2020"
       id="linearGradient1978"
       gradientUnits="userSpaceOnUse"
       gradientTransform="matrix(1.58723,0,0,0.212498,1.49602,66.2952)"
       x1="59.364616"
       y1="40.894772"
       x2="59.436813"
       y2="19.19331" />
    <linearGradient
       inkscape:collect="always"
       xlink:href="#linearGradient1939"
       id="linearGradient1980"
       gradientUnits="userSpaceOnUse"
       gradientTransform="matrix(1.71814,0,0,0.240258,1.49602,63.5905)"
       x1="47.610882"
       y1="20.173775"
       x2="56.110985"
       y2="53.457325" />
    <linearGradient
       inkscape:collect="always"
       xlink:href="#linearGradient2020"
       id="linearGradient1981"
       gradientUnits="userSpaceOnUse"
       gradientTransform="matrix(1.58723,0,0,0.218238,1.49602,64.3935)"
       x1="59.364616"
       y1="40.894772"
       x2="59.436813"
       y2="19.19331" />
    <linearGradient
       id="XMLID_1_"
       gradientUnits="userSpaceOnUse"
       x1="59.450699"
       y1="126.196"
       x2="59.450699"
       y2="94.688301"
       spreadMethod="pad"
       xlink:href="#linearGradient2020" />
    <linearGradient
       id="XMLID_2_"
       gradientUnits="userSpaceOnUse"
       x1="59.463402"
       y1="102.881"
       x2="59.463402"
       y2="123.654">
      <stop
         offset="0"
         style="stop-color: rgb(255, 255, 255);"
         id="stop20" />
      <stop
         offset="1"
         style="stop-color: rgb(207, 207, 207);"
         id="stop22" />
      <a:midPointStop
         offset="0"
         style="stop-color:#FFFFFF"
         id="midPointStop24" />
      <a:midPointStop
         offset="0.5"
         style="stop-color:#FFFFFF"
         id="midPointStop26" />
      <a:midPointStop
         offset="1"
         style="stop-color:#CFCFCF"
         id="midPointStop28" />
    </linearGradient>
    <linearGradient
       id="XMLID_3_"
       gradientUnits="userSpaceOnUse"
       x1="44.869099"
       y1="89.282204"
       x2="73.438004"
       y2="120.732"
       spreadMethod="pad"
       xlink:href="#linearGradient2001" />
    <linearGradient
       id="XMLID_4_"
       gradientUnits="userSpaceOnUse"
       x1="58.564899"
       y1="109.229"
       x2="58.564899"
       y2="77.887497"
       spreadMethod="pad"
       xlink:href="#linearGradient2020" />
    <linearGradient
       id="XMLID_5_"
       gradientUnits="userSpaceOnUse"
       x1="58.566399"
       y1="104.072"
       x2="58.566399"
       y2="89.384598"
       spreadMethod="pad"
       xlink:href="#linearGradient1939" />
    <linearGradient
       id="XMLID_6_"
       gradientUnits="userSpaceOnUse"
       x1="43.089802"
       y1="73.366203"
       x2="75.628998"
       y2="109.186">
      <stop
         offset="0.0337"
         style="stop-color: rgb(255, 255, 255);"
         id="stop62" />
      <stop
         offset="1"
         style="stop-color: rgb(135, 135, 135);"
         id="stop64" />
    </linearGradient>
    <linearGradient
       id="XMLID_7_"
       gradientUnits="userSpaceOnUse"
       x1="59.449699"
       y1="99.836899"
       x2="59.449699"
       y2="13.0515"
       spreadMethod="pad"
       xlink:href="#linearGradient2020" />
    <linearGradient
       id="XMLID_8_"
       gradientUnits="userSpaceOnUse"
       x1="58.5107"
       y1="69.587898"
       x2="62.727001"
       y2="-38.7365"
       spreadMethod="pad"
       xlink:href="#linearGradient1987" />
    <linearGradient
       id="XMLID_9_"
       gradientUnits="userSpaceOnUse"
       x1="43.4175"
       y1="29.4097"
       x2="119.845"
       y2="105.837"
       spreadMethod="pad"
       xlink:href="#linearGradient1987" />
    <linearGradient
       id="XMLID_10_"
       gradientUnits="userSpaceOnUse"
       x1="1.6362"
       y1="-25.0278"
       x2="1.6362"
       y2="56.389301"
       spreadMethod="pad"
       xlink:href="#linearGradient1925" />
    <linearGradient
       id="XMLID_11_"
       gradientUnits="userSpaceOnUse"
       x1="59.7729"
       y1="0.0283"
       x2="59.7729"
       y2="59.2285">
      <stop
         offset="0%"
         style="stop-color: rgb(255, 255, 255);"
         id="stop109" />
      <stop
         offset="100%"
         style="stop-opacity: 0; stop-color: rgb(255, 255, 255);"
         id="stop111" />
    </linearGradient>
    <radialGradient
       id="XMLID_12_"
       cx="-13.7461"
       cy="95.490196"
       r="61.608101"
       fx="-13.7461"
       fy="95.490196"
       gradientTransform="matrix(1.0388,0,0,1,70.2622,0)"
       gradientUnits="userSpaceOnUse">
      <stop
         offset="0"
         style="stop-color: rgb(133, 202, 255);"
         id="stop118" />
      <stop
         offset="1"
         style="stop-color: rgb(0, 61, 169);"
         id="stop120" />
      <a:midPointStop
         offset="0"
         style="stop-color:#85CAFF"
         id="midPointStop122" />
      <a:midPointStop
         offset="0.5"
         style="stop-color:#85CAFF"
         id="midPointStop124" />
      <a:midPointStop
         offset="1"
         style="stop-color:#003DA9"
         id="midPointStop126" />
    </radialGradient>
    <linearGradient
       id="XMLID_13_"
       gradientUnits="userSpaceOnUse"
       x1="59.382301"
       y1="60.042"
       x2="59.382301"
       y2="-28.417801"
       spreadMethod="pad"
       xlink:href="#linearGradient1895">
      <a:midPointStop
         offset="0"
         style="stop-color:#CCCCCC"
         id="midPointStop137" />
      <a:midPointStop
         offset="0.5"
         style="stop-color:#CCCCCC"
         id="midPointStop139" />
      <a:midPointStop
         offset="1"
         style="stop-color:#616161"
         id="midPointStop141" />
    </linearGradient>
    <radialGradient
       id="XMLID_14_"
       cx="-16.730499"
       cy="15.3696"
       r="67.632599"
       fx="-16.730499"
       fy="15.3696"
       gradientTransform="matrix(1.0463,0,0,0.9215,74.949,-5.7288)"
       gradientUnits="userSpaceOnUse">
      <stop
         offset="0"
         style="stop-color: rgb(133, 202, 255);"
         id="stop150" />
      <stop
         offset="1"
         style="stop-color: rgb(0, 61, 169);"
         id="stop152" />
      <a:midPointStop
         offset="0"
         style="stop-color:#85CAFF"
         id="midPointStop154" />
      <a:midPointStop
         offset="0.5"
         style="stop-color:#85CAFF"
         id="midPointStop156" />
      <a:midPointStop
         offset="1"
         style="stop-color:#003DA9"
         id="midPointStop158" />
    </radialGradient>
  </defs>
  <g
     inkscape:label="Layer 1"
     inkscape:groupmode="layer"
     id="layer1"
     transform="translate(-56.322892,-25.228121)">
    <path
       d="m 89.817551,130.76934 c 4.267635,0.60285 9.136039,-2.97686 11.463369,-8.17107 -0.26251,-4.01446 -2.470518,-7.06915 -5.998347,-7.56408 -3.936642,-0.55096 -8.352654,2.24328 -11.069082,6.59497 -0.478332,4.74285 1.710997,8.59337 5.60406,9.14018 z"
       style="fill:none;stroke-width:1.0376"
       id="path5" />
    <path
       d="m 160.19877,135.67821 c 0,9.45355 -18.89048,17.11827 -42.19179,17.11827 -23.300273,0 -42.189721,-7.66472 -42.189721,-17.11827 0,-9.45354 18.889448,-17.11827 42.189721,-17.11827 23.30131,0 42.19179,7.66473 42.19179,17.11827 z"
       style="fill:url(#linearGradient1238);stroke-width:1.0376"
       id="path16" />
    <path
       d="m 158.79283,135.29638 c 0,8.14513 -18.25236,14.74321 -40.76925,14.74321 -22.516886,0 -40.771325,-6.59808 -40.771325,-14.74321 0,-8.14306 18.254439,-14.74217 40.771325,-14.74217 22.51689,0 40.76925,6.59911 40.76925,14.74217 z"
       style="fill:url(#linearGradient1239);stroke-width:1.0376"
       id="path31" />
    <path
       a:adobe-blending-mode="multiply"
       d="m 141.87585,133.51068 c 0,3.02251 -11.09502,5.47643 -24.78403,5.47643 -13.69005,0 -24.788187,-2.45392 -24.788187,-5.47643 0,-3.02771 11.098137,-5.47748 24.788187,-5.47748 13.68901,0 24.78403,2.44977 24.78403,5.47748 z"
       style="opacity:0.5;fill:url(#linearGradient1240);stroke-width:1.0376"
       id="path40" />
    <path
       d="m 141.87585,118.18018 c 0,9.40478 -11.09502,17.02904 -24.78403,17.02904 -13.69005,0 -24.788187,-7.62426 -24.788187,-17.02904 0,-9.4027 11.098137,-17.02592 24.788187,-17.02592 13.68901,0 24.78403,7.62322 24.78403,17.02592 z"
       style="fill:url(#linearGradient1241);stroke-width:1.0376"
       id="path49" />
    <path
       d="m 140.16589,118.6637 c 0,8.75213 -10.33238,15.84929 -23.07407,15.84929 -12.74584,0 -23.075115,-7.0982 -23.075115,-15.84929 0,-8.75524 10.330315,-15.85344 23.075115,-15.85344 12.74169,0 23.07407,7.09717 23.07407,15.85344 z"
       style="fill:url(#linearGradient1242);stroke-width:1.0376"
       id="path58" />
    <path
       a:adobe-blending-mode="multiply"
       d="M 141.91424,122.79126 H 92.52049 v -7.2445 h 49.39375 z"
       style="opacity:0.5;fill:url(#linearGradient1243);stroke-width:1.0376"
       id="path67" />
    <path
       d="m 68.145269,25.228121 c -6.518183,0 -11.822377,5.104976 -11.822377,11.382436 V 108.1487 c 0,6.27538 5.304194,11.3814 11.822377,11.3814 h 99.724461 c 6.52233,0 11.82341,-5.10602 11.82341,-11.3814 V 36.610557 c 0,-6.276423 -5.30004,-11.382436 -11.82341,-11.382436 H 68.145269 M 59.133741,108.1487 V 36.610557 c 0,-4.784359 4.042477,-8.674309 9.011528,-8.674309 h 99.724461 c 4.97216,0 9.01256,3.88995 9.01256,8.674309 V 108.1487 c 0,4.78124 -4.0404,8.67327 -9.01256,8.67327 H 68.145269 c -4.970088,0 -9.011528,-3.89203 -9.011528,-8.67327 z"
       style="fill:url(#linearGradient1244);stroke-width:1.0376"
       id="path78" />
    <path
       d="m 178.28823,108.1487 c 0,5.53765 -4.66296,10.02733 -10.4185,10.02733 H 68.145269 c -5.751399,0 -10.416433,-4.48968 -10.416433,-10.02733 V 36.610557 c 0,-5.538691 4.663997,-10.02941 10.416433,-10.02941 h 99.724461 c 5.75554,0 10.4185,4.490719 10.4185,10.02941 z"
       style="fill:url(#linearGradient1245);stroke-width:1.0376"
       id="path87" />
    <path
       d="m 177.1697,107.43483 c 0,5.38617 -4.53741,9.75134 -10.13109,9.75134 H 68.979497 c -5.595759,0 -10.132132,-4.36517 -10.132132,-9.75134 V 37.322348 c 0,-5.385127 4.53741,-9.752371 10.132132,-9.752371 h 98.059113 c 5.59368,0 10.13109,4.367244 10.13109,9.752371 z"
       style="fill:url(#linearGradient1246);stroke-width:1.0376"
       id="path96"
       inkscape:export-filename="/home/dys/tip/program/consult/public/logo.192тип192.png"
       inkscape:export-xdpi="144.48724"
       inkscape:export-ydpi="144.48724" />
    <path
       a:adobe-blending-mode="screen"
       d="m 57.194473,86.682898 c 0,3.793454 0.497009,7.471734 1.423583,10.981924 0.07263,0.01245 0.154602,0.0249 0.229309,0.04047 V 55.274846 c -1.067687,3.749875 -1.652892,27.323034 -1.652892,31.408052 z"
       style="fill:url(#linearGradient1247);stroke-width:1.0376"
       id="path105" />
    <path
       a:adobe-blending-mode="screen"
       d="M 166.29465,28.507964 H 70.392703 c -5.393427,0 -9.76171,4.204342 -9.76171,9.395438 v 58.889839 c 7.094049,1.245116 33.121125,5.649709 51.875687,-18.684004 22.36955,-29.026768 55.46058,-25.627601 63.54968,-27.648839 V 37.903402 c 0,-5.191096 -4.37139,-9.395438 -9.76171,-9.395438 z"
       style="fill:url(#linearGradient1248);stroke-width:1.0376"
       id="path114" />
    <path
       d="M 167.38309,107.16817 H 68.384954 V 37.603537 h 98.998136 z"
       style="fill:url(#radialGradient1249);stroke-width:1.0376"
       id="path129" />
    <text
       xml:space="preserve"
       style="font-size:46.4773px;line-height:1.25;font-family:sans-serif;text-align:center;text-anchor:middle;fill:#ffffff;fill-opacity:1;stroke:#000000;stroke-width:1.40119;stroke-miterlimit:4;stroke-dasharray:none;stroke-opacity:0.748023"
       x="117.88402"
       y="76.183182"
       id="text2535"><tspan
         sodipodi:role="line"
         id="tspan2533"
         style="text-align:center;text-anchor:middle;fill:#ffffff;fill-opacity:1;stroke:#000000;stroke-width:1.40119;stroke-miterlimit:4;stroke-dasharray:none;stroke-opacity:0.748023"
         x="117.88402"
         y="76.183182">&lt;/&gt;</tspan></text>
    <g
       id="g5062"
       transform="matrix(0.3753392,0,0,0.3753392,94.635351,54.247796)"
       style="opacity:0.652996">
      <circle
         style="opacity:0.749952;fill:#a34811;fill-opacity:1;fill-rule:evenodd"
         id="path1588"
         cx="61.524864"
         cy="62.497974"
         r="57.257935" />
      <path
         id="path833"
         d="M 61.939453,0.5 C 28.009453,0.5 0.5,28.009453 0.5,61.939453 c 0,33.93 27.509453,61.441407 61.439453,61.441407 33.93,0 61.441407,-27.511407 61.441407,-61.441407 C 123.38086,28.009453 95.869453,0.5 61.939453,0.5 Z m 0,12.480469 c 27.04,0 48.960937,21.918984 48.960937,48.958984 0,27.04 -21.920937,48.960937 -48.960937,48.960937 -27.04,0 -48.958984,-21.920937 -48.958984,-48.960937 0,-27.04 21.918984,-48.958984 48.958984,-48.958984 z"
         style="opacity:0.749952;fill:#1c11a3;fill-opacity:1;stroke:#f3f3f3;stroke-opacity:1" />
      <path
         d="m 91.217307,65.285543 c 4.104119,-2.648665 4.091007,-5.59891 0,-7.945994 L 48.825558,32.977077 C 45.481946,30.879125 41.9941,32.111672 42.085886,36.478035 l 0.131122,49.236319 c 0.288468,4.733505 2.989582,6.031613 6.975691,3.841875 z"
         id="path831"
         style="opacity:0.749952;fill:#1c11a3;fill-opacity:1;stroke:#f3f3f3;stroke-width:1.31122;stroke-opacity:1" />
    </g>
    <path
       d="M 167.48996,37.572409 H 68.384954 v 69.429741 h 1.561583 V 39.116353 h 97.542393 v -1.543944 z"
       style="fill:url(#linearGradient1250);stroke-width:1.0376"
       id="path144" />
    <path
       d="M 166.07676,37.568259 V 105.60451 H 68.378728 v 1.54187 h 97.698032 v 0.0425 h 1.56054 V 37.568259 Z"
       style="fill:#ffffff;stroke-width:1.0376"
       id="path146" />
    <path
       d="m 71.113833,52.089424 c 0,14.297045 20.997844,25.892188 46.901447,25.892188 25.90568,0 46.90767,-11.594105 46.90767,-25.892188 0,-4.776057 -2.35534,-9.247061 -6.44451,-13.092395 H 77.554196 c -4.089169,3.846371 -6.440363,8.316338 -6.440363,13.092395 z"
       style="opacity:0.426296;fill:url(#radialGradient1251);stroke-width:1.0376"
       id="path161" />
  </g>
  <style
     type="text/css"
     id="style2">.st0{fill-rule:evenodd;clip-rule:evenodd;}</style>
</svg>
