<?xml version="1.0" encoding="UTF-8" standalone="no"?>
<!-- Svg Vector Icons : http://www.onlinewebfonts.com/icon -->

<svg
   version="1.1"
   viewBox="0 0 980.00629 837.40076"
   enable-background="new 0 0 1000 1000"
   sodipodi:docname="discuss.svg"
   inkscape:version="1.1.1 (3bf5ae0d25, 2021-09-20)"
   id="svg1798"
   xmlns:inkscape="http://www.inkscape.org/namespaces/inkscape"
   xmlns:sodipodi="http://sodipodi.sourceforge.net/DTD/sodipodi-0.dtd"
   xmlns="http://www.w3.org/2000/svg"
   xmlns:svg="http://www.w3.org/2000/svg"><defs
   id="defs20" />
<sodipodi:namedview
   id="namedview18"
   pagecolor="#ffffff"
   bordercolor="#666666"
   borderopacity="1.0"
   inkscape:pageshadow="2"
   inkscape:pageopacity="0.0"
   inkscape:pagecheckerboard="0"
   showgrid="false"
   fit-margin-top="0"
   fit-margin-left="0"
   fit-margin-right="0"
   fit-margin-bottom="0"
   inkscape:zoom="0.4365"
   inkscape:cx="1348.2245"
   inkscape:cy="484.53608"
   inkscape:window-width="3440"
   inkscape:window-height="1369"
   inkscape:window-x="0"
   inkscape:window-y="34"
   inkscape:window-maximized="1" />

<metadata
   id="metadata2"> Svg Vector Icons : http://www.onlinewebfonts.com/icon </metadata>

<g
   id="g14"
   transform="translate(-10,-81.3)">
  <path
     d="m 407.2,81.30039 c -219.1,0 -397.19917,144.09922 -397.19917,321.19922 0,111.5 72.29926,214.80117 187.69917,272.70117 -17.7,21.6 -40.3992,39.29922 -67.6992,52.69922 -15.7,7.8 -24.30032,24.99961 -20.9004,42.09961 3.3,17.1 17.6996,29.79961 35.0996,31.09961 9.7,0.7 19.3,1 29,1 75.7717,0 144.4491,-21.11668 198.1309,-60.33985 59.8844,106.60002 197.6193,164.76331 338.1699,139.14063 2.4,-0.5 4.7992,-0.9 7.1992,-1.5 39.2,25.9 86.3008,39.30078 136.3008,39.30078 24.8,0 50.3,-3.3 76,-10 16.6,-4.4 28.3985,-19.20078 28.8985,-36.30078 0.4,-17.2 -10.5985,-32.60039 -26.8985,-37.90039 -20.5,-6.5 -38.6004,-16.60039 -53.9004,-29.90039 82.3,-66.8 124.8,-164.6 110,-259 -14,-89.1 -76.9996,-164.49922 -168.5996,-201.69922 -7.0101,-2.88235 -14.372,-3.44322 -21.3281,-2.19727 C 761.9364,193.58008 600.5816,81.30039 407.2,81.30039 Z"
     id="path4-3"
     style="fill:#fdfdfd;fill-opacity:1" />
  <path
     d="m 853,918.7 c -50,0 -97.1,-13.4 -136.3,-39.3 -2.4,0.6 -4.8,1 -7.2,1.5 -150.3,27.4 -297.4,-41 -349.5,-162 -8.4,-19.6 0.7,-42.3 20.2,-50.7 19.5,-8.2 42.3,0.6 50.7,20.2 38,88.4 149.5,137.5 264.9,116.5 6.7,-1.2 13.2,-2.8 19.6,-4.4 11.6,-3 23.9,-0.3 33.4,7.1 14.5,11.5 31.1,20.1 49.3,25.7 0,0 -0.1,-0.1 -0.2,-0.1 -2.9,-3.8 -5.2,-7.3 -7.5,-10.9 -5.9,-8.7 -9,-20.9 -6.7,-31.1 2.1,-10.2 7.4,-20.7 16.3,-26.3 79.3,-49.1 122.8,-130.5 110.7,-207.3 -9.9,-62.9 -54,-114.8 -121.4,-142.2 -19.7,-8 -29.3,-30.6 -21.1,-50.3 8,-19.8 30.6,-29.3 50.3,-21.2 91.6,37.2 154.6,112.6 168.6,201.7 14.8,94.4 -27.7,192.2 -110,259 15.3,13.3 33.4,23.4 53.9,29.9 16.3,5.3 27.3,20.7 26.9,37.9 -0.5,17.1 -12.3,31.9 -28.9,36.3 -25.7,6.7 -51.2,10 -76,10 z"
     id="path6"
     style="fill:#ff8209;fill-opacity:1" />
  <path
     d="m 173.2,802.1 c -9.7,0 -19.3,-0.3 -29,-1 -17.4,-1.3 -31.8,-14 -35.1,-31.1 -3.4,-17.1 5.2,-34.3 20.9,-42.1 27.3,-13.4 50,-31.1 67.7,-52.7 C 82.3,617.3 10,514 10,402.5 10,225.4 188.1,81.3 407.2,81.3 c 219.1,0 397.2,144.1 397.2,321.2 0,177.2 -178.1,321.3 -397.2,321.3 -4.5,0 -9,-0.1 -13.4,-0.3 -56.3,50.9 -133.8,78.6 -220.6,78.6 z m 234,-643.6 c -176.5,0 -320,109.5 -320,244 0,92.2 70.8,178.1 180.3,219.2 10.1,3.9 18.3,11.8 22.3,21.9 4.1,10.2 3.6,21.6 -1.3,31.3 l -1.8,3.9 c -2.1,4.5 -4.3,9 -6.8,13.2 -3.5,5.9 -7.3,11.7 -11.3,17.3 32.3,-11.4 60.3,-29.1 82.7,-52.1 7.9,-8.1 19,-12 30.1,-11.6 8.5,0.5 17.1,1.1 25.8,1.1 176.5,0 320,-109.5 320,-244.1 0,-134.5 -143.6,-244.1 -320,-244.1 z"
     id="path4"
     style="fill:#2b09ff;fill-opacity:1" />
  <path
     d="m 253.9,357.4 c -27.7,0 -50.3,22.5 -50.3,50.3 0,27.8 22.5,50.4 50.3,50.4 27.8,0 50.4,-22.5 50.4,-50.4 0,-27.7 -22.6,-50.3 -50.4,-50.3 z"
     id="path8"
     style="fill:#b000ab;fill-opacity:1" />
  <path
     d="m 408.2,357.4 c -27.8,0 -50.3,22.5 -50.3,50.3 0,27.8 22.4,50.4 50.3,50.4 27.9,0 50.4,-22.5 50.4,-50.4 0,-27.7 -22.5,-50.3 -50.4,-50.3 z"
     id="path10"
     style="fill:#b000ab;fill-opacity:1" />
  <path
     d="m 562.7,357.4 c -27.8,0 -50.3,22.5 -50.3,50.3 0,27.8 22.5,50.4 50.3,50.4 27.8,0 50.4,-22.5 50.4,-50.4 C 613,380 590.5,357.4 562.7,357.4 Z"
     id="path12"
     style="fill:#b000ab;fill-opacity:1" />
</g>

</svg>
