<?xml version="1.0" encoding="UTF-8" standalone="no"?>
<!-- Created with Inkscape (http://www.inkscape.org/) -->

<svg
   version="1.1"
   viewBox="0 0 1026.6907 686.707"
   sodipodi:docname="gavel.svg"
   inkscape:version="1.1.1 (3bf5ae0d25, 2021-09-20)"
   xml:space="preserve"
   id="svg1922"
   xmlns:inkscape="http://www.inkscape.org/namespaces/inkscape"
   xmlns:sodipodi="http://sodipodi.sourceforge.net/DTD/sodipodi-0.dtd"
   xmlns="http://www.w3.org/2000/svg"
   xmlns:svg="http://www.w3.org/2000/svg"><defs
     id="defs6" /><sodipodi:namedview
     id="namedview4"
     pagecolor="#ffffff"
     bordercolor="#666666"
     borderopacity="1.0"
     inkscape:pageshadow="2"
     inkscape:pageopacity="0.0"
     inkscape:pagecheckerboard="0"
     showgrid="false"
     fit-margin-top="0"
     fit-margin-left="0"
     fit-margin-right="0"
     fit-margin-bottom="0"
     inkscape:zoom="0.545625"
     inkscape:cx="506.7583"
     inkscape:cy="372.96678"
     inkscape:window-width="3440"
     inkscape:window-height="1369"
     inkscape:window-x="0"
     inkscape:window-y="34"
     inkscape:window-maximized="1"
     inkscape:current-layer="g8" /><g
     id="g8"
     inkscape:groupmode="layer"
     inkscape:label="ink_ext_XXXXXX"
     transform="matrix(1.3333333,0,0,-1.3333333,-292.49016,1173.8505)"><path
       id="path14"
       style="fill:#685e4f;fill-opacity:1;fill-rule:nonzero;stroke:#091d1c;stroke-width:6.77475;stroke-miterlimit:4;stroke-dasharray:none;stroke-opacity:1"
       d="m 975.431,470.704 c -1.535,-3.547 -3.88,-6.523 -6.722,-8.853 C 946.674,434.285 918.45,445.857 918.45,445.857 L 521.118,631.521 c -0.63,0.259 -1.232,0.556 -1.828,0.86 l -29.589,-68.366 -145.793,59.864 86.674,200.27 145.794,-59.865 -29.589,-68.366 c 0.64,-0.204 1.279,-0.416 1.91,-0.675 L 954.512,559.7 c 0,0 32.674,-19.376 31.02,-55.202 0.914,-4.482 0.516,-9.263 -1.433,-13.768 z m -387.556,-78.25 c 0,-13.04 -10.954,-23.709 -24.341,-23.709 H 247.097 c -13.388,0 -24.342,10.669 -24.342,23.709 v 27.283 c 0,13.04 10.954,23.709 24.342,23.709 h 316.437 c 13.387,0 24.341,-10.669 24.341,-23.709 z m -283.137,212.13 c 4.984,11.516 18.735,16.966 30.557,12.111 l 155.139,-63.702 c 11.823,-4.854 17.418,-18.248 12.434,-29.764 -4.984,-11.515 -18.734,-16.965 -30.556,-12.111 l -155.14,63.702 c -11.822,4.855 -17.418,18.248 -12.434,29.764 z m 111.889,258.53 c 4.984,11.515 18.735,16.966 30.557,12.111 l 155.139,-63.703 c 11.823,-4.854 17.418,-18.248 12.434,-29.763 -4.984,-11.515 -18.734,-16.966 -30.557,-12.111 l -155.139,63.703 c -11.822,4.854 -17.417,18.248 -12.434,29.763 z" /></g></svg>
