<?xml version="1.0" encoding="UTF-8" standalone="no"?>
<svg
   id="Layer_1"
   viewBox="0 0 403.9161 420.19155"
   version="1.1"
   sodipodi:docname="metamask.svg"
   inkscape:version="1.1 (c4e8f9e, 2021-05-24)"
   xmlns:inkscape="http://www.inkscape.org/namespaces/inkscape"
   xmlns:sodipodi="http://sodipodi.sourceforge.net/DTD/sodipodi-0.dtd"
   xmlns="http://www.w3.org/2000/svg"
   xmlns:svg="http://www.w3.org/2000/svg">
  <defs
     id="defs145" />
  <sodipodi:namedview
     id="namedview143"
     pagecolor="#505050"
     bordercolor="#ffffff"
     borderopacity="1"
     inkscape:pageshadow="0"
     inkscape:pageopacity="0"
     inkscape:pagecheckerboard="1"
     showgrid="false"
     fit-margin-top="0"
     fit-margin-left="0"
     fit-margin-right="0"
     fit-margin-bottom="0"
     inkscape:zoom="1.48"
     inkscape:cx="61.486487"
     inkscape:cy="249.66216"
     inkscape:window-width="3440"
     inkscape:window-height="1369"
     inkscape:window-x="0"
     inkscape:window-y="34"
     inkscape:window-maximized="1"
     inkscape:current-layer="Layer_1" />
  <style
     id="style2">.st0{fill:#e4761b;stroke:#e4761b}.st1{fill:#f6851b;stroke:#f6851b}.st2{fill:#763d16;stroke:#763d16}.st3{fill:#e2761b;stroke:#e2761b}.st4{fill:#c0ad9e;stroke:#c0ad9e}.st5{fill:#cd6116;stroke:#cd6116}.st6{fill:#e4751f;stroke:#e4751f}.st7{fill:#233447;stroke:#233447}.st8{fill:#d7c1b3;stroke:#d7c1b3}.st9{fill:#161616;stroke:#161616}</style>
  <path
     class="st0"
     d="m 382.82912,290.85937 -24.4,82.5 -47.9,-13.1 z"
     id="path4" />
  <path
     class="st0"
     d="m 310.52912,360.25937 46.2,-63.3 26.1,-6.1 z"
     id="path6" />
  <path
     class="st1"
     d="m 346.92912,228.65937 35.9,62.2 -26.1,6.1 z m 0,0 23.1,-16 12.8,78.2 z"
     id="path8" />
  <path
     class="st2"
     d="m 317.52912,181.65937 66.4,-27.2 -3.3,14.9 z m 61,5.6 -61,-5.6 63.1,-12.3 z"
     id="path10" />
  <path
     class="st2"
     d="m 378.52912,187.25937 -8.5,25.4 -52.5,-31 z m 13.3,-26.5 -11.2,8.6 3.3,-14.9 z m -13.3,26.5 2.1,-17.9 8.9,7.4 z"
     id="path12" />
  <path
     class="st3"
     d="m 259.02912,340.15937 16.6,5.3 34.9,14.8 z"
     id="path14" />
  <path
     class="st2"
     d="m 370.02912,212.65937 8.5,-25.4 7.3,5.6 z m 0,0 -68.9,-22.7 16.4,-8.3 z"
     id="path16" />
  <path
     class="st2"
     d="m 333.92912,103.75937 -16.4,77.9 -16.4,8.3 z"
     id="path18" />
  <path
     class="st2"
     d="m 383.92912,154.45937 -66.4,27.2 16.4,-77.9 z"
     id="path20" />
  <path
     class="st2"
     d="m 333.92912,103.75937 69.3,-8.000005 -19.3,58.700005 z"
     id="path22" />
  <path
     class="st1"
     d="m 370.02912,212.65937 -23.1,16 -45.8,-38.7 z"
     id="path24" />
  <path
     class="st2"
     d="m 400.22912,39.659365 3,56.1 -69.3,8.000005 z"
     id="path26" />
  <path
     class="st3"
     d="m 400.22912,39.659365 -138.5,100.700005 -1.8,-68.300005 z"
     id="path28" />
  <path
     class="st1"
     d="m 156.92912,63.859365 103,8.2 1.8,68.300005 z"
     id="path30" />
  <path
     class="st2"
     d="m 301.12912,189.95937 -39.4,-49.6 72.2,-36.6 z"
     id="path32" />
  <path
     class="st0"
     d="m 301.12912,189.95937 45.8,38.7 -64.3,7.1 z"
     id="path34" />
  <path
     class="st0"
     d="m 282.62912,235.75937 -20.9,-95.4 39.4,49.6 z"
     id="path36" />
  <path
     class="st2"
     d="m 333.92912,103.75937 -72.2,36.6 138.5,-100.700005 z"
     id="path38" />
  <path
     class="st4"
     d="m 157.82912,358.65937 32.7,34.1 -44.5,-40.5 z"
     id="path40" />
  <path
     class="st5"
     d="m 310.52912,360.25937 15.5,-58.9 30.7,-4.4 z"
     id="path42" />
  <path
     class="st3"
     d="m 25.229122,194.55937 56.6,-59.5 -49.3,52.4 z"
     id="path44" />
  <path
     class="st1"
     d="m 356.72912,296.95937 -30.7,4.4 20.9,-72.7 z m -95,-156.6 -55.1,-1.8 -49.7,-74.700005 z"
     id="path46" />
  <path
     class="st6"
     d="m 346.92912,228.65937 -20.9,72.7 -1.7,-35.5 z"
     id="path48" />
  <path
     class="st5"
     d="m 282.62912,235.75937 64.3,-7.1 -22.6,37.2 z"
     id="path50" />
  <path
     class="st1"
     d="m 206.62912,138.55937 55.1,1.8 20.9,95.4 z"
     id="path52" />
  <path
     class="st0"
     d="M 206.62912,138.55937 57.929122,0.95936505 156.92912,63.859365 Z m -49.8,241 -129.199998,40 -25.7999996,-98.5 z"
     id="path54" />
  <path
     class="st2"
     d="m 44.429122,219.15937 48.8,-38.3 40.899998,9.5 z"
     id="path56" />
  <path
     class="st2"
     d="m 134.12912,190.35937 -40.899998,-9.5 21.899998,-90.400005 z"
     id="path58" />
  <path
     class="st2"
     d="m 32.529122,187.45937 60.7,-6.6 -48.8,38.3 z"
     id="path60" />
  <path
     class="st5"
     d="m 324.32912,265.85937 -25.2,-12.7 -16.5,-17.4 z"
     id="path62" />
  <path
     class="st2"
     d="m 32.529122,187.45937 -4.3,-22.7 65,16.1 z"
     id="path64" />
  <path
     class="st7"
     d="m 293.92912,281.75937 5.2,-28.6 25.2,12.7 z"
     id="path66" />
  <path
     class="st1"
     d="m 326.02912,301.35937 -32.1,-19.6 30.4,-15.9 z"
     id="path68" />
  <path
     class="st2"
     d="m 93.229122,180.85937 -65,-16.1 -5.3,-19.1 z m 21.899998,-90.400005 -21.899998,90.400005 -70.3,-35.2 z m 0,0 91.5,48.100005 -72.5,51.8 z"
     id="path70" />
  <path
     class="st0"
     d="m 134.12912,190.35937 72.5,-51.8 32.3,98.7 z m 104.8,46.9 -100.2,-2.1 -4.6,-44.8 z"
     id="path72" />
  <path
     class="st1"
     d="m 44.429122,219.15937 89.699998,-28.8 4.6,44.8 z m 238.199998,16.6 -43.7,1.5 -32.3,-98.7 z"
     id="path74" />
  <path
     class="st5"
     d="m 299.12912,253.15937 -5.2,28.6 -11.3,-46 z"
     id="path76" />
  <path
     class="st2"
     d="M 57.929122,0.95936505 206.62912,138.55937 l -91.5,-48.100005 z"
     id="path78" />
  <path
     class="st0"
     d="m 1.8291224,321.05937 125.3999976,-5.2 29.6,63.7 z"
     id="path80" />
  <path
     class="st5"
     d="m 156.82912,379.55937 -29.6,-63.7 61.6,-3 z"
     id="path82" />
  <path
     class="st1"
     d="m 293.92912,281.75937 32.1,19.6 17.7,41.7 z m -155.2,-46.6 -136.8999976,85.9 42.5999996,-101.9 z m -11.5,80.7 -125.3999976,5.2 136.8999976,-85.9 z m 155.4,-80.1 8.2,29.8 -39.6,2.3 z m -31.4,32.1 -12.3,-30.6 43.7,-1.5 z"
     id="path84" />
  <path
     class="st4"
     d="m 190.52912,392.75937 -33.7,-13.2 117.2,19.7 z"
     id="path86" />
  <path
     class="st2"
     d="m 44.429122,219.15937 -19.2,-24.6 7.3,-7.1 z"
     id="path88" />
  <path
     class="st8"
     d="m 287.32912,384.65937 -13.3,14.6 -117.2,-19.7 z"
     id="path90" />
  <path
     class="st0"
     d="m 293.62912,348.85937 -136.8,30.7 32,-66.7 z"
     id="path92" />
  <path
     class="st8"
     d="m 156.82912,379.55937 136.8,-30.7 -6.3,35.8 z"
     id="path94" />
  <path
     class="st2"
     d="m 22.929122,145.65937 -4.5,-76.900005 96.699998,21.7 z m 9.6,41.8 -13.3,-13.5 9,-9.2 z"
     id="path96" />
  <path
     class="st5"
     d="m 216.52912,257.05937 22.4,-19.8 -3.2,48.4 z"
     id="path98" />
  <path
     class="st5"
     d="m 238.92912,237.25937 -22.4,19.8 -32.6,16.9 z"
     id="path100" />
  <path
     class="st1"
     d="m 343.72912,343.05937 -6.1,-4.5 -43.7,-56.8 z"
     id="path102" />
  <path
     class="st5"
     d="m 183.92912,273.95937 -45.2,-38.8 100.2,2.1 z"
     id="path104" />
  <path
     class="st6"
     d="m 235.72912,285.65937 3.2,-48.4 12.3,30.6 z"
     id="path106" />
  <path
     class="st2"
     d="m 14.829122,153.25937 8.1,-7.6 5.3,19.1 z"
     id="path108" />
  <path
     class="st7"
     d="m 235.72912,285.65937 -51.8,-11.7 32.6,-16.9 z"
     id="path110" />
  <path
     class="st2"
     d="m 115.12912,90.459365 -96.699998,-21.7 39.5,-67.79999995 z"
     id="path112" />
  <path
     class="st4"
     d="m 274.02912,399.25937 5.5,15 -89,-21.5 z"
     id="path114" />
  <path
     class="st1"
     d="m 188.82912,312.85937 -4.9,-38.9 51.8,11.7 z"
     id="path116" />
  <path
     class="st6"
     d="m 138.72912,235.15937 45.2,38.8 4.9,38.9 z"
     id="path118" />
  <path
     class="st1"
     d="m 251.22912,267.85937 39.6,-2.3 46.8,73 z m -112.5,-32.7 50.1,77.7 -61.6,3 z"
     id="path120" />
  <path
     class="st6"
     d="m 251.22912,267.85937 49.2,74.9 -64.7,-57.1 z"
     id="path122" />
  <path
     class="st1"
     d="m 235.72912,285.65937 64.7,57.1 -6.8,6.1 z"
     id="path124" />
  <path
     class="st1"
     d="m 293.62912,348.85937 -104.8,-36 46.9,-27.2 z m 44,-10.3 -37.2,4.2 -49.2,-74.9 z"
     id="path126" />
  <path
     class="st4"
     d="m 347.42912,373.75937 -16,32.1 -51.9,8.4 z m -67.9,40.5 -5.5,-15 13.3,-14.6 z"
     id="path128" />
  <path
     class="st4"
     d="m 287.32912,384.65937 9.8,-3.9 -17.6,33.5 z m -7.8,29.6 17.6,-33.5 50.3,-7 z"
     id="path130" />
  <path
     class="st9"
     d="m 337.62912,338.55937 12.3,7.5 -37.4,4.5 z"
     id="path132" />
  <path
     class="st9"
     d="m 312.52912,350.55937 -12.1,-7.8 37.2,-4.2 z m -4.3,5.9 45.5,-5.5 -6.3,22.8 z"
     id="path134" />
  <path
     class="st9"
     d="m 347.42912,373.75937 -50.3,7 11.1,-24.3 z m -50.3,7 -9.8,3.9 6.3,-35.8 z m -3.5,-31.9 6.8,-6.1 12.1,7.8 z m 56.3,-2.8 3.8,4.9 -45.5,5.5 z"
     id="path136" />
  <path
     class="st9"
     d="m 308.22912,356.45937 4.3,-5.9 37.4,-4.5 z m -14.6,-7.6 14.6,7.6 -11.1,24.3 z"
     id="path138" />
  <path
     class="st9"
     d="m 312.52912,350.55937 -4.3,5.9 -14.6,-7.6 z"
     id="path140" />
</svg>
