<?xml version="1.0" encoding="UTF-8" standalone="no"?>
<!-- Generator: Adobe Illustrator 19.0.0, SVG Export Plug-In . SVG Version: 6.00 Build 0)  -->

<svg
   version="1.1"
   id="Layer_1"
   viewBox="0 0 297 297"
   style="enable-background:new 0 0 297 297;"
   xml:space="preserve"
   sodipodi:docname="pause.svg"
   inkscape:version="1.1 (c4e8f9e, 2021-05-24)"
   inkscape:export-filename="/home/dys/tip/program/consult/src/pause.png"
   inkscape:export-xdpi="20.686869"
   inkscape:export-ydpi="20.686869"
   xmlns:inkscape="http://www.inkscape.org/namespaces/inkscape"
   xmlns:sodipodi="http://sodipodi.sourceforge.net/DTD/sodipodi-0.dtd"
   xmlns="http://www.w3.org/2000/svg"
   xmlns:svg="http://www.w3.org/2000/svg"><defs
     id="defs47" /><sodipodi:namedview
     id="namedview45"
     pagecolor="#505050"
     bordercolor="#ffffff"
     borderopacity="1"
     inkscape:pageshadow="0"
     inkscape:pageopacity="0"
     inkscape:pagecheckerboard="1"
     showgrid="false"
     inkscape:zoom="3.1144781"
     inkscape:cx="124.09784"
     inkscape:cy="148.5"
     inkscape:window-width="1453"
     inkscape:window-height="1103"
     inkscape:window-x="1879"
     inkscape:window-y="95"
     inkscape:window-maximized="0"
     inkscape:current-layer="Layer_1" /><rect
     style="fill:#a34811;fill-opacity:1;fill-rule:evenodd;stroke:#050505;stroke-width:2.75;stroke-linecap:round;stroke-linejoin:round;stroke-miterlimit:2;stroke-opacity:1;opacity:0.75622171"
     id="rect1120"
     width="263.08057"
     height="268.48151"
     x="16.391342"
     y="14.67437"
     ry="8.9458103"
     inkscape:export-filename="/home/dys/tip/program/consult/src/pause.png"
     inkscape:export-xdpi="9.0200005"
     inkscape:export-ydpi="9.0200005" /><rect
     style="fill:#1c11a3;fill-opacity:1;fill-rule:evenodd;stroke:#050505;stroke-width:2.75;stroke-linecap:round;stroke-linejoin:round;stroke-miterlimit:2;stroke-opacity:1;opacity:0.75622171"
     id="rect1234"
     width="52.719616"
     height="177.51923"
     x="165.666"
     y="59.490891"
     ry="8.9458103"
     inkscape:export-filename="/home/dys/tip/program/consult/src/pause.png"
     inkscape:export-xdpi="9.0200005"
     inkscape:export-ydpi="9.0200005" /><rect
     style="fill:#1c11a3;fill-opacity:1;fill-rule:evenodd;stroke:#050505;stroke-width:2.75;stroke-linecap:round;stroke-linejoin:round;stroke-miterlimit:2;stroke-opacity:1;opacity:0.75622171"
     id="rect1232"
     width="54.916702"
     height="174.17191"
     x="78.690971"
     y="62.496204"
     ry="8.9458103"
     inkscape:export-filename="/home/dys/tip/program/consult/src/pause.png"
     inkscape:export-xdpi="9.0200005"
     inkscape:export-ydpi="9.0200005" /><g
     id="g12"
     style="fill:#0d0c0a;fill-opacity:1;stroke:#050505;stroke-opacity:1;opacity:0.75622171"
     inkscape:export-filename="/home/dys/tip/program/consult/src/pause.png"
     inkscape:export-xdpi="9.0200005"
     inkscape:export-ydpi="9.0200005"><g
       id="g10"
       style="fill:#0d0c0a;fill-opacity:1;stroke:#050505;stroke-opacity:1"><g
         id="g8"
         style="fill:#0d0c0a;fill-opacity:1;stroke:#050505;stroke-opacity:1"><path
           d="M256.935,0H40.065C17.973,0,0,17.973,0,40.065v216.869C0,279.027,17.973,297,40.065,297h216.869     C279.027,297,297,279.027,297,256.935V40.065C297,17.973,279.027,0,256.935,0z M256.935,276.588H40.065     c-10.837,0-19.653-8.816-19.653-19.653V40.065c0-10.837,8.816-19.653,19.653-19.653h216.869c10.837,0,19.653,8.816,19.653,19.653     v216.87h0.001C276.588,267.772,267.772,276.588,256.935,276.588z"
           id="path2"
           style="fill:#0d0c0a;fill-opacity:1;stroke:#050505;stroke-opacity:1" /><path
           d="M131.213,51.86h-51.86c-5.636,0-10.206,4.57-10.206,10.206v172.867c0,5.636,4.57,10.206,10.206,10.206h51.86     c5.636,0,10.206-4.57,10.206-10.206V62.066C141.419,56.43,136.85,51.86,131.213,51.86z M121.007,224.727H89.559V72.273h31.448     V224.727z"
           id="path4"
           style="fill:#0d0c0a;fill-opacity:1;stroke:#050505;stroke-opacity:1" /><path
           d="M217.647,51.86h-51.86c-5.636,0-10.206,4.57-10.206,10.206v172.867c0,5.636,4.57,10.206,10.206,10.206h51.86     c5.636,0,10.206-4.57,10.206-10.206V62.066C227.853,56.43,223.283,51.86,217.647,51.86z M207.441,224.727h-31.448V72.273h31.448     V224.727z"
           id="path6"
           style="fill:#0d0c0a;fill-opacity:1;stroke:#050505;stroke-opacity:1" /></g></g></g></svg>
