<?xml version="1.0" encoding="UTF-8" standalone="no"?>
<svg
   version="1.1"
   viewBox="0 0 123.88086 123.88086"
   xml:space="preserve"
   sodipodi:docname="play.svg"
   inkscape:version="1.1 (c4e8f9e, 2021-05-24)"
   inkscape:export-filename="/home/dys/tip/program/consult/src/play.png"
   inkscape:export-xdpi="21.698267"
   inkscape:export-ydpi="21.698267"
   xmlns:inkscape="http://www.inkscape.org/namespaces/inkscape"
   xmlns:sodipodi="http://sodipodi.sourceforge.net/DTD/sodipodi-0.dtd"
   xmlns="http://www.w3.org/2000/svg"
   xmlns:svg="http://www.w3.org/2000/svg"><defs
     id="defs11" /><sodipodi:namedview
     id="namedview9"
     pagecolor="#505050"
     bordercolor="#ffffff"
     borderopacity="1"
     inkscape:pageshadow="0"
     inkscape:pageopacity="0"
     inkscape:pagecheckerboard="1"
     showgrid="false"
     inkscape:zoom="7.5276694"
     inkscape:cx="61.90495"
     inkscape:cy="73.395891"
     inkscape:window-width="3440"
     inkscape:window-height="1369"
     inkscape:window-x="0"
     inkscape:window-y="34"
     inkscape:window-maximized="1"
     inkscape:current-layer="Layer_1"
     fit-margin-top="0"
     fit-margin-left="0"
     fit-margin-right="0"
     fit-margin-bottom="0" /><style
     type="text/css"
     id="style2">.st0{fill-rule:evenodd;clip-rule:evenodd;}</style><circle
     style="opacity:0.749952;fill:#a34811;fill-opacity:1;fill-rule:evenodd"
     id="path1588"
     cx="61.524864"
     cy="62.497974"
     r="57.257935" /><path
     id="path833"
     d="M 61.939453,0.5 C 28.009453,0.5 0.5,28.009453 0.5,61.939453 c 0,33.93 27.509453,61.441407 61.439453,61.441407 33.93,0 61.441407,-27.511407 61.441407,-61.441407 C 123.38086,28.009453 95.869453,0.5 61.939453,0.5 Z m 0,12.480469 c 27.04,0 48.960937,21.918984 48.960937,48.958984 0,27.04 -21.920937,48.960937 -48.960937,48.960937 -27.04,0 -48.958984,-21.920937 -48.958984,-48.960937 0,-27.04 21.918984,-48.958984 48.958984,-48.958984 z"
     style="opacity:0.749952;fill:#1c11a3;fill-opacity:1;stroke:#f3f3f3;stroke-opacity:1" /><path
     d="m 91.217307,65.285543 c 4.104119,-2.648665 4.091007,-5.59891 0,-7.945994 L 48.825558,32.977077 C 45.481946,30.879125 41.9941,32.111672 42.085886,36.478035 l 0.131122,49.236319 c 0.288468,4.733505 2.989582,6.031613 6.975691,3.841875 z"
     id="path831"
     style="opacity:0.749952;fill:#1c11a3;fill-opacity:1;stroke:#f3f3f3;stroke-width:1.31122;stroke-opacity:1" /></svg>
