<?xml version="1.0" encoding="UTF-8" standalone="no"?>
<!-- Created with Inkscape (http://www.inkscape.org/) -->

<svg
   viewBox="0 0 1091.9035 935.27617"
   version="1.1"
   inkscape:version="1.1 (c4e8f9e, 2021-05-24)"
   sodipodi:docname="public access token.svg"
   id="svg30009"
   xmlns:inkscape="http://www.inkscape.org/namespaces/inkscape"
   xmlns:sodipodi="http://sodipodi.sourceforge.net/DTD/sodipodi-0.dtd"
   xmlns:xlink="http://www.w3.org/1999/xlink"
   xmlns="http://www.w3.org/2000/svg"
   xmlns:svg="http://www.w3.org/2000/svg"
   xmlns:a="http://ns.adobe.com/AdobeSVGViewerExtensions/3.0/">
  <style type="text/css">
    @import url('https://fonts.googleapis.com/css2?family=Permanent+Marker&amp;display=swap')
  </style>
  <sodipodi:namedview
     id="namedview7"
     pagecolor="#ffffff"
     bordercolor="#666666"
     borderopacity="1.0"
     inkscape:pageshadow="2"
     inkscape:pageopacity="0.0"
     inkscape:pagecheckerboard="0"
     inkscape:document-units="mm"
     showgrid="false"
     fit-margin-top="0"
     fit-margin-left="0"
     fit-margin-right="0"
     fit-margin-bottom="0"
     inkscape:zoom="0.54995536"
     inkscape:cx="540.953"
     inkscape:cy="619.14116"
     inkscape:window-width="1595"
     inkscape:window-height="1103"
     inkscape:window-x="0"
     inkscape:window-y="75"
     inkscape:window-maximized="0"
     inkscape:current-layer="layer1" />
  <defs
     id="defs2">
    <linearGradient
       id="linearGradient2049">
      <stop
         offset="0.033700000"
         style="stop-color: rgb(0, 255, 0); stop-opacity: 1;"
         id="stop2050" />
      <stop
         offset="1.0000000"
         style="stop-color: rgb(0, 151, 0); stop-opacity: 1;"
         id="stop2051" />
    </linearGradient>
    <linearGradient
       id="linearGradient2020">
      <stop
         offset="0.0000000"
         style="stop-color: rgb(158, 158, 158); stop-opacity: 1;"
         id="stop2022" />
      <stop
         offset="1.0000000"
         style="stop-color: rgb(97, 97, 97); stop-opacity: 1;"
         id="stop2021" />
    </linearGradient>
    <linearGradient
       id="linearGradient2001">
      <stop
         offset="0.033700000"
         style="stop-color: rgb(255, 255, 255); stop-opacity: 1;"
         id="stop2003" />
      <stop
         offset="1.0000000"
         style="stop-color: rgb(135, 135, 135); stop-opacity: 1;"
         id="stop2002" />
    </linearGradient>
    <linearGradient
       id="linearGradient1987">
      <stop
         offset="0.033700000"
         style="stop-color: rgb(255, 255, 255); stop-opacity: 1;"
         id="stop1989" />
      <stop
         offset="1.0000000"
         style="stop-color: rgb(178, 178, 178); stop-opacity: 1;"
         id="stop1988" />
    </linearGradient>
    <linearGradient
       id="linearGradient1939">
      <stop
         offset="0.0000000"
         style="stop-color: rgb(255, 255, 255); stop-opacity: 1;"
         id="stop1941" />
      <stop
         offset="1.0000000"
         style="stop-color: rgb(207, 207, 207); stop-opacity: 1;"
         id="stop1940" />
    </linearGradient>
    <linearGradient
       id="linearGradient1925">
      <stop
         offset="0.0000000"
         style="stop-color: rgb(255, 255, 255); stop-opacity: 1;"
         id="stop1927" />
      <stop
         offset="1.0000000"
         style="stop-color: rgb(255, 255, 255); stop-opacity: 0;"
         id="stop1926" />
    </linearGradient>
    <linearGradient
       id="linearGradient1895">
      <stop
         offset="0.0000000"
         style="stop-color: rgb(204, 204, 204); stop-opacity: 1;"
         id="stop1897" />
      <stop
         offset="1.0000000"
         style="stop-color: rgb(97, 97, 97); stop-opacity: 1;"
         id="stop1896" />
    </linearGradient>
    <linearGradient
       inkscape:collect="always"
       xlink:href="#linearGradient1925"
       id="linearGradient1924"
       gradientTransform="scale(0.73936,1.35252)"
       x1="108.45679"
       y1="33.612988"
       x2="134.87514"
       y2="60.464489"
       gradientUnits="userSpaceOnUse" />
    <linearGradient
       inkscape:collect="always"
       xlink:href="#linearGradient1939"
       id="linearGradient1977"
       gradientUnits="userSpaceOnUse"
       gradientTransform="matrix(1.71814,0,0,0.23394,1.49602,65.5133)"
       x1="47.610882"
       y1="20.173775"
       x2="56.110985"
       y2="53.457325" />
    <linearGradient
       inkscape:collect="always"
       xlink:href="#linearGradient2020"
       id="linearGradient1978"
       gradientUnits="userSpaceOnUse"
       gradientTransform="matrix(1.58723,0,0,0.212498,1.49602,66.2952)"
       x1="59.364616"
       y1="40.894772"
       x2="59.436813"
       y2="19.19331" />
    <linearGradient
       inkscape:collect="always"
       xlink:href="#linearGradient1939"
       id="linearGradient1980"
       gradientUnits="userSpaceOnUse"
       gradientTransform="matrix(1.71814,0,0,0.240258,1.49602,63.5905)"
       x1="47.610882"
       y1="20.173775"
       x2="56.110985"
       y2="53.457325" />
    <linearGradient
       inkscape:collect="always"
       xlink:href="#linearGradient2020"
       id="linearGradient1981"
       gradientUnits="userSpaceOnUse"
       gradientTransform="matrix(1.58723,0,0,0.218238,1.49602,64.3935)"
       x1="59.364616"
       y1="40.894772"
       x2="59.436813"
       y2="19.19331" />
    <linearGradient
       id="XMLID_1_"
       gradientUnits="userSpaceOnUse"
       x1="59.450699"
       y1="126.196"
       x2="59.450699"
       y2="94.688301"
       spreadMethod="pad"
       xlink:href="#linearGradient2020" />
    <linearGradient
       id="XMLID_2_"
       gradientUnits="userSpaceOnUse"
       x1="59.463402"
       y1="102.881"
       x2="59.463402"
       y2="123.654">
      <stop
         offset="0"
         style="stop-color: rgb(255, 255, 255);"
         id="stop20" />
      <stop
         offset="1"
         style="stop-color: rgb(207, 207, 207);"
         id="stop22" />
      <a:midPointStop
         offset="0"
         style="stop-color:#FFFFFF"
         id="midPointStop24" />
      <a:midPointStop
         offset="0.5"
         style="stop-color:#FFFFFF"
         id="midPointStop26" />
      <a:midPointStop
         offset="1"
         style="stop-color:#CFCFCF"
         id="midPointStop28" />
    </linearGradient>
    <linearGradient
       id="XMLID_3_"
       gradientUnits="userSpaceOnUse"
       x1="44.869099"
       y1="89.282204"
       x2="73.438004"
       y2="120.732"
       spreadMethod="pad"
       xlink:href="#linearGradient2001" />
    <linearGradient
       id="XMLID_4_"
       gradientUnits="userSpaceOnUse"
       x1="58.564899"
       y1="109.229"
       x2="58.564899"
       y2="77.887497"
       spreadMethod="pad"
       xlink:href="#linearGradient2020" />
    <linearGradient
       id="XMLID_5_"
       gradientUnits="userSpaceOnUse"
       x1="58.566399"
       y1="104.072"
       x2="58.566399"
       y2="89.384598"
       spreadMethod="pad"
       xlink:href="#linearGradient1939" />
    <linearGradient
       id="XMLID_6_"
       gradientUnits="userSpaceOnUse"
       x1="43.089802"
       y1="73.366203"
       x2="75.628998"
       y2="109.186">
      <stop
         offset="0.0337"
         style="stop-color: rgb(255, 255, 255);"
         id="stop62" />
      <stop
         offset="1"
         style="stop-color: rgb(135, 135, 135);"
         id="stop64" />
    </linearGradient>
    <linearGradient
       id="XMLID_7_"
       gradientUnits="userSpaceOnUse"
       x1="59.449699"
       y1="99.836899"
       x2="59.449699"
       y2="13.0515"
       spreadMethod="pad"
       xlink:href="#linearGradient2020" />
    <linearGradient
       id="XMLID_8_"
       gradientUnits="userSpaceOnUse"
       x1="58.5107"
       y1="69.587898"
       x2="62.727001"
       y2="-38.7365"
       spreadMethod="pad"
       xlink:href="#linearGradient1987" />
    <linearGradient
       id="XMLID_9_"
       gradientUnits="userSpaceOnUse"
       x1="43.4175"
       y1="29.4097"
       x2="119.845"
       y2="105.837"
       spreadMethod="pad"
       xlink:href="#linearGradient1987" />
    <linearGradient
       id="XMLID_10_"
       gradientUnits="userSpaceOnUse"
       x1="1.6362"
       y1="-25.0278"
       x2="1.6362"
       y2="56.389301"
       spreadMethod="pad"
       xlink:href="#linearGradient1925" />
    <linearGradient
       id="XMLID_11_"
       gradientUnits="userSpaceOnUse"
       x1="59.7729"
       y1="0.0283"
       x2="59.7729"
       y2="59.2285">
      <stop
         offset="0%"
         style="stop-color: rgb(255, 255, 255);"
         id="stop109" />
      <stop
         offset="100%"
         style="stop-opacity: 0; stop-color: rgb(255, 255, 255);"
         id="stop111" />
    </linearGradient>
    <radialGradient
       id="XMLID_12_"
       cx="-13.7461"
       cy="95.490196"
       r="61.608101"
       fx="-13.7461"
       fy="95.490196"
       gradientTransform="matrix(1.0388,0,0,1,70.2622,0)"
       gradientUnits="userSpaceOnUse">
      <stop
         offset="0"
         style="stop-color: rgb(133, 202, 255);"
         id="stop118" />
      <stop
         offset="1"
         style="stop-color: rgb(0, 61, 169);"
         id="stop120" />
      <a:midPointStop
         offset="0"
         style="stop-color:#85CAFF"
         id="midPointStop122" />
      <a:midPointStop
         offset="0.5"
         style="stop-color:#85CAFF"
         id="midPointStop124" />
      <a:midPointStop
         offset="1"
         style="stop-color:#003DA9"
         id="midPointStop126" />
    </radialGradient>
    <linearGradient
       id="XMLID_13_"
       gradientUnits="userSpaceOnUse"
       x1="59.382301"
       y1="60.042"
       x2="59.382301"
       y2="-28.417801"
       spreadMethod="pad"
       xlink:href="#linearGradient1895">
      <a:midPointStop
         offset="0"
         style="stop-color:#CCCCCC"
         id="midPointStop137" />
      <a:midPointStop
         offset="0.5"
         style="stop-color:#CCCCCC"
         id="midPointStop139" />
      <a:midPointStop
         offset="1"
         style="stop-color:#616161"
         id="midPointStop141" />
    </linearGradient>
    <radialGradient
       id="XMLID_14_"
       cx="-16.730499"
       cy="15.3696"
       r="67.632599"
       fx="-16.730499"
       fy="15.3696"
       gradientTransform="matrix(1.0463,0,0,0.9215,74.949,-5.7288)"
       gradientUnits="userSpaceOnUse">
      <stop
         offset="0"
         style="stop-color: rgb(133, 202, 255);"
         id="stop150" />
      <stop
         offset="1"
         style="stop-color: rgb(0, 61, 169);"
         id="stop152" />
      <a:midPointStop
         offset="0"
         style="stop-color:#85CAFF"
         id="midPointStop154" />
      <a:midPointStop
         offset="0.5"
         style="stop-color:#85CAFF"
         id="midPointStop156" />
      <a:midPointStop
         offset="1"
         style="stop-color:#003DA9"
         id="midPointStop158" />
    </radialGradient>
    <linearGradient
       inkscape:collect="always"
       xlink:href="#linearGradient2020"
       id="linearGradient1238"
       gradientUnits="userSpaceOnUse"
       x1="59.450699"
       y1="126.196"
       x2="59.450699"
       y2="94.688301"
       gradientTransform="matrix(1.0375967,0,0,1.0375967,56.322892,25.228121)" />
    <linearGradient
       inkscape:collect="always"
       xlink:href="#XMLID_2_"
       id="linearGradient1239"
       gradientUnits="userSpaceOnUse"
       x1="59.463402"
       y1="102.881"
       x2="59.463402"
       y2="123.654"
       gradientTransform="matrix(1.0375967,0,0,1.0375967,56.322892,25.228121)" />
    <linearGradient
       inkscape:collect="always"
       xlink:href="#linearGradient2001"
       id="linearGradient1240"
       gradientUnits="userSpaceOnUse"
       x1="44.869099"
       y1="89.282204"
       x2="73.438004"
       y2="120.732"
       gradientTransform="matrix(1.0375967,0,0,1.0375967,56.322892,25.228121)" />
    <linearGradient
       inkscape:collect="always"
       xlink:href="#linearGradient2020"
       id="linearGradient1241"
       gradientUnits="userSpaceOnUse"
       x1="58.564899"
       y1="109.229"
       x2="58.564899"
       y2="77.887497"
       gradientTransform="matrix(1.0375967,0,0,1.0375967,56.322892,25.228121)" />
    <linearGradient
       inkscape:collect="always"
       xlink:href="#linearGradient1939"
       id="linearGradient1242"
       gradientUnits="userSpaceOnUse"
       x1="58.566399"
       y1="104.072"
       x2="58.566399"
       y2="89.384598"
       gradientTransform="matrix(1.0375967,0,0,1.0375967,56.322892,25.228121)" />
    <linearGradient
       inkscape:collect="always"
       xlink:href="#XMLID_6_"
       id="linearGradient1243"
       gradientUnits="userSpaceOnUse"
       x1="43.089802"
       y1="73.366203"
       x2="75.628998"
       y2="109.186"
       gradientTransform="matrix(1.0375967,0,0,1.0375967,56.322892,25.228121)" />
    <linearGradient
       inkscape:collect="always"
       xlink:href="#linearGradient2020"
       id="linearGradient1244"
       gradientUnits="userSpaceOnUse"
       x1="59.449699"
       y1="99.836899"
       x2="59.449699"
       y2="13.0515"
       gradientTransform="matrix(1.0375967,0,0,1.0375967,56.322892,25.228121)" />
    <linearGradient
       inkscape:collect="always"
       xlink:href="#linearGradient1987"
       id="linearGradient1245"
       gradientUnits="userSpaceOnUse"
       x1="58.5107"
       y1="69.587898"
       x2="62.727001"
       y2="-38.7365"
       gradientTransform="matrix(1.0375967,0,0,1.0375967,56.322892,25.228121)" />
    <linearGradient
       inkscape:collect="always"
       xlink:href="#linearGradient1987"
       id="linearGradient1246"
       gradientUnits="userSpaceOnUse"
       x1="43.4175"
       y1="29.4097"
       x2="119.845"
       y2="105.837"
       gradientTransform="matrix(1.0375967,0,0,1.0375967,56.322892,25.228121)" />
    <linearGradient
       inkscape:collect="always"
       xlink:href="#linearGradient1925"
       id="linearGradient1247"
       gradientUnits="userSpaceOnUse"
       x1="1.6362"
       y1="-25.0278"
       x2="1.6362"
       y2="56.389301"
       gradientTransform="matrix(1.0375967,0,0,1.0375967,56.322892,25.228121)" />
    <linearGradient
       inkscape:collect="always"
       xlink:href="#XMLID_11_"
       id="linearGradient1248"
       gradientUnits="userSpaceOnUse"
       x1="59.7729"
       y1="0.0283"
       x2="59.7729"
       y2="59.2285"
       gradientTransform="matrix(1.0375967,0,0,1.0375967,56.322892,25.228121)" />
    <radialGradient
       inkscape:collect="always"
       xlink:href="#XMLID_12_-1"
       id="radialGradient1249"
       gradientUnits="userSpaceOnUse"
       gradientTransform="matrix(1.0778555,0,0,1.0375967,129.22672,25.228121)"
       cx="-13.7461"
       cy="95.490196"
       fx="-13.7461"
       fy="95.490196"
       r="61.608101" />
    <radialGradient
       id="XMLID_12_-1"
       cx="-13.7461"
       cy="95.490196"
       r="61.608101"
       fx="-13.7461"
       fy="95.490196"
       gradientTransform="matrix(1.0388,0,0,1,70.2622,0)"
       gradientUnits="userSpaceOnUse">
      <stop
         offset="0"
         style="stop-color: rgb(133, 202, 255);"
         id="stop118-8" />
      <stop
         offset="1"
         style="stop-color: rgb(0, 61, 169);"
         id="stop120-7" />
      <a:midPointStop
         offset="0"
         style="stop-color:#85CAFF"
         id="midPointStop122" />
      <a:midPointStop
         offset="0.5"
         style="stop-color:#85CAFF"
         id="midPointStop124" />
      <a:midPointStop
         offset="1"
         style="stop-color:#003DA9"
         id="midPointStop126" />
    </radialGradient>
    <linearGradient
       inkscape:collect="always"
       xlink:href="#linearGradient1895"
       id="linearGradient1250"
       gradientUnits="userSpaceOnUse"
       x1="59.382301"
       y1="60.042"
       x2="59.382301"
       y2="-28.417801"
       gradientTransform="matrix(1.0375967,0,0,1.0375967,56.322892,25.228121)" />
    <radialGradient
       inkscape:collect="always"
       xlink:href="#XMLID_14_-0"
       id="radialGradient1251"
       gradientUnits="userSpaceOnUse"
       gradientTransform="matrix(1.0856374,0,0,0.95614536,134.08973,19.283937)"
       cx="-16.730499"
       cy="15.3696"
       fx="-16.730499"
       fy="15.3696"
       r="67.632599" />
    <radialGradient
       id="XMLID_14_-0"
       cx="-16.730499"
       cy="15.3696"
       r="67.632599"
       fx="-16.730499"
       fy="15.3696"
       gradientTransform="matrix(1.0463,0,0,0.9215,74.949,-5.7288)"
       gradientUnits="userSpaceOnUse">
      <stop
         offset="0"
         style="stop-color: rgb(133, 202, 255);"
         id="stop150-2" />
      <stop
         offset="1"
         style="stop-color: rgb(0, 61, 169);"
         id="stop152-3" />
      <a:midPointStop
         offset="0"
         style="stop-color:#85CAFF"
         id="midPointStop154" />
      <a:midPointStop
         offset="0.5"
         style="stop-color:#85CAFF"
         id="midPointStop156" />
      <a:midPointStop
         offset="1"
         style="stop-color:#003DA9"
         id="midPointStop158" />
    </radialGradient>
  </defs>
  <g
     inkscape:groupmode="layer"
     id="layer2"
     inkscape:label="Logo"
     style="display:inline"
     transform="translate(-21.435773,159.31916)">
    <g
       inkscape:label="Layer 1"
       id="layer1-5"
       transform="matrix(4.8769666,0,0,4.8769666,-7.9559838,-282.35586)">
      <path
         d="m 89.817551,130.76934 c 4.267635,0.60285 9.136039,-2.97686 11.463369,-8.17107 -0.26251,-4.01446 -2.470518,-7.06915 -5.998347,-7.56408 -3.936642,-0.55096 -8.352654,2.24328 -11.069082,6.59497 -0.478332,4.74285 1.710997,8.59337 5.60406,9.14018 z"
         style="fill:none;stroke-width:1.0376"
         id="path5" />
      <path
         d="m 160.19877,135.67821 c 0,9.45355 -18.89048,17.11827 -42.19179,17.11827 -23.300273,0 -42.189721,-7.66472 -42.189721,-17.11827 0,-9.45354 18.889448,-17.11827 42.189721,-17.11827 23.30131,0 42.19179,7.66473 42.19179,17.11827 z"
         style="fill:url(#linearGradient1238);stroke-width:1.0376"
         id="path16" />
      <path
         d="m 158.79283,135.29638 c 0,8.14513 -18.25236,14.74321 -40.76925,14.74321 -22.516886,0 -40.771325,-6.59808 -40.771325,-14.74321 0,-8.14306 18.254439,-14.74217 40.771325,-14.74217 22.51689,0 40.76925,6.59911 40.76925,14.74217 z"
         style="fill:url(#linearGradient1239);stroke-width:1.0376"
         id="path31" />
      <path
         a:adobe-blending-mode="multiply"
         d="m 141.87585,133.51068 c 0,3.02251 -11.09502,5.47643 -24.78403,5.47643 -13.69005,0 -24.788187,-2.45392 -24.788187,-5.47643 0,-3.02771 11.098137,-5.47748 24.788187,-5.47748 13.68901,0 24.78403,2.44977 24.78403,5.47748 z"
         style="opacity:0.5;fill:url(#linearGradient1240);stroke-width:1.0376"
         id="path40" />
      <path
         d="m 141.87585,118.18018 c 0,9.40478 -11.09502,17.02904 -24.78403,17.02904 -13.69005,0 -24.788187,-7.62426 -24.788187,-17.02904 0,-9.4027 11.098137,-17.02592 24.788187,-17.02592 13.68901,0 24.78403,7.62322 24.78403,17.02592 z"
         style="fill:url(#linearGradient1241);stroke-width:1.0376"
         id="path49" />
      <path
         d="m 140.16589,118.6637 c 0,8.75213 -10.33238,15.84929 -23.07407,15.84929 -12.74584,0 -23.075115,-7.0982 -23.075115,-15.84929 0,-8.75524 10.330315,-15.85344 23.075115,-15.85344 12.74169,0 23.07407,7.09717 23.07407,15.85344 z"
         style="fill:url(#linearGradient1242);stroke-width:1.0376"
         id="path58" />
      <path
         a:adobe-blending-mode="multiply"
         d="M 141.91424,122.79126 H 92.52049 v -7.2445 h 49.39375 z"
         style="opacity:0.5;fill:url(#linearGradient1243);stroke-width:1.0376"
         id="path67" />
      <path
         d="m 68.145269,25.228121 c -6.518183,0 -11.822377,5.104976 -11.822377,11.382436 V 108.1487 c 0,6.27538 5.304194,11.3814 11.822377,11.3814 h 99.724461 c 6.52233,0 11.82341,-5.10602 11.82341,-11.3814 V 36.610557 c 0,-6.276423 -5.30004,-11.382436 -11.82341,-11.382436 H 68.145269 M 59.133741,108.1487 V 36.610557 c 0,-4.784359 4.042477,-8.674309 9.011528,-8.674309 h 99.724461 c 4.97216,0 9.01256,3.88995 9.01256,8.674309 V 108.1487 c 0,4.78124 -4.0404,8.67327 -9.01256,8.67327 H 68.145269 c -4.970088,0 -9.011528,-3.89203 -9.011528,-8.67327 z"
         style="fill:url(#linearGradient1244);stroke-width:1.0376"
         id="path78" />
      <path
         d="m 178.28823,108.1487 c 0,5.53765 -4.66296,10.02733 -10.4185,10.02733 H 68.145269 c -5.751399,0 -10.416433,-4.48968 -10.416433,-10.02733 V 36.610557 c 0,-5.538691 4.663997,-10.02941 10.416433,-10.02941 h 99.724461 c 5.75554,0 10.4185,4.490719 10.4185,10.02941 z"
         style="fill:url(#linearGradient1245);stroke-width:1.0376"
         id="path87" />
      <path
         d="m 177.1697,107.43483 c 0,5.38617 -4.53741,9.75134 -10.13109,9.75134 H 68.979497 c -5.595759,0 -10.132132,-4.36517 -10.132132,-9.75134 V 37.322348 c 0,-5.385127 4.53741,-9.752371 10.132132,-9.752371 h 98.059113 c 5.59368,0 10.13109,4.367244 10.13109,9.752371 z"
         style="fill:url(#linearGradient1246);stroke-width:1.0376"
         id="path96"
         inkscape:export-filename="/home/dys/tip/program/consult/public/logo.192тип192.png"
         inkscape:export-xdpi="144.48724"
         inkscape:export-ydpi="144.48724" />
      <path
         a:adobe-blending-mode="screen"
         d="m 57.194473,86.682898 c 0,3.793454 0.497009,7.471734 1.423583,10.981924 0.07263,0.01245 0.154602,0.0249 0.229309,0.04047 V 55.274846 c -1.067687,3.749875 -1.652892,27.323034 -1.652892,31.408052 z"
         style="fill:url(#linearGradient1247);stroke-width:1.0376"
         id="path105" />
      <path
         a:adobe-blending-mode="screen"
         d="M 166.29465,28.507964 H 70.392703 c -5.393427,0 -9.76171,4.204342 -9.76171,9.395438 v 58.889839 c 7.094049,1.245116 33.121125,5.649709 51.875687,-18.684004 22.36955,-29.026768 55.46058,-25.627601 63.54968,-27.648839 V 37.903402 c 0,-5.191096 -4.37139,-9.395438 -9.76171,-9.395438 z"
         style="fill:url(#linearGradient1248);stroke-width:1.0376"
         id="path114" />
      <path
         d="M 167.38309,107.16817 H 68.384954 V 37.603537 h 98.998136 z"
         style="fill:url(#radialGradient1249);stroke-width:1.0376"
         id="path129" />
      <text
         xml:space="preserve"
         style="font-size:46.4773px;line-height:1.25;font-family:sans-serif;text-align:center;text-anchor:middle;fill:#ffffff;fill-opacity:1;stroke:#000000;stroke-width:1.40119;stroke-miterlimit:4;stroke-dasharray:none;stroke-opacity:0.748023"
         x="117.88402"
         y="76.183182"
         id="text2535"><tspan
           sodipodi:role="line"
           id="tspan2533"
           style="text-align:center;text-anchor:middle;fill:#ffffff;fill-opacity:1;stroke:#000000;stroke-width:1.40119;stroke-miterlimit:4;stroke-dasharray:none;stroke-opacity:0.748023"
           x="117.88402"
           y="76.183182">&lt;/&gt;</tspan></text>
      <g
         id="g5062"
         transform="matrix(0.3753392,0,0,0.3753392,94.635351,54.247796)"
         style="opacity:0.652996">
        <circle
           style="opacity:0.749952;fill:#a34811;fill-opacity:1;fill-rule:evenodd"
           id="path1588"
           cx="61.524864"
           cy="62.497974"
           r="57.257935" />
        <path
           id="path833"
           d="M 61.939453,0.5 C 28.009453,0.5 0.5,28.009453 0.5,61.939453 c 0,33.93 27.509453,61.441407 61.439453,61.441407 33.93,0 61.441407,-27.511407 61.441407,-61.441407 C 123.38086,28.009453 95.869453,0.5 61.939453,0.5 Z m 0,12.480469 c 27.04,0 48.960937,21.918984 48.960937,48.958984 0,27.04 -21.920937,48.960937 -48.960937,48.960937 -27.04,0 -48.958984,-21.920937 -48.958984,-48.960937 0,-27.04 21.918984,-48.958984 48.958984,-48.958984 z"
           style="opacity:0.749952;fill:#1c11a3;fill-opacity:1;stroke:#f3f3f3;stroke-opacity:1" />
        <path
           d="m 91.217307,65.285543 c 4.104119,-2.648665 4.091007,-5.59891 0,-7.945994 L 48.825558,32.977077 C 45.481946,30.879125 41.9941,32.111672 42.085886,36.478035 l 0.131122,49.236319 c 0.288468,4.733505 2.989582,6.031613 6.975691,3.841875 z"
           id="path831"
           style="opacity:0.749952;fill:#1c11a3;fill-opacity:1;stroke:#f3f3f3;stroke-width:1.31122;stroke-opacity:1" />
      </g>
      <path
         d="M 167.48996,37.572409 H 68.384954 v 69.429741 h 1.561583 V 39.116353 h 97.542393 v -1.543944 z"
         style="fill:url(#linearGradient1250);stroke-width:1.0376"
         id="path144" />
      <path
         d="M 166.07676,37.568259 V 105.60451 H 68.378728 v 1.54187 h 97.698032 v 0.0425 h 1.56054 V 37.568259 Z"
         style="fill:#ffffff;stroke-width:1.0376"
         id="path146" />
      <path
         d="m 71.113833,52.089424 c 0,14.297045 20.997844,25.892188 46.901447,25.892188 25.90568,0 46.90767,-11.594105 46.90767,-25.892188 0,-4.776057 -2.35534,-9.247061 -6.44451,-13.092395 H 77.554196 c -4.089169,3.846371 -6.440363,8.316338 -6.440363,13.092395 z"
         style="opacity:0.426296;fill:url(#radialGradient1251);stroke-width:1.0376"
         id="path161" />
    </g>
  </g>
  <g
     inkscape:label="Layer 1"
     inkscape:groupmode="layer"
     id="layer1"
     style="display:inline"
     transform="translate(-21.435773,159.31916)">
    <path
       style="stroke-width:2.55489"
       d="m 876.5215,509.30298 v 24.72622 c 0,7.05403 5.7178,12.77444 12.7744,12.77444 h 171.7447 c 7.0567,0 12.7745,-5.72041 12.7745,-12.77444 V 43.692296 h 26.7497 c 7.0566,0 12.7745,-5.7204 12.7745,-12.77445 v -67.99582 c 0,-7.05405 -5.7205,-12.77445 -12.777,-12.77445 h -27.6159 c -6.2875,-48.37682 -47.7227,-85.872386 -97.7807,-85.872386 -50.063,0 -91.5008,37.495566 -97.7884,85.872386 h -27.60554 c -7.0566,0 -12.77444,5.7204 -12.77444,12.77445 v 67.99582 c 0,7.05405 5.71784,12.77445 12.77444,12.77445 h 26.74974 v 32.56205 z"
       id="path2909" />
    <path
       style="fill:#4a2500;fill-opacity:1;stroke-width:2.55489"
       d="M 1087.7878,18.143406 H 862.54622 v -42.44694 h 225.24158 z"
       id="path4248" />
    <path
       style="fill:#4a0800;fill-opacity:1;stroke-width:2.55489"
       d="m 1048.2637,83.022256 h -37.6898 c -7.0566,0 -12.7744,5.7204 -12.7744,12.77444 0,7.054054 5.7178,12.774454 12.7744,12.774454 h 37.6898 v 122.13904 h -37.6898 c -7.0566,0 -12.7744,5.72039 -12.7744,12.77444 0,7.05405 5.7178,12.77444 12.7744,12.77444 h 37.6898 v 122.13904 h -37.6898 c -7.0566,0 -12.7744,5.7204 -12.7744,12.77445 0,7.05405 5.7178,12.77444 12.7744,12.77444 h 37.6898 V 521.25729 H 902.0678 v -43.46632 h 37.6923 c 7.0566,0 12.7744,-5.72041 12.7744,-12.77444 0,-7.05405 -5.7178,-12.77446 -12.7744,-12.77446 H 902.0678 V 330.10304 h 37.6923 c 7.0566,0 12.7744,-5.72039 12.7744,-12.77444 0,-7.05405 -5.7178,-12.77444 -12.7744,-12.77444 H 902.0678 V 182.41512 h 37.6923 c 7.0566,0 12.7744,-5.7204 12.7744,-12.77445 0,-7.05405 -5.7178,-12.77445 -12.7744,-12.77445 H 902.0678 V 43.692296 h 146.1959 z"
       id="path4246" />
    <path
       style="fill:#0a00f2;fill-opacity:1;stroke-width:2.55489"
       d="m 975.1657,-110.17591 c 35.9448,0 65.8881,26.090526 71.9457,60.323486 H 903.2098 c 6.0628,-34.23296 36.0112,-60.323486 71.9559,-60.323486 z"
       id="path4244" />
    <path
       style="stroke-width:2.55489"
       d="m 258.25104,76.256916 v -32.56462 h 26.74969 c 7.05406,0 12.77445,-5.7204 12.77445,-12.77445 v -67.99582 c 0,-7.05405 -5.72039,-12.77445 -12.77445,-12.77445 h -27.6209 c -6.28504,-48.37682 -47.71257,-85.872386 -97.77306,-85.872386 -50.06306,0 -91.498257,37.495566 -97.783277,85.872386 h -27.61325 c -7.05407,0 -12.77447,5.7204 -12.77447,12.77445 v 67.99582 c 0,7.05405 5.7204,12.77445 12.77447,12.77445 h 26.74969 V 534.0292 c 0,7.05403 5.72041,12.77444 12.77444,12.77444 H 245.47915 c 7.05405,0 12.77444,-5.72041 12.77444,-12.77444 v -24.72622 z"
       id="path1447" />
    <path
       id="path3239"
       style="fill:#000000;fill-opacity:0.462997;stroke:#453f2f;stroke-width:9.73606;stroke-miterlimit:4;stroke-dasharray:none;stroke-opacity:0.70695"
       d="M 262.34558,509.30298 H 874.84091 L 874.21939,76.254346 h -49.42422 v -65.15223 c 0,-7.0540495 -5.71784,-12.7744395 -12.77444,-12.7744395 -7.0566,0 -12.77446,5.72039 -12.77446,12.7744395 v 44.70291 c -12.98138,-12.41422 -31.53499,-27.63114 -55.9955,-41.84909 v -41.17715 c 0,-7.05405 -5.71784,-12.77444 -12.77444,-12.77444 -7.0566,0 -12.77446,5.72039 -12.77446,12.77444 V 0.62963648 C 701.12576,-7.0810135 682.48785,-14.025204 661.70637,-19.441574 v -33.32854 c 0,-7.05405 -5.71784,-12.77444 -12.77444,-12.77444 -7.0566,0 -12.77445,5.72039 -12.77445,12.77444 v 27.69757 c -17.36047,-3.16041 -36.01882,-5.21709 -55.99551,-5.84304 v -63.81091 c 0,-7.054046 -5.71784,-12.774456 -12.77444,-12.774456 -7.05405,0 -12.77445,5.72041 -12.77445,12.774456 v 63.81347 c -19.97667,0.62339 -38.63503,2.68263 -55.99551,5.84303 v -27.69755 c 0,-7.05405 -5.72039,-12.77446 -12.77444,-12.77446 -7.05405,0 -12.77445,5.72041 -12.77445,12.77446 v 33.32852 c -20.77892,5.41637 -39.41939,12.3605605 -55.99551,20.07121048 V -27.218664 c 0,-7.05404 -5.72039,-12.77444 -12.77444,-12.77444 -7.05405,0 -12.77445,5.7204 -12.77445,12.77444 v 41.17715 c -24.46051,14.2154 -43.01411,29.43232 -55.9955,41.84909 v -44.70289 c 0,-7.0540495 -5.72039,-12.7744595 -12.77444,-12.7744595 -7.05406,0 -12.77446,5.72041 -12.77446,12.7744595 v 65.15223 h -47.62791 z m 47.6343,-25.5489 h -51.72884 v -31.4047 h 51.72629 v 31.4047 z m 0,-56.95359 H 258.25104 V 155.4968 h 51.72629 v 271.30369 z m 0,-296.85257 h -51.72884 v -28.14467 h 51.72629 v 28.14467 z m 81.5444,353.80616 h -55.9955 v -31.4047 h 55.9955 z m 0,-56.95359 h -55.9955 V 147.07333 c 6.14451,-7.61101 24.48861,-28.43336 55.9955,-49.035994 z m 0,-359.151004 c -24.46051,14.2154 -43.01411,29.43232 -55.9955,41.849094 V 93.379776 c 6.14451,-7.61101 24.48861,-28.43336 55.9955,-49.03599 z M 580.16197,-5.3513635 c 20.08655,0.68983 38.75001,2.97645 55.99551,6.44343 V 28.621006 c -17.36047,-3.16041 -36.01882,-5.21709 -55.99551,-5.84303 z M 636.15748,54.785616 V 209.10605 H 580.16197 V 48.342186 c 20.08655,0.69238 38.75001,2.97645 55.99551,6.44343 z m 0,214.914744 H 498.61757 V 234.65493 H 636.15748 Z M 498.61757,1.0409665 c 17.23785,-3.44143 35.89876,-5.70762 55.99551,-6.39233 V 22.780526 c -19.97667,0.62339 -38.63503,2.68264 -55.99551,5.84303 z M 554.61308,48.342186 V 209.10605 H 498.61757 V 54.737076 c 17.23528,-3.44399 35.89876,-5.71018 55.99551,-6.39489 z M 417.07317,29.441116 c 16.20566,-8.39025 34.84614,-16.13156 55.99551,-22.1968695 V 34.249416 c -20.77892,5.41636 -39.41939,12.36055 -55.99551,20.07122 z m 55.99551,454.312964 h -55.99551 v -31.4047 h 55.99551 z m 0,-56.95359 H 417.07317 V 83.134666 c 16.20566,-8.39025 34.84614,-16.13156 55.99551,-22.19687 z m 81.5444,56.95359 h -55.99551 v -31.4047 h 55.99551 z M 498.61757,426.80049 V 295.24924 h 55.99551 v 131.55125 z m 137.53991,56.95359 h -55.99551 v -31.4047 h 55.99551 z M 580.16197,426.80049 V 295.24924 h 55.99551 v 131.55125 z m 137.5399,56.95359 h -55.9955 v -31.4047 h 55.9955 z m 0,-56.95359 h -55.9955 V 61.024656 c 21.1366,6.09086 39.77708,13.86028 55.9955,22.27353 z m 0,-372.477304 c -16.57611,-7.71065 -35.21402,-14.65484 -55.9955,-20.07121 V 7.3285565 c 21.1366,6.0908495 39.77708,13.8602795 55.9955,22.2735195 z m 81.5444,429.430894 h -55.9955 v -31.4047 h 55.9955 z m 0,-56.95359 h -55.9955 V 98.213626 c 31.42769,20.556644 49.81779,41.297234 55.9955,48.887804 z m 0,-317.30191 C 786.26489,97.084356 767.71128,81.867436 743.25077,67.649486 v -23.12941 c 31.42514,20.55153 49.81523,41.29467 55.9955,48.8878 z m 77.27523,374.2555 h -51.72633 v -31.4047 h 51.72633 z m 0,-56.95359 H 824.79517 V 155.4968 h 51.72633 z m 0,-296.85257 h -51.72633 v -28.14467 h 51.72633 z" />
    <path
       style="fill:#4a2500;fill-opacity:1;stroke-width:2.55489"
       d="m 46.984693,18.143406 v -42.44694 H 272.22628 v 42.44694 z"
       id="path4901" />
    <path
       style="fill:#4a0800;fill-opacity:1;stroke-width:2.55489"
       d="m 232.70215,156.86622 h -37.68717 c -7.05405,0 -12.77445,5.7204 -12.77445,12.77445 0,7.05405 5.7204,12.77445 12.77445,12.77445 h 37.68973 v 122.13904 h -37.68973 c -7.05405,0 -12.77445,5.72039 -12.77445,12.77444 0,7.05405 5.7204,12.77444 12.77445,12.77444 h 37.68973 v 122.13903 h -37.68973 c -7.05405,0 -12.77445,5.72041 -12.77445,12.77446 0,7.05403 5.7204,12.77444 12.77445,12.77444 h 37.68973 v 43.46632 H 86.508833 V 403.947 h 37.689727 c 7.05405,0 12.77445,-5.72039 12.77445,-12.77444 0,-7.05405 -5.7204,-12.77445 -12.77445,-12.77445 H 86.508833 V 256.25907 h 37.689727 c 7.05405,0 12.77445,-5.72039 12.77445,-12.77444 0,-7.05405 -5.7204,-12.77444 -12.77445,-12.77444 H 86.508833 V 108.57115 h 37.689727 c 7.05405,0 12.77445,-5.7204 12.77445,-12.774454 0,-7.05404 -5.7204,-12.77444 -12.77445,-12.77444 H 86.508833 V 43.692296 H 232.70471 V 156.86622 Z"
       id="path4899" />
    <path
       style="fill:#0a00f2;fill-opacity:1;stroke-width:2.55489"
       d="m 159.60677,-110.17591 c 35.94729,0 65.89314,26.090526 71.95591,60.323486 H 87.655963 c 6.06021,-34.23296 36.003497,-60.323486 71.950807,-60.323486 z"
       id="path4897" />
    <g
       id="g1449"
       transform="matrix(1.9029768,0,0,1.9029768,149.96368,79.518301)" />
    <g
       id="g1451"
       transform="matrix(1.9029768,0,0,1.9029768,149.96368,79.518301)" />
    <g
       id="g1453"
       transform="matrix(1.9029768,0,0,1.9029768,149.96368,79.518301)" />
    <g
       id="g1455"
       transform="matrix(1.9029768,0,0,1.9029768,149.96368,79.518301)" />
    <g
       id="g1457"
       transform="matrix(1.9029768,0,0,1.9029768,149.96368,79.518301)" />
    <g
       id="g1459"
       transform="matrix(1.9029768,0,0,1.9029768,149.96368,79.518301)" />
    <g
       id="g1461"
       transform="matrix(1.9029768,0,0,1.9029768,149.96368,79.518301)" />
    <g
       id="g1463"
       transform="matrix(1.9029768,0,0,1.9029768,149.96368,79.518301)" />
    <g
       id="g1465"
       transform="matrix(1.9029768,0,0,1.9029768,149.96368,79.518301)" />
    <g
       id="g1467"
       transform="matrix(1.9029768,0,0,1.9029768,149.96368,79.518301)" />
    <g
       id="g1469"
       transform="matrix(1.9029768,0,0,1.9029768,149.96368,79.518301)" />
    <g
       id="g1471"
       transform="matrix(1.9029768,0,0,1.9029768,149.96368,79.518301)" />
    <g
       id="g1473"
       transform="matrix(1.9029768,0,0,1.9029768,149.96368,79.518301)" />
    <g
       id="g1475"
       transform="matrix(1.9029768,0,0,1.9029768,149.96368,79.518301)" />
    <g
       id="g1477"
       transform="matrix(1.9029768,0,0,1.9029768,149.96368,79.518301)" />
    <text
       xml:space="preserve"
       style="font-style:normal;font-weight:normal;font-size:136.063px;line-height:0.65;font-family:sans-serif;text-align:center;text-anchor:middle;fill:#000000;fill-opacity:1;stroke:#ffffff;stroke-width:4.91339;stroke-miterlimit:4;stroke-dasharray:none;stroke-opacity:1"
       x="568.73248"
       y="553.59064"
       id="text12307"><tspan
         sodipodi:role="line"
         id="tspan12305"
         x="568.73248"
         y="553.59064"
         style="font-style:normal;font-variant:normal;font-weight:normal;font-stretch:normal;font-size:136.063px;font-family:'Permanent Marker';-inkscape-font-specification:'Permanent Marker, Normal';font-variant-ligatures:normal;font-variant-caps:normal;font-variant-numeric:normal;font-variant-east-asian:normal;stroke:#ffffff;stroke-width:4.91339;stroke-miterlimit:4;stroke-dasharray:none;stroke-opacity:1">Call Meta</tspan><tspan
         sodipodi:role="line"
         x="568.73248"
         y="662.56653"
         id="tspan13585"
         style="font-style:normal;font-variant:normal;font-weight:normal;font-stretch:normal;font-size:136.063px;font-family:'Permanent Marker';-inkscape-font-specification:'Permanent Marker, Normal';font-variant-ligatures:normal;font-variant-caps:normal;font-variant-numeric:normal;font-variant-east-asian:normal;stroke:#ffffff;stroke-width:4.91339;stroke-miterlimit:4;stroke-dasharray:none;stroke-opacity:1">Public Access</tspan><tspan
         sodipodi:role="line"
         x="568.73248"
         y="771.54248"
         id="tspan13587"
         style="font-style:normal;font-variant:normal;font-weight:normal;font-stretch:normal;font-size:136.063px;font-family:'Permanent Marker';-inkscape-font-specification:'Permanent Marker, Normal';font-variant-ligatures:normal;font-variant-caps:normal;font-variant-numeric:normal;font-variant-east-asian:normal;stroke:#ffffff;stroke-width:4.91339;stroke-miterlimit:4;stroke-dasharray:none;stroke-opacity:1">Token</tspan></text>
  </g>
  <style
     type="text/css"
     id="style2">.st0{fill-rule:evenodd;clip-rule:evenodd;}</style>
</svg>
