<?xml version="1.0" encoding="UTF-8" standalone="no"?>
<!-- Created with Inkscape (http://www.inkscape.org/) -->

<svg
   version="1.1"
   viewBox="0 0 739.11774 378.02133"
   sodipodi:docname="ticket.svg"
   inkscape:version="1.1.1 (3bf5ae0d25, 2021-09-20)"
   id="svg1765"
   xmlns:inkscape="http://www.inkscape.org/namespaces/inkscape"
   xmlns:sodipodi="http://sodipodi.sourceforge.net/DTD/sodipodi-0.dtd"
   xmlns="http://www.w3.org/2000/svg"
   xmlns:svg="http://www.w3.org/2000/svg">
  <defs
     id="defs6">
    <clipPath
       clipPathUnits="userSpaceOnUse"
       id="clipPath18">
      <path
         d="m 7050,130 h 3120 V 7270 H 7050 Z"
         id="path16" />
    </clipPath>
    <clipPath
       clipPathUnits="userSpaceOnUse"
       id="clipPath30">
      <path
         d="m 9612.24,2143.35 c 0,44.44 36.04,80.44 80.47,80.44 44.41,0 80.45,-36 80.45,-80.44 0,-44.43 -36.04,-80.44 -80.45,-80.44 -44.43,0 -80.47,36.01 -80.47,80.44 z m -198.73,0 c 0,44.44 36.02,80.44 80.46,80.44 44.42,0 80.44,-36 80.44,-80.44 0,-44.43 -36.02,-80.44 -80.44,-80.44 -44.44,0 -80.46,36.01 -80.46,80.44 z m -198.75,0 c 0,44.44 36.03,80.44 80.47,80.44 44.41,0 80.44,-36 80.44,-80.44 0,-44.43 -36.03,-80.44 -80.44,-80.44 -44.44,0 -80.47,36.01 -80.47,80.44 z m -198.74,0 c 0,44.44 36.03,80.44 80.47,80.44 44.41,0 80.44,-36 80.44,-80.44 0,-44.43 -36.03,-80.44 -80.44,-80.44 -44.44,0 -80.47,36.01 -80.47,80.44 z m -198.73,0 c 0,44.44 36.02,80.44 80.46,80.44 44.41,0 80.44,-36 80.44,-80.44 0,-44.43 -36.03,-80.44 -80.44,-80.44 -44.44,0 -80.46,36.01 -80.46,80.44 z m -198.75,0 c 0,44.44 36.04,80.44 80.47,80.44 44.41,0 80.44,-36 80.44,-80.44 0,-44.43 -36.03,-80.44 -80.44,-80.44 -44.43,0 -80.47,36.01 -80.47,80.44 z m -198.75,0 c 0,44.44 36.04,80.44 80.47,80.44 44.42,0 80.45,-36 80.45,-80.44 0,-44.43 -36.03,-80.44 -80.45,-80.44 -44.43,0 -80.47,36.01 -80.47,80.44 z m -198.74,0 c 0,44.44 36.04,80.44 80.48,80.44 44.41,0 80.44,-36 80.44,-80.44 0,-44.43 -36.03,-80.44 -80.44,-80.44 -44.44,0 -80.48,36.01 -80.48,80.44 z m -198.74,0 c 0,44.44 36.04,80.44 80.47,80.44 44.42,0 80.45,-36 80.45,-80.44 0,-44.43 -36.03,-80.44 -80.45,-80.44 -44.43,0 -80.47,36.01 -80.47,80.44 z m -198.74,0 c 0,44.44 36.04,80.44 80.47,80.44 44.42,0 80.45,-36 80.45,-80.44 0,-44.43 -36.03,-80.44 -80.45,-80.44 -44.43,0 -80.47,36.01 -80.47,80.44 z m -198.74,0 c 0,44.44 36.04,80.44 80.47,80.44 44.42,0 80.45,-36 80.45,-80.44 0,-44.43 -36.03,-80.44 -80.45,-80.44 -44.43,0 -80.47,36.01 -80.47,80.44 z m -198.74,0 c 0,44.44 36.03,80.44 80.47,80.44 44.42,0 80.44,-36 80.44,-80.44 0,-44.43 -36.02,-80.44 -80.44,-80.44 -44.44,0 -80.47,36.01 -80.47,80.44 z M 10122.1,257.711 V 1897.79 c -4.7,-0.28 -9.3,-0.72 -14.1,-0.72 -136.03,0 -246.3,110.27 -246.3,246.28 0,136.01 110.27,246.28 246.3,246.28 4.8,0 9.4,-0.44 14.1,-0.72 v 4774.57 c 0,46.73 -37.9,84.63 -84.6,84.63 H 7161.79 c -46.74,0 -84.64,-37.9 -84.64,-84.63 V 2388.91 c 4.7,0.28 9.35,0.72 14.12,0.72 136.02,0 246.28,-110.27 246.28,-246.28 0,-136.01 -110.26,-246.28 -246.28,-246.28 -4.77,0 -9.42,0.44 -14.12,0.72 V 257.711 c 0,-46.731 37.9,-84.629 84.64,-84.629 h 2875.71 c 46.7,0 84.6,37.887 84.6,84.629 z"
         id="path28" />
    </clipPath>
    <linearGradient
       x1="0"
       y1="0"
       x2="1"
       y2="0"
       gradientUnits="userSpaceOnUse"
       gradientTransform="matrix(0,-7075.03,-7075.03,0,8599.62,7248.1)"
       spreadMethod="pad"
       id="linearGradient42">
      <stop
         style="stop-opacity:1;stop-color:#fbd2a6"
         offset="0"
         id="stop32" />
      <stop
         style="stop-opacity:1;stop-color:#fff7d0"
         offset="0.404716"
         id="stop34" />
      <stop
         style="stop-opacity:1;stop-color:#fbd2a6"
         offset="0.723703"
         id="stop36" />
      <stop
         style="stop-opacity:1;stop-color:#fff7d0"
         offset="0.856615"
         id="stop38" />
      <stop
         style="stop-opacity:1;stop-color:#fbd2a6"
         offset="1"
         id="stop40" />
    </linearGradient>
    <clipPath
       clipPathUnits="userSpaceOnUse"
       id="clipPath108">
      <path
         d="M 0,4410 H 5610 V 7320 H 0 Z"
         id="path106" />
    </clipPath>
    <clipPath
       clipPathUnits="userSpaceOnUse"
       id="clipPath120">
      <path
         d="m 5556.59,4875.9 c -40.9,0 -74.05,33.16 -74.05,74.05 0,40.9 33.15,74.06 74.05,74.06 3.62,0 7.1,-0.57 10.59,-1.07 v 59.08 c -3.49,-0.5 -6.97,-1.07 -10.59,-1.07 -40.9,0 -74.05,33.16 -74.05,74.05 0,40.9 33.15,74.06 74.05,74.06 3.62,0 7.1,-0.57 10.59,-1.07 v 59.08 c -3.49,-0.5 -6.97,-1.06 -10.59,-1.06 -40.9,0 -74.05,33.15 -74.05,74.04 0,40.9 33.15,74.06 74.05,74.06 3.62,0 7.1,-0.57 10.59,-1.07 v 59.08 c -3.49,-0.5 -6.97,-1.07 -10.59,-1.07 -40.9,0 -74.05,33.16 -74.05,74.06 0,40.9 33.15,74.05 74.05,74.05 3.62,0 7.1,-0.57 10.59,-1.07 v 59.08 c -3.49,-0.5 -6.97,-1.07 -10.59,-1.07 -40.9,0 -74.05,33.16 -74.05,74.06 0,40.89 33.15,74.04 74.05,74.04 3.62,0 7.1,-0.56 10.59,-1.06 v 59.08 c -3.49,-0.5 -6.97,-1.07 -10.59,-1.07 -40.9,0 -74.05,33.16 -74.05,74.06 0,40.89 33.15,74.05 74.05,74.05 3.62,0 7.1,-0.57 10.59,-1.07 v 59.08 c -3.49,-0.5 -6.97,-1.07 -10.59,-1.07 -40.9,0 -74.05,33.16 -74.05,74.05 0,40.9 33.15,74.06 74.05,74.06 3.62,0 7.1,-0.57 10.59,-1.07 v 59.08 c -3.49,-0.5 -6.97,-1.07 -10.59,-1.07 -40.9,0 -74.05,33.15 -74.05,74.05 0,40.9 33.15,74.06 74.05,74.06 3.62,0 7.1,-0.57 10.59,-1.07 v 59.08 c -3.49,-0.5 -6.97,-1.07 -10.59,-1.07 -40.9,0 -74.05,33.16 -74.05,74.05 0,40.9 33.15,74.06 74.05,74.06 3.62,0 7.1,-0.57 10.59,-1.07 v 59.08 c -3.49,-0.51 -6.97,-1.07 -10.59,-1.07 -40.9,0 -74.05,33.16 -74.05,74.06 0,40.89 33.15,74.04 74.05,74.04 3.62,0 7.1,-0.56 10.59,-1.06 v 69.24 c -194.77,0 -352.65,157.87 -352.65,352.63 H 376.438 c 0,-194.76 -157.883,-352.63 -352.6411,-352.63 v -69.59 c 4.5781,0.88 9.2734,1.41 14.1133,1.41 40.8945,0 74.0468,-33.15 74.0468,-74.04 0,-40.9 -33.1523,-74.06 -74.0468,-74.06 -4.8399,0 -9.5352,0.54 -14.1133,1.42 v -59.78 c 4.5781,0.88 9.2734,1.42 14.1133,1.42 40.8945,0 74.0468,-33.16 74.0468,-74.06 0,-40.89 -33.1523,-74.05 -74.0468,-74.05 -4.8399,0 -9.5352,0.54 -14.1133,1.42 v -59.78 c 4.5781,0.88 9.2734,1.42 14.1133,1.42 40.8945,0 74.0468,-33.16 74.0468,-74.06 0,-40.9 -33.1523,-74.05 -74.0468,-74.05 -4.8399,0 -9.5352,0.54 -14.1133,1.42 v -59.78 c 4.5781,0.88 9.2734,1.42 14.1133,1.42 40.8945,0 74.0468,-33.16 74.0468,-74.06 0,-40.89 -33.1523,-74.05 -74.0468,-74.05 -4.8399,0 -9.5352,0.54 -14.1133,1.42 v -59.78 c 4.5781,0.88 9.2734,1.42 14.1133,1.42 40.8945,0 74.0468,-33.16 74.0468,-74.05 0,-40.9 -33.1523,-74.06 -74.0468,-74.06 -4.8399,0 -9.5352,0.54 -14.1133,1.42 v -59.78 c 4.5781,0.88 9.2734,1.41 14.1133,1.41 40.8945,0 74.0468,-33.15 74.0468,-74.04 0,-40.9 -33.1523,-74.06 -74.0468,-74.06 -4.8399,0 -9.5352,0.54 -14.1133,1.42 v -59.78 c 4.5781,0.88 9.2734,1.42 14.1133,1.42 40.8945,0 74.0468,-33.15 74.0468,-74.05 0,-40.9 -33.1523,-74.06 -74.0468,-74.06 -4.8399,0 -9.5352,0.54 -14.1133,1.42 v -59.78 c 4.5781,0.88 9.2734,1.42 14.1133,1.42 40.8945,0 74.0468,-33.16 74.0468,-74.06 0,-40.89 -33.1523,-74.04 -74.0468,-74.04 -4.8399,0 -9.5352,0.53 -14.1133,1.41 v -59.78 c 4.5781,0.88 9.2734,1.42 14.1133,1.42 40.8945,0 74.0468,-33.16 74.0468,-74.06 0,-40.89 -33.1523,-74.05 -74.0468,-74.05 -4.8399,0 -9.5352,0.54 -14.1133,1.42 v -59.78 c 4.5781,0.88 9.2734,1.42 14.1133,1.42 40.8945,0 74.0468,-33.16 74.0468,-74.06 0,-40.89 -33.1523,-74.05 -74.0468,-74.05 -4.8399,0 -9.5352,0.54 -14.1133,1.42 v -69.59 c 194.7581,0 352.6411,-157.88 352.6411,-352.63 H 5214.53 c 0,194.75 157.88,352.63 352.65,352.63 v 69.24 c -3.49,-0.5 -6.97,-1.07 -10.59,-1.07 z"
         id="path118" />
    </clipPath>
    <linearGradient
       x1="0"
       y1="0"
       x2="1"
       y2="0"
       gradientUnits="userSpaceOnUse"
       gradientTransform="matrix(5543.38,0,0,-5543.38,23.799,5872.68)"
       spreadMethod="pad"
       id="linearGradient128">
      <stop
         style="stop-opacity:1;stop-color:#fbd2a6"
         offset="0"
         id="stop122" />
      <stop
         style="stop-opacity:1;stop-color:#fff7d0"
         offset="0.5"
         id="stop124" />
      <stop
         style="stop-opacity:1;stop-color:#fbd2a6"
         offset="1"
         id="stop126" />
    </linearGradient>
    <clipPath
       clipPathUnits="userSpaceOnUse"
       id="clipPath164">
      <path
         d="M 0,0 H 5610 V 2910 H 0 Z"
         id="path162" />
    </clipPath>
    <clipPath
       clipPathUnits="userSpaceOnUse"
       id="clipPath176">
      <path
         d="m 5491.53,184.281 c 0,41.77 33.87,75.641 75.65,75.641 v 62.558 c -41.78,0 -75.65,33.872 -75.65,75.641 0,41.777 33.87,75.649 75.65,75.649 v 62.539 c -41.78,0 -75.65,33.871 -75.65,75.64 0,41.781 33.87,75.653 75.65,75.653 v 62.558 c -41.78,0 -75.65,33.86 -75.65,75.641 0,41.781 33.87,75.648 75.65,75.648 v 62.531 c -41.78,0 -75.65,33.872 -75.65,75.65 0,41.78 33.87,75.64 75.65,75.64 v 62.56 c -41.78,0 -75.65,33.87 -75.65,75.65 0,41.77 33.87,75.64 75.65,75.64 v 62.54 c -41.78,0 -75.65,33.87 -75.65,75.64 0,41.78 33.87,75.65 75.65,75.65 v 62.56 c -41.78,0 -75.65,33.86 -75.65,75.64 0,41.78 33.87,75.65 75.65,75.65 v 62.54 c -41.78,0 -75.65,33.86 -75.65,75.64 0,41.78 33.87,75.64 75.65,75.64 v 62.56 c -41.78,0 -75.65,33.87 -75.65,75.65 0,41.78 33.87,75.64 75.65,75.64 v 62.54 c -41.78,0 -75.65,33.87 -75.65,75.65 0,41.77 33.87,75.64 75.65,75.64 v 62.56 c -41.78,0 -75.65,33.87 -75.65,75.64 0,41.78 33.87,75.65 75.65,75.65 v 62.54 c -41.78,0 -75.65,33.86 -75.65,75.64 0,41.78 33.87,75.65 75.65,75.65 v 58.91 H 23.7969 v -59.29 c 38.2617,-3.76 68.1601,-36.02 68.1601,-75.27 0,-39.25 -29.8984,-71.5 -68.1601,-75.26 v -63.3 c 38.2617,-3.76 68.1601,-36.02 68.1601,-75.27 0,-39.24 -29.8984,-71.5 -68.1601,-75.26 v -63.32 c 38.2617,-3.76 68.1601,-36.02 68.1601,-75.26 0,-39.25 -29.8984,-71.51 -68.1601,-75.27 v -63.3 c 38.2617,-3.76 68.1601,-36.01 68.1601,-75.26 0,-39.25 -29.8984,-71.51 -68.1601,-75.27 v -63.32 c 38.2617,-3.76 68.1601,-36.01 68.1601,-75.26 0,-39.25 -29.8984,-71.5 -68.1601,-75.26 v -63.3 c 38.2617,-3.76 68.1601,-36.02 68.1601,-75.27 0,-39.25 -29.8984,-71.5 -68.1601,-75.26 v -63.32 c 38.2617,-3.76 68.1601,-36.02 68.1601,-75.27 0,-39.24 -29.8984,-71.5 -68.1601,-75.26 v -63.3 c 38.2617,-3.76 68.1601,-36.02 68.1601,-75.26 0,-39.25 -29.8984,-71.51 -68.1601,-75.27 v -63.32 c 38.2617,-3.76 68.1601,-36.01 68.1601,-75.26 0,-39.25 -29.8984,-71.509 -68.1601,-75.259 v -63.312 c 38.2617,-3.758 68.1601,-36.008 68.1601,-75.258 0,-39.25 -29.8984,-71.5 -68.1601,-75.262 v -63.32 c 38.2617,-3.758 68.1601,-36.02 68.1601,-75.27 0,-39.238 -29.8984,-71.5 -68.1601,-75.258 v -63.3 c 38.2617,-3.762 68.1601,-36.02 68.1601,-75.27 0,-39.242 -29.8984,-71.5 -68.1601,-75.262 v -63.32 c 38.2617,-3.758 68.1601,-36.008 68.1601,-75.258 0,-39.25 -29.8984,-71.511 -68.1601,-75.269 V 49.7305 H 5567.18 v 58.8985 c -41.78,0 -75.65,33.871 -75.65,75.652 z"
         id="path174" />
    </clipPath>
    <linearGradient
       x1="0"
       y1="0"
       x2="1"
       y2="0"
       gradientUnits="userSpaceOnUse"
       gradientTransform="matrix(5543.38,0,0,-5543.38,23.799,1467.31)"
       spreadMethod="pad"
       id="linearGradient184">
      <stop
         style="stop-opacity:1;stop-color:#fbd2a6"
         offset="0"
         id="stop178" />
      <stop
         style="stop-opacity:1;stop-color:#fff7d0"
         offset="0.5"
         id="stop180" />
      <stop
         style="stop-opacity:1;stop-color:#fbd2a6"
         offset="1"
         id="stop182" />
    </linearGradient>
  </defs>
  <sodipodi:namedview
     id="namedview4"
     pagecolor="#ffffff"
     bordercolor="#666666"
     borderopacity="1.0"
     inkscape:pageshadow="2"
     inkscape:pageopacity="0.0"
     inkscape:pagecheckerboard="0"
     showgrid="false"
     fit-margin-top="0"
     fit-margin-left="0"
     fit-margin-right="0"
     fit-margin-bottom="0"
     inkscape:zoom="0.89446721"
     inkscape:cx="674.70332"
     inkscape:cy="483.52806"
     inkscape:window-width="3440"
     inkscape:window-height="1369"
     inkscape:window-x="0"
     inkscape:window-y="34"
     inkscape:window-maximized="1"
     inkscape:current-layer="g10" />
  <g
     id="g8"
     inkscape:groupmode="layer"
     inkscape:label="ink_ext_XXXXXX"
     transform="matrix(1.3333333,0,0,-1.3333333,-3.1729199,972.03464)">
    <g
       id="g10"
       transform="scale(0.1)">
      <g
         id="g114">
        <g
           id="g116"
           clip-path="url(#clipPath120)">
          <path
             d="m 5556.59,4875.9 c -40.9,0 -74.05,33.16 -74.05,74.05 0,40.9 33.15,74.06 74.05,74.06 3.62,0 7.1,-0.57 10.59,-1.07 v 59.08 c -3.49,-0.5 -6.97,-1.07 -10.59,-1.07 -40.9,0 -74.05,33.16 -74.05,74.05 0,40.9 33.15,74.06 74.05,74.06 3.62,0 7.1,-0.57 10.59,-1.07 v 59.08 c -3.49,-0.5 -6.97,-1.06 -10.59,-1.06 -40.9,0 -74.05,33.15 -74.05,74.04 0,40.9 33.15,74.06 74.05,74.06 3.62,0 7.1,-0.57 10.59,-1.07 v 59.08 c -3.49,-0.5 -6.97,-1.07 -10.59,-1.07 -40.9,0 -74.05,33.16 -74.05,74.06 0,40.9 33.15,74.05 74.05,74.05 3.62,0 7.1,-0.57 10.59,-1.07 v 59.08 c -3.49,-0.5 -6.97,-1.07 -10.59,-1.07 -40.9,0 -74.05,33.16 -74.05,74.06 0,40.89 33.15,74.04 74.05,74.04 3.62,0 7.1,-0.56 10.59,-1.06 v 59.08 c -3.49,-0.5 -6.97,-1.07 -10.59,-1.07 -40.9,0 -74.05,33.16 -74.05,74.06 0,40.89 33.15,74.05 74.05,74.05 3.62,0 7.1,-0.57 10.59,-1.07 v 59.08 c -3.49,-0.5 -6.97,-1.07 -10.59,-1.07 -40.9,0 -74.05,33.16 -74.05,74.05 0,40.9 33.15,74.06 74.05,74.06 3.62,0 7.1,-0.57 10.59,-1.07 v 59.08 c -3.49,-0.5 -6.97,-1.07 -10.59,-1.07 -40.9,0 -74.05,33.15 -74.05,74.05 0,40.9 33.15,74.06 74.05,74.06 3.62,0 7.1,-0.57 10.59,-1.07 v 59.08 c -3.49,-0.5 -6.97,-1.07 -10.59,-1.07 -40.9,0 -74.05,33.16 -74.05,74.05 0,40.9 33.15,74.06 74.05,74.06 3.62,0 7.1,-0.57 10.59,-1.07 v 59.08 c -3.49,-0.51 -6.97,-1.07 -10.59,-1.07 -40.9,0 -74.05,33.16 -74.05,74.06 0,40.89 33.15,74.04 74.05,74.04 3.62,0 7.1,-0.56 10.59,-1.06 v 69.24 c -194.77,0 -352.65,157.87 -352.65,352.63 H 376.438 c 0,-194.76 -157.883,-352.63 -352.6411,-352.63 v -69.59 c 4.5781,0.88 9.2734,1.41 14.1133,1.41 40.8945,0 74.0468,-33.15 74.0468,-74.04 0,-40.9 -33.1523,-74.06 -74.0468,-74.06 -4.8399,0 -9.5352,0.54 -14.1133,1.42 v -59.78 c 4.5781,0.88 9.2734,1.42 14.1133,1.42 40.8945,0 74.0468,-33.16 74.0468,-74.06 0,-40.89 -33.1523,-74.05 -74.0468,-74.05 -4.8399,0 -9.5352,0.54 -14.1133,1.42 v -59.78 c 4.5781,0.88 9.2734,1.42 14.1133,1.42 40.8945,0 74.0468,-33.16 74.0468,-74.06 0,-40.9 -33.1523,-74.05 -74.0468,-74.05 -4.8399,0 -9.5352,0.54 -14.1133,1.42 v -59.78 c 4.5781,0.88 9.2734,1.42 14.1133,1.42 40.8945,0 74.0468,-33.16 74.0468,-74.06 0,-40.89 -33.1523,-74.05 -74.0468,-74.05 -4.8399,0 -9.5352,0.54 -14.1133,1.42 v -59.78 c 4.5781,0.88 9.2734,1.42 14.1133,1.42 40.8945,0 74.0468,-33.16 74.0468,-74.05 0,-40.9 -33.1523,-74.06 -74.0468,-74.06 -4.8399,0 -9.5352,0.54 -14.1133,1.42 v -59.78 c 4.5781,0.88 9.2734,1.41 14.1133,1.41 40.8945,0 74.0468,-33.15 74.0468,-74.04 0,-40.9 -33.1523,-74.06 -74.0468,-74.06 -4.8399,0 -9.5352,0.54 -14.1133,1.42 v -59.78 c 4.5781,0.88 9.2734,1.42 14.1133,1.42 40.8945,0 74.0468,-33.15 74.0468,-74.05 0,-40.9 -33.1523,-74.06 -74.0468,-74.06 -4.8399,0 -9.5352,0.54 -14.1133,1.42 v -59.78 c 4.5781,0.88 9.2734,1.42 14.1133,1.42 40.8945,0 74.0468,-33.16 74.0468,-74.06 0,-40.89 -33.1523,-74.04 -74.0468,-74.04 -4.8399,0 -9.5352,0.53 -14.1133,1.41 v -59.78 c 4.5781,0.88 9.2734,1.42 14.1133,1.42 40.8945,0 74.0468,-33.16 74.0468,-74.06 0,-40.89 -33.1523,-74.05 -74.0468,-74.05 -4.8399,0 -9.5352,0.54 -14.1133,1.42 v -59.78 c 4.5781,0.88 9.2734,1.42 14.1133,1.42 40.8945,0 74.0468,-33.16 74.0468,-74.06 0,-40.89 -33.1523,-74.05 -74.0468,-74.05 -4.8399,0 -9.5352,0.54 -14.1133,1.42 v -69.59 c 194.7581,0 352.6411,-157.88 352.6411,-352.63 H 5214.53 c 0,194.75 157.88,352.63 352.65,352.63 v 69.24 c -3.49,-0.5 -6.97,-1.07 -10.59,-1.07"
             style="fill:url(#linearGradient128);fill-opacity:1;fill-rule:nonzero;stroke:none"
             id="path130" />
        </g>
      </g>
      <path
         d="m 5355.59,6844.38 10.7,22.58 c -119.38,56.57 -211.38,161.67 -249.67,289.43 l -5.34,17.81 H 458.535 l -5.344,-17.81 C 415.617,7031.03 326.336,6927.46 210.211,6870.17 l -13.938,-6.88 V 4882.07 l 13.938,-6.88 c 116.125,-57.29 205.406,-160.85 242.98,-286.22 l 5.344,-17.82 H 5111.28 l 5.34,17.82 c 38.29,127.76 130.29,232.85 249.67,289.43 l 14.3,6.77 v 1975.02 l -14.3,6.77 -10.7,-22.58 h -25 V 4900.99 h 25 l -10.71,22.59 c -132,-62.58 -233.64,-178.59 -276.15,-320.25 l 23.95,-7.18 v 25 H 477.141 v -25 l 23.945,7.18 c -41.711,139 -140.359,253.33 -268.746,316.7 l -11.067,-22.42 h 25 v 1950.14 h -25 l 11.067,-22.42 c 128.387,63.37 227.035,177.7 268.746,316.69 l -23.945,7.18 v -25 H 5092.68 v 25 l -23.95,-7.18 c 42.51,-141.65 144.15,-257.66 276.15,-320.23 l 10.71,22.59 h -25 25"
         style="fill:#c21e25;fill-opacity:1;fill-rule:nonzero;stroke:none"
         id="path132" />
      <g
         id="g134"
         transform="scale(10)">
        <text
           transform="matrix(0,1,1,0,73.1328,502.723)"
           style="font-variant:normal;font-weight:bold;font-size:38.0842px;font-family:MyriadPro;-inkscape-font-specification:MyriadPro-Bold;writing-mode:lr-tb;fill:#100f0d;fill-opacity:1;fill-rule:nonzero;stroke:none"
           id="text138"><tspan
             x="0 21.136192 42.272434 63.408627 84.544868 105.68106 126.81725 147.95349"
             y="0"
             sodipodi:role="line"
             id="tspan136">01234567</tspan></text>
        <text
           transform="matrix(0,-1,-1,0,486.608,671.816)"
           style="font-variant:normal;font-weight:bold;font-size:38.0842px;font-family:MyriadPro;-inkscape-font-specification:MyriadPro-Bold;writing-mode:lr-tb;fill:#100f0d;fill-opacity:1;fill-rule:nonzero;stroke:none"
           id="text142"><tspan
             x="0 21.136192 42.272434 63.408627 84.544868 105.68106 126.81725 147.95349"
             y="0"
             sodipodi:role="line"
             id="tspan140">01234567</tspan></text>
      </g>
      <path
         d="m 866.352,4596.15 h 50 V 7149.2 h -50 z"
         style="fill:#c21e25;fill-opacity:1;fill-rule:nonzero;stroke:none"
         id="path144" />
      <g
         id="g146"
         transform="scale(10)">
        <text
           transform="scale(1,-1)"
           style="font-variant:normal;font-weight:normal;font-size:91.9886px;font-family:Rockwell;-inkscape-font-specification:Rockwell;writing-mode:lr-tb;fill:#100f0d;fill-opacity:1;fill-rule:nonzero;stroke:none"
           id="text154"
           x="147.16391"
           y="-551.70984"><tspan
             x="147.16391 192.8817 214.86661 268.21909 318.07599 364.80447"
             y="-551.70984"
             sodipodi:role="line"
             id="tspan152">TICKET</tspan></text>
      </g>
      <path
         d="m 4690.25,4596.15 h 50 V 7149.2 h -50 z"
         style="fill:#c21e25;fill-opacity:1;fill-rule:nonzero;stroke:none"
         id="path156" />
    </g>
  </g>
</svg>
