<?xml version="1.0" encoding="UTF-8" standalone="no"?>
<!-- Generator: Adobe Illustrator 17.1.0, SVG Export Plug-In . SVG Version: 6.00 Build 0)  -->

<svg
   version="1.1"
   viewBox="0 0 408.88598 292.07199"
   sodipodi:docname="brick wall.svg"
   inkscape:version="1.1.1 (3bf5ae0d25, 2021-09-20)"
   id="svg1018"
   xmlns:inkscape="http://www.inkscape.org/namespaces/inkscape"
   xmlns:sodipodi="http://sodipodi.sourceforge.net/DTD/sodipodi-0.dtd"
   xmlns="http://www.w3.org/2000/svg"
   xmlns:svg="http://www.w3.org/2000/svg">
  <defs
     id="defs65" />
  <sodipodi:namedview
     id="namedview63"
     pagecolor="#ffffff"
     bordercolor="#666666"
     borderopacity="1.0"
     inkscape:pageshadow="2"
     inkscape:pageopacity="0.0"
     inkscape:pagecheckerboard="0"
     showgrid="false"
     fit-margin-top="0"
     fit-margin-left="0"
     fit-margin-right="0"
     fit-margin-bottom="0"
     inkscape:zoom="2.1679422"
     inkscape:cx="278.37457"
     inkscape:cy="145.99097"
     inkscape:window-width="1720"
     inkscape:window-height="1369"
     inkscape:window-x="0"
     inkscape:window-y="34"
     inkscape:window-maximized="0" />
  <g
     id="g30"
     style="fill:#5e3730;fill-opacity:1;stroke:#000000;stroke-width:6.2;stroke-miterlimit:4;stroke-dasharray:none;stroke-opacity:1"
     transform="translate(3.0999999,-55.307)">
	<path
   d="m 15,193.754 h 96.605 c 8.271,0 15,-6.729 15,-15 V 148.67 c 0,-8.271 -6.729,-15 -15,-15 H 15 c -8.271,0 -15,6.729 -15,15 v 30.084 c 0,8.271 6.729,15 15,15 z"
   id="path2"
   style="fill:#5e3730;fill-opacity:1;stroke:#000000;stroke-width:6.2;stroke-miterlimit:4;stroke-dasharray:none;stroke-opacity:1" />

	<path
   d="M 264.287,178.754 V 148.67 c 0,-8.271 -6.729,-15 -15,-15 h -96.605 c -8.271,0 -15,6.729 -15,15 v 30.084 c 0,8.271 6.729,15 15,15 h 96.605 c 8.271,0 15,-6.729 15,-15 z"
   id="path4"
   style="fill:#5e3730;fill-opacity:1;stroke:#000000;stroke-width:6.2;stroke-miterlimit:4;stroke-dasharray:none;stroke-opacity:1" />

	<path
   d="M 401.968,178.754 V 148.67 c 0,-8.271 -6.729,-15 -15,-15 h -96.605 c -8.271,0 -15,6.729 -15,15 v 30.084 c 0,8.271 6.729,15 15,15 h 96.605 c 8.271,0 15,-6.729 15,-15 z"
   id="path6"
   style="fill:#5e3730;fill-opacity:1;stroke:#000000;stroke-width:6.2;stroke-miterlimit:4;stroke-dasharray:none;stroke-opacity:1" />

	<path
   d="m 82.976,118.492 h 96.606 c 8.271,0 15,-6.729 15,-15 V 73.407 c 0,-8.271 -6.729,-15 -15,-15 H 82.976 c -8.271,0 -15,6.729 -15,15 v 30.085 c 0,8.271 6.729,15 15,15 z"
   id="path8"
   style="fill:#5e3730;fill-opacity:1;stroke:#000000;stroke-width:6.2;stroke-miterlimit:4;stroke-dasharray:none;stroke-opacity:1" />

	<path
   d="m 222.104,118.492 h 96.605 c 8.271,0 15,-6.729 15,-15 V 73.407 c 0,-8.271 -6.729,-15 -15,-15 h -96.605 c -8.271,0 -15,6.729 -15,15 v 30.085 c 0,8.271 6.729,15 15,15 z"
   id="path10"
   style="fill:#5e3730;fill-opacity:1;stroke:#000000;stroke-width:6.2;stroke-miterlimit:4;stroke-dasharray:none;stroke-opacity:1" />

	<path
   d="m 15,118.492 h 26.302 c 8.271,0 15,-6.729 15,-15 V 73.407 c 0,-8.271 -6.729,-15 -15,-15 H 15 c -8.271,0 -15,6.729 -15,15 v 30.085 c 0,8.271 6.729,15 15,15 z"
   id="path12"
   style="fill:#5e3730;fill-opacity:1;stroke:#000000;stroke-width:6.2;stroke-miterlimit:4;stroke-dasharray:none;stroke-opacity:1" />

	<path
   d="m 387.686,58.407 h -26.301 c -8.271,0 -15,6.729 -15,15.001 v 30.084 c 0,8.271 6.729,15 15,15 h 26.301 c 8.271,0 15,-6.729 15,-15 V 73.408 c 0,-8.272 -6.729,-15.001 -15,-15.001 z"
   id="path14"
   style="fill:#5e3730;fill-opacity:1;stroke:#000000;stroke-width:6.2;stroke-miterlimit:4;stroke-dasharray:none;stroke-opacity:1" />

	<path
   d="M 111.605,284.194 H 15 c -8.271,0 -15,6.729 -15,15 v 30.085 c 0,8.271 6.729,15 15,15 h 96.605 c 8.271,0 15,-6.729 15,-15 v -30.085 c 0,-8.271 -6.728,-15 -15,-15 z"
   id="path16"
   style="fill:#5e3730;fill-opacity:1;stroke:#000000;stroke-width:6.2;stroke-miterlimit:4;stroke-dasharray:none;stroke-opacity:1" />

	<path
   d="m 249.287,284.194 h -96.605 c -8.271,0 -15,6.729 -15,15 v 30.085 c 0,8.271 6.729,15 15,15 h 96.605 c 8.271,0 15,-6.729 15,-15 v -30.085 c 0,-8.271 -6.729,-15 -15,-15 z"
   id="path18"
   style="fill:#5e3730;fill-opacity:1;stroke:#000000;stroke-width:6.2;stroke-miterlimit:4;stroke-dasharray:none;stroke-opacity:1" />

	<path
   d="m 386.968,284.194 h -96.605 c -8.271,0 -15,6.729 -15,15 v 30.085 c 0,8.271 6.729,15 15,15 h 96.605 c 8.271,0 15,-6.729 15,-15 v -30.085 c 0,-8.271 -6.729,-15 -15,-15 z"
   id="path20"
   style="fill:#5e3730;fill-opacity:1;stroke:#000000;stroke-width:6.2;stroke-miterlimit:4;stroke-dasharray:none;stroke-opacity:1" />

	<path
   d="m 82.976,208.932 c -8.271,0 -15,6.729 -15,15 v 30.085 c 0,8.271 6.729,15 15,15 h 96.606 c 8.271,0 15,-6.729 15,-15 v -30.085 c 0,-8.271 -6.729,-15 -15,-15 z"
   id="path22"
   style="fill:#5e3730;fill-opacity:1;stroke:#000000;stroke-width:6.2;stroke-miterlimit:4;stroke-dasharray:none;stroke-opacity:1" />

	<path
   d="m 222.104,269.016 h 96.605 c 8.271,0 15,-6.729 15,-15 v -30.085 c 0,-8.271 -6.729,-15 -15,-15 h -96.605 c -8.271,0 -15,6.729 -15,15 v 30.085 c 0,8.271 6.729,15 15,15 z"
   id="path24"
   style="fill:#5e3730;fill-opacity:1;stroke:#000000;stroke-width:6.2;stroke-miterlimit:4;stroke-dasharray:none;stroke-opacity:1" />

	<path
   d="m 15,269.016 h 26.302 c 8.271,0 15,-6.729 15,-15 v -30.085 c 0,-8.271 -6.729,-15 -15,-15 H 15 c -8.271,0 -15,6.729 -15,15 v 30.085 c 0,8.271 6.729,15 15,15 z"
   id="path26"
   style="fill:#5e3730;fill-opacity:1;stroke:#000000;stroke-width:6.2;stroke-miterlimit:4;stroke-dasharray:none;stroke-opacity:1" />

	<path
   d="m 387.686,208.932 h -26.301 c -8.271,0 -15,6.729 -15,15 v 30.085 c 0,8.271 6.729,15 15,15 h 26.301 c 8.271,0 15,-6.729 15,-15 v -30.085 c 0,-8.271 -6.729,-15 -15,-15 z"
   id="path28"
   style="fill:#5e3730;fill-opacity:1;stroke:#000000;stroke-width:6.2;stroke-miterlimit:4;stroke-dasharray:none;stroke-opacity:1" />

</g>
  <g
     id="g32"
     transform="translate(3.0999999,-55.307)">
</g>
  <g
     id="g34"
     transform="translate(3.0999999,-55.307)">
</g>
  <g
     id="g36"
     transform="translate(3.0999999,-55.307)">
</g>
  <g
     id="g38"
     transform="translate(3.0999999,-55.307)">
</g>
  <g
     id="g40"
     transform="translate(3.0999999,-55.307)">
</g>
  <g
     id="g42"
     transform="translate(3.0999999,-55.307)">
</g>
  <g
     id="g44"
     transform="translate(3.0999999,-55.307)">
</g>
  <g
     id="g46"
     transform="translate(3.0999999,-55.307)">
</g>
  <g
     id="g48"
     transform="translate(3.0999999,-55.307)">
</g>
  <g
     id="g50"
     transform="translate(3.0999999,-55.307)">
</g>
  <g
     id="g52"
     transform="translate(3.0999999,-55.307)">
</g>
  <g
     id="g54"
     transform="translate(3.0999999,-55.307)">
</g>
  <g
     id="g56"
     transform="translate(3.0999999,-55.307)">
</g>
  <g
     id="g58"
     transform="translate(3.0999999,-55.307)">
</g>
  <g
     id="g60"
     transform="translate(3.0999999,-55.307)">
</g>
</svg>
