<?xml version="1.0" encoding="UTF-8" standalone="no"?>
<!-- Created with Inkscape (http://www.inkscape.org/) -->

<svg
   viewBox="0 0 64.355095 71.787033"
   version="1.1"
   inkscape:version="1.1.1 (3bf5ae0d25, 2021-09-20)"
   sodipodi:docname="certification.svg"
   id="svg3093"
   xmlns:inkscape="http://www.inkscape.org/namespaces/inkscape"
   xmlns:sodipodi="http://sodipodi.sourceforge.net/DTD/sodipodi-0.dtd"
   xmlns="http://www.w3.org/2000/svg"
   xmlns:svg="http://www.w3.org/2000/svg">
  <sodipodi:namedview
     id="namedview1288"
     pagecolor="#ffffff"
     bordercolor="#666666"
     borderopacity="1.0"
     inkscape:pageshadow="2"
     inkscape:pageopacity="0.0"
     inkscape:pagecheckerboard="0"
     inkscape:document-units="mm"
     showgrid="false"
     fit-margin-top="0"
     fit-margin-left="0"
     fit-margin-right="0"
     fit-margin-bottom="0"
     inkscape:zoom="1.0998546"
     inkscape:cx="100.01322"
     inkscape:cy="149.56522"
     inkscape:window-width="2269"
     inkscape:window-height="1103"
     inkscape:window-x="860"
     inkscape:window-y="126"
     inkscape:window-maximized="0"
     inkscape:current-layer="layer1" />
  <defs
     id="defs1283" />
  <g
     inkscape:label="Layer 1"
     inkscape:groupmode="layer"
     id="layer1"
     transform="translate(-88.02487,-32.573516)">
    <g
       id="g2623"
       transform="translate(-67.44869,-4.966173)">
      <path
         style="fill:#91d4c3;fill-opacity:1;fill-rule:nonzero;stroke:none;stroke-width:0.403015"
         d="m 198.44973,41.490329 4.87246,4.87075 h -4.87246 z"
         id="path2441-3" />
      <path
         style="fill:#91d4c3;fill-opacity:1;fill-rule:nonzero;stroke:none;stroke-width:0.403015"
         d="M 157.78759,107.00876 V 39.853269 h 38.34888 v 7.66495 c 0,0.6386 0.51523,1.15863 1.15657,1.15863 h 7.66541 v 58.331911 z"
         id="path1386-6" />
    </g>
    <path
       d="m 96.31356,77.278936 h 23.08066 c 0.64089,0 1.15668,-0.51979 1.15668,-1.15702 0,-0.64089 -0.51637,-1.16023 -1.15668,-1.16023 H 96.31356 c -0.64203,0 -1.15749,0.51979 -1.15749,1.16023 0,0.63746 0.51523,1.15702 1.15749,1.15702"
       style="fill:#812711;fill-opacity:1;fill-rule:nonzero;stroke:none;stroke-width:0.403015"
       id="path102" />
    <path
       d="m 96.31356,83.434666 h 17.61174 c 0.63632,0 1.15669,-0.5198 1.15669,-1.15874 0,-0.63746 -0.5198,-1.15703 -1.15669,-1.15703 H 96.31356 c -0.64203,0 -1.15749,0.5198 -1.15749,1.15703 0,0.6386 0.51523,1.15874 1.15749,1.15874"
       style="fill:#812711;fill-opacity:1;fill-rule:nonzero;stroke:none;stroke-width:0.403015"
       id="path104" />
    <path
       d="m 120.82896,87.272566 h -24.5154 c -0.64203,0 -1.15749,0.51751 -1.15749,1.15703 0,0.64089 0.51523,1.16022 1.15749,1.16022 h 24.5154 c 0.64089,0 1.15669,-0.51979 1.15669,-1.16022 0,-0.63861 -0.51637,-1.15703 -1.15669,-1.15703"
       style="fill:#812711;fill-opacity:1;fill-rule:nonzero;stroke:none;stroke-width:0.403015"
       id="path106" />
    <path
       d="M 113.9253,93.429776 H 96.31356 c -0.64203,0 -1.15749,0.51637 -1.15749,1.15703 0,0.6386 0.51523,1.15874 1.15749,1.15874 h 17.61174 c 0.63632,0 1.15669,-0.51979 1.15669,-1.15874 0,-0.64089 -0.5198,-1.15703 -1.15669,-1.15703"
       style="fill:#812711;fill-opacity:1;fill-rule:nonzero;stroke:none;stroke-width:0.403015"
       id="path108" />
    <path
       id="path110"
       style="fill:#100f0d;fill-opacity:1;fill-rule:nonzero;stroke:none;stroke-width:0.403015"
       d="M 120.54679,65.355336 H 97.0592 v -23.48805 h 7.27837 v 7.44493 c 0,0.44325 0.25361,0.84995 0.65688,1.04187 0.40327,0.19307 0.87851,0.13823 1.22523,-0.14051 l 2.58332,-2.06707 2.58731,2.06707 c 0.20906,0.16793 0.46382,0.25475 0.722,0.25475 0.17365,0 0.34272,-0.0343 0.5038,-0.11538 0.3987,-0.19192 0.65688,-0.59862 0.65688,-1.04187 v -7.44493 h 7.27437 z m -9.59173,-23.48805 v 5.03286 l -1.42664,-1.14126 c -0.21363,-0.16793 -0.46724,-0.25361 -0.72542,-0.25361 -0.25362,0 -0.5118,0.08 -0.722,0.25361 l -1.42664,1.14126 v -5.03286 z m 10.75241,-2.31576 H 95.90412 c -0.64203,0 -1.15703,0.51979 -1.15703,1.15874 v 25.80221 c 0,0.6386 0.51523,1.15862 1.15703,1.15862 h 25.80335 c 0.64089,0 1.15668,-0.51979 1.15668,-1.15862 v -25.80221 c 0,-0.63861 -0.51636,-1.15874 -1.15668,-1.15874" />
    <path
       style="fill:#eb9308;fill-opacity:1;fill-rule:nonzero;stroke:none;stroke-width:0.403015"
       d="m 110.95506,41.867286 v 5.03286 l -1.42664,-1.14126 c -0.21363,-0.16793 -0.46724,-0.25361 -0.72542,-0.25361 -0.25362,0 -0.5118,0.08 -0.722,0.25361 l -1.42664,1.14126 v -5.03286 z"
       id="path2627-7" />
    <path
       style="fill:#3926d1;fill-opacity:1;fill-rule:nonzero;stroke:none;stroke-width:0.403015"
       d="M 120.54679,65.355336 H 97.0592 v -23.48805 h 7.27837 v 7.44493 c 0,0.44325 0.25361,0.84995 0.65688,1.04187 0.40327,0.19307 0.87851,0.13823 1.22523,-0.14051 l 2.58332,-2.06707 2.58731,2.06707 c 0.20906,0.16793 0.46382,0.25475 0.722,0.25475 0.17365,0 0.34272,-0.0343 0.5038,-0.11538 0.3987,-0.19192 0.65688,-0.59862 0.65688,-1.04187 v -7.44493 h 7.27437 z"
       id="path110-5" />
    <path
       id="path1386"
       style="fill:#18183e;fill-opacity:1;fill-rule:nonzero;stroke:none;stroke-width:0.403015"
       d="M 90.3389,102.04259 V 34.887096 h 38.34888 v 7.66495 c 0,0.6386 0.51523,1.15863 1.15657,1.15863 h 7.66541 v 58.331914 z m 40.66214,-65.518434 4.87246,4.87075 h -4.87246 z m 8.82598,6.02789 c 0,-0.0343 -0.008,-0.0685 -0.0114,-0.10282 -0.0229,-0.26618 -0.12909,-0.52093 -0.32216,-0.71743 l -8.82598,-8.82358 c -0.20106,-0.19877 -0.46381,-0.30273 -0.72999,-0.3233 -0.0343,-0.008 -0.0571,-0.0114 -0.0914,-0.0114 H 89.1819 c -0.64089,0 -1.15703,0.51979 -1.15703,1.15714 v 69.471154 c 0,0.63974 0.51637,1.15874 1.15703,1.15874 h 49.49028 c 0.63632,0 1.15657,-0.5198 1.15657,-1.15874" />
    <path
       style="fill:#048b1c;fill-opacity:1;fill-rule:nonzero;stroke:#000000;stroke-width:2.803;stroke-linejoin:round;stroke-miterlimit:4;stroke-dasharray:none;stroke-opacity:1"
       d="m 138.67045,97.777876 c -1.29777,-0.1942 -11.95754,-2.46679 -12.31214,-24.95545 h 24.62016 c -0.35414,22.51357 -11.04258,24.7681 -12.30802,24.95545 z"
       id="path112" />
    <path
       d="m 146.14234,78.245756 c -0.47182,-0.43183 -1.20501,-0.3987 -1.63227,0.0685 l -7.20594,7.89024 -3.29663,-2.59097 c -0.49923,-0.39413 -1.22511,-0.30845 -1.62416,0.19535 -0.39527,0.50266 -0.30616,1.22957 0.19764,1.62461 l 4.13893,3.25711 c 0.20906,0.16679 0.45924,0.24904 0.71286,0.24904 0.31416,0 0.62832,-0.12909 0.85794,-0.37813 l 7.92737,-8.68695 c 0.43183,-0.47182 0.39527,-1.20421 -0.08,-1.63387"
       style="fill:#ffffff;fill-opacity:1;fill-rule:nonzero;stroke:none;stroke-width:0.403015"
       id="path114" />
  </g>
</svg>
